<?xml version="1.0" encoding="UTF-8"?>
<svg width="63px" height="85px" viewBox="0 0 63 85" version="1.1" xmlns="http://www.w3.org/2000/svg" xmlns:xlink="http://www.w3.org/1999/xlink">
    <!-- Generator: Sketch 53.2 (72643) - https://sketchapp.com -->
    <title>Group 9</title>
    <desc>Created with Sketch.</desc>
    <g id="Phase-2---Title-Setup" stroke="none" stroke-width="1" class="inherit">
        <g id="1.-Home" transform="translate(-524.000000, -984.000000)" class="inherit"  stroke="#FFFFFF" stroke-width="0.55">
            <g id="Group-9" transform="translate(525.000000, 985.000000)">
                <path d="M54.4172662,0 L6.58273381,0 C2.95292662,0 0,2.97069362 0,6.62234043 L0,76.3776596 C0,80.0293064 2.95292662,83 6.58273381,83 L54.4172662,83 C58.0470734,83 61,80.0293064 61,76.3776596 L61,6.62234043 C61,2.97069362 58.0470734,0 54.4172662,0 Z M58.3669065,76.3776596 C58.3669065,78.568683 56.5950101,80.3510638 54.4172662,80.3510638 L6.58273381,80.3510638 C4.40481439,80.3510638 2.63309353,78.568683 2.63309353,76.3776596 L2.63309353,6.62234043 C2.63309353,4.43131702 4.40481439,2.64893617 6.58273381,2.64893617 L54.4172662,2.64893617 C56.5950101,2.64893617 58.3669065,4.43131702 58.3669065,6.62234043 L58.3669065,76.3776596 Z" id="Shape"></path>
                <path d="M53.6959349,5.00405501 L16.742498,5 C16.0220364,5 15.4382591,5.59185472 15.4380852,6.3221086 C15.4380852,7.05236248 16.0218625,7.64439351 16.7421502,7.64456982 L52.3915221,7.64844852 L52.3915221,69.3552539 L7.6086518,69.3552539 L7.61265147,7.64456982 L11.5253683,7.64456982 C12.245656,7.64456982 12.8296073,7.05253879 12.8296073,6.32228491 C12.8296073,5.59203103 12.245656,5 11.5253683,5 L6.30841252,5 C5.58812482,5 5.00417356,5.59185472 5.00417356,6.32228491 L5,70.6775388 C5,71.0282087 5.13737984,71.364598 5.38188116,71.6126587 C5.62655639,71.8607193 5.95818088,72 6.30423895,72 L53.695761,72 C54.4162226,72 55,71.407969 55,70.6777151 L55,6.32651622 C55,5.59608604 54.4162226,5.00405501 53.6959349,5.00405501 Z" id="Shape"></path>
                <path d="M32.6666667,75 L27.3333333,75 C26.5969778,75 26,75.6716 26,76.5 C26,77.3284 26.5969778,78 27.3333333,78 L32.6666667,78 C33.4032,78 34,77.3284 34,76.5 C34,75.6716 33.4032,75 32.6666667,75 Z" id="Shape"></path>
                <path d="M48.6626506,13 L14.3373494,13 C13.5987759,13 13,13.6716 13,14.5 C13,15.3284 13.5987759,16 14.3373494,16 L48.6626506,16 C49.4014024,16 50,15.3284 50,14.5 C50,13.6716 49.4014024,13 48.6626506,13 Z" id="Shape"></path>
                <path d="M48.6626506,19 L14.3373494,19 C13.5987759,19 13,19.6716 13,20.5 C13,21.3284 13.5987759,22 14.3373494,22 L48.6626506,22 C49.4014024,22 50,21.3284 50,20.5 C50,19.6716 49.4014024,19 48.6626506,19 Z" id="Shape"></path>
                <path d="M14.3483146,28 L31.6516854,28 C32.3964944,28 33,27.3284 33,26.5 C33,25.6716 32.3964944,25 31.6516854,25 L14.3483146,25 C13.6036854,25 13,25.6716 13,26.5 C13,27.3284 13.6036854,28 14.3483146,28 Z" id="Shape"></path>
                <path d="M48.6626506,32 L14.3373494,32 C13.5987759,32 13,32.6716 13,33.5 C13,34.3284 13.5987759,35 14.3373494,35 L48.6626506,35 C49.4014024,35 50,34.3284 50,33.5 C50,32.6716 49.4014024,32 48.6626506,32 Z" id="Shape"></path>
                <path d="M48.6626506,38 L14.3373494,38 C13.5987759,38 13,38.6716 13,39.5 C13,40.3284 13.5987759,41 14.3373494,41 L48.6626506,41 C49.4014024,41 50,40.3284 50,39.5 C50,38.6716 49.4014024,38 48.6626506,38 Z" id="Shape"></path>
                <path d="M48.6626506,44 L14.3373494,44 C13.5987759,44 13,44.6716 13,45.5 C13,46.3284 13.5987759,47 14.3373494,47 L48.6626506,47 C49.4014024,47 50,46.3284 50,45.5 C50,44.6716 49.4014024,44 48.6626506,44 Z" id="Shape"></path>
                <path d="M48.6626506,51 L14.3373494,51 C13.5987759,51 13,51.6716 13,52.5 C13,53.3284 13.5987759,54 14.3373494,54 L48.6626506,54 C49.4014024,54 50,53.3284 50,52.5 C50,51.6716 49.4014024,51 48.6626506,51 Z" id="Shape"></path>
                <path d="M50,57.5 C50,56.6716 49.4014024,56 48.6626506,56 L14.3373494,56 C13.5987759,56 13,56.6716 13,57.5 C13,58.3284 13.5987759,59 14.3373494,59 L48.6626506,59 C49.4014024,59 50,58.3284 50,57.5 Z" id="Shape"></path>
                <path d="M14.3483146,62 C13.6036854,62 13,62.6716 13,63.5 C13,64.3284 13.6036854,65 14.3483146,65 L31.6516854,65 C32.3964944,65 33,64.3284 33,63.5 C33,62.6716 32.3964944,62 31.6516854,62 L14.3483146,62 Z" id="Shape"></path>
            </g>
        </g>
    </g>
</svg>