    <svg
          aria-hidden="true"
          focusable="false"
          data-prefix="fas"
          data-icon="lock"
          class="h-8 w-8 text-white"
          xmlns="http://www.w3.org/2000/svg"
          viewBox="0 0 448 512"
        >
          <path
            fill="currentColor"
            d="M400 224h-24v-72C376 68.2 307.8 0 224 0S72 68.2 72 152v72H48C21.5 224 
           0 245.5 0 272v192c0 26.5 21.5 48 48 48h352c26.5 0 48-21.5 
           48-48V272c0-26.5-21.5-48-48-48zm-248-72c0-57.3 
           46.7-104 104-104s104 46.7 104 104v72H152v-72zm240 
           264c0 8.8-7.2 16-16 16H72c-8.8 0-16-7.2-16-16V272c0-8.8 
           7.2-16 16-16h304c8.8 0 16 7.2 16 16v144z"
          ></path>
        </svg>