<?xml version="1.0" encoding="UTF-8"?>
<svg version="1.1" xmlns="http://www.w3.org/2000/svg" width="822" height="370">
<path d="M0 0 C271.26 0 542.52 0 822 0 C822 122.1 822 244.2 822 370 C550.74 370 279.48 370 0 370 C0 247.9 0 125.8 0 0 Z " fill="#FEFEFE" transform="translate(0,0)"/>
<path d="M0 0 C1.08871902 -0.01022186 2.17743805 -0.02044373 3.29914856 -0.03097534 C6.88666977 -0.05870272 10.47341973 -0.0568589 14.06103516 -0.05224609 C16.56296065 -0.0600237 19.06488352 -0.0686938 21.56680298 -0.07821655 C26.80713422 -0.09312709 32.04726706 -0.09284667 37.28759766 -0.08203125 C42.65930937 -0.07129222 48.03026686 -0.08536545 53.40185547 -0.12304688 C59.90046603 -0.16804493 66.39844764 -0.1835407 72.89720535 -0.17570114 C75.36827407 -0.17672566 77.839358 -0.1871654 80.3103447 -0.20732498 C83.77142191 -0.23209708 87.23036133 -0.218449 90.69140625 -0.1953125 C91.70468491 -0.21059998 92.71796356 -0.22588745 93.76194763 -0.24163818 C100.93095097 -0.13611307 105.58235493 1.78540743 110.97509766 6.54931641 C114.57703517 10.61376288 115.62523819 14.95294222 115.36181641 20.27587891 C114.48105185 25.45370688 112.27182211 29.28584129 108.53759766 32.92431641 C102.44320424 36.78905369 97.31259978 36.85109793 90.25317383 36.85571289 C89.17289413 36.86403641 88.09261444 36.87235992 86.979599 36.88093567 C83.40905144 36.90502719 79.83868662 36.91380688 76.26806641 36.92041016 C73.78330938 36.92937712 71.29855291 36.93849897 68.813797 36.94776917 C63.60444832 36.96425942 58.39516393 36.97195937 53.18579102 36.97485352 C46.51759729 36.97888605 39.8500971 37.01791742 33.18204784 37.06359768 C28.04927882 37.09337087 22.91665562 37.10057715 17.78380775 37.10157967 C15.325862 37.10578139 12.86791579 37.11821363 10.41005516 37.13909721 C6.96798797 37.16601514 3.52732452 37.16118358 0.08520508 37.14868164 C-0.92546021 37.16351593 -1.93612549 37.17835022 -2.97741699 37.19363403 C-9.51802609 37.12613976 -14.01060111 35.8743269 -19.02490234 31.54931641 C-22.93960105 26.53047192 -24.51329041 22.32361466 -24.43115234 16.02978516 C-23.6797428 11.44185191 -21.23671999 7.83655834 -18.02490234 4.54931641 C-12.02307073 0.26960249 -7.2552 -0.03533604 0 0 Z " fill="#D72230" transform="translate(350.02490234375,247.45068359375)"/>
<path d="M0 0 C1.77503906 0.03480469 1.77503906 0.03480469 3.5859375 0.0703125 C5.36871094 0.09738281 5.36871094 0.09738281 7.1875 0.125 C8.10273438 0.14820312 9.01796875 0.17140625 9.9609375 0.1953125 C12.1085784 4.86409706 13.08382007 7.9326079 13.9609375 13.1953125 C22.2109375 13.1953125 30.4609375 13.1953125 38.9609375 13.1953125 C39.6209375 9.8953125 40.2809375 6.5953125 40.9609375 3.1953125 C41.6209375 2.2053125 42.2809375 1.2153125 42.9609375 0.1953125 C45.9296875 -0.16796875 45.9296875 -0.16796875 49.4609375 -0.1171875 C51.20890625 -0.11138672 51.20890625 -0.11138672 52.9921875 -0.10546875 C55.9609375 0.1953125 55.9609375 0.1953125 57.9609375 2.1953125 C58.46188197 5.46442421 58.37759002 8.76714457 58.3984375 12.0703125 C58.43130859 12.98167969 58.46417969 13.89304688 58.49804688 14.83203125 C58.50513672 15.71246094 58.51222656 16.59289062 58.51953125 17.5 C58.53298584 18.30421387 58.54644043 19.10842773 58.56030273 19.93701172 C57.9609375 22.1953125 57.9609375 22.1953125 56.18603516 24.45556641 C51.19515966 27.14784338 46.3854912 26.76613006 40.80078125 26.7265625 C39.02774376 26.73230286 39.02774376 26.73230286 37.21888733 26.73815918 C34.72330879 26.74087811 32.22770174 26.73351838 29.73217773 26.71679688 C25.90869804 26.69537 22.08709351 26.71661113 18.26367188 26.7421875 C15.83853751 26.7395446 13.41340432 26.7344204 10.98828125 26.7265625 C9.27100075 26.73870789 9.27100075 26.73870789 7.51902771 26.75109863 C6.45434769 26.73848999 5.38966766 26.72588135 4.29272461 26.71289062 C3.35738388 26.70970825 2.42204315 26.70652588 1.45835876 26.70324707 C-1.78656884 26.04328196 -2.98999005 24.74142176 -5.0390625 22.1953125 C-5.52490234 19.93701172 -5.52490234 19.93701172 -5.5 17.5 C-5.49613281 16.61957031 -5.49226563 15.73914063 -5.48828125 14.83203125 C-5.46378906 13.92066406 -5.43929688 13.00929688 -5.4140625 12.0703125 C-5.41277344 11.15121094 -5.41148437 10.23210937 -5.41015625 9.28515625 C-5.29193963 0.34009895 -5.29193963 0.34009895 0 0 Z " fill="#41464A" transform="translate(369.0390625,114.8046875)"/>
<path d="M0 0 C2.97 0 5.94 0 9 0 C9.20496094 0.68707031 9.40992188 1.37414062 9.62109375 2.08203125 C9.89050781 2.98308594 10.15992188 3.88414063 10.4375 4.8125 C10.83775391 6.15248047 10.83775391 6.15248047 11.24609375 7.51953125 C11.80387873 9.35473055 12.39344575 11.18033726 13 13 C22.9 12.67 32.8 12.34 43 12 C44.485 6.06 44.485 6.06 46 0 C48.97 0 51.94 0 55 0 C55.02684312 2.81256281 55.04676188 5.62487241 55.0625 8.4375 C55.07087891 9.23994141 55.07925781 10.04238281 55.08789062 10.86914062 C55.0965143 12.91295221 55.0522815 14.95683902 55 17 C53.33283316 18.66716684 51.3269386 18.12744882 49.03710938 18.12939453 C47.97931274 18.13254669 46.92151611 18.13569885 45.83166504 18.13894653 C44.68065308 18.1369223 43.52964111 18.13489807 42.34375 18.1328125 C40.58484436 18.13424759 40.58484436 18.13424759 38.79040527 18.13571167 C36.30541938 18.1363937 33.82043171 18.13453784 31.33544922 18.13037109 C27.51656113 18.12502319 23.69779065 18.13031536 19.87890625 18.13671875 C17.47135391 18.13605797 15.06380163 18.13477682 12.65625 18.1328125 C10.92973206 18.13584885 10.92973206 18.13584885 9.16833496 18.13894653 C8.11053833 18.13579437 7.0527417 18.13264221 5.96289062 18.12939453 C4.55843689 18.12820114 4.55843689 18.12820114 3.12561035 18.12698364 C1 18 1 18 0 17 C-0.07325168 14.13732433 -0.09238205 11.299281 -0.0625 8.4375 C-0.05798828 7.63119141 -0.05347656 6.82488281 -0.04882812 5.99414062 C-0.03700518 3.99606244 -0.01906914 1.99802217 0 0 Z " fill="#FAFCFC" transform="translate(368,119)"/>
<path d="M0 0 C3.08444489 1.72539829 5.37639747 4.16697712 7.7890625 6.703125 C8.29566406 7.22326172 8.80226563 7.74339844 9.32421875 8.27929688 C10.56940655 9.55972584 11.80517752 10.84930054 13.0390625 12.140625 C12.7090625 13.130625 12.3790625 14.120625 12.0390625 15.140625 C7.77785435 14.66715743 5.90440013 12.12000592 3.0390625 9.140625 C3.01400635 9.91776855 2.9889502 10.69491211 2.96313477 11.49560547 C2.84739454 15.00245569 2.72456898 18.50902245 2.6015625 22.015625 C2.56224609 23.23894531 2.52292969 24.46226563 2.48242188 25.72265625 C2.44052734 26.88925781 2.39863281 28.05585937 2.35546875 29.2578125 C2.31881104 30.33659668 2.28215332 31.41538086 2.24438477 32.52685547 C2.0390625 35.140625 2.0390625 35.140625 1.0390625 37.140625 C0.0490625 37.140625 -0.9409375 37.140625 -1.9609375 37.140625 C-3.30200155 34.4584969 -3.17544169 32.25664468 -3.27734375 29.2578125 C-3.34018555 27.50791016 -3.34018555 27.50791016 -3.40429688 25.72265625 C-3.44361328 24.49933594 -3.48292969 23.27601562 -3.5234375 22.015625 C-3.56662109 20.78457031 -3.60980469 19.55351563 -3.65429688 18.28515625 C-3.76062454 15.23709647 -3.86265531 12.1889531 -3.9609375 9.140625 C-4.54101562 9.80771484 -4.54101562 9.80771484 -5.1328125 10.48828125 C-5.65359375 11.05417969 -6.174375 11.62007812 -6.7109375 12.203125 C-7.22140625 12.77160156 -7.731875 13.34007813 -8.2578125 13.92578125 C-9.9609375 15.140625 -9.9609375 15.140625 -12.1640625 14.82421875 C-12.75703125 14.59863281 -13.35 14.37304688 -13.9609375 14.140625 C-12.37137466 10.32746022 -9.95333053 7.767841 -7.0859375 4.828125 C-6.22226562 3.92449219 -5.35859375 3.02085938 -4.46875 2.08984375 C-1.9609375 0.140625 -1.9609375 0.140625 0 0 Z " fill="#5D636A" transform="translate(395.9609375,77.859375)"/>
<path d="M0 0 C2.12472576 -0.05386629 4.24983652 -0.09273071 6.375 -0.125 C7.55835938 -0.14820312 8.74171875 -0.17140625 9.9609375 -0.1953125 C13 0 13 0 15 2 C15.22705078 4.06298828 15.22705078 4.06298828 15.1953125 6.5703125 C15.18886719 7.46621094 15.18242187 8.36210938 15.17578125 9.28515625 C15.15902344 10.22230469 15.14226562 11.15945312 15.125 12.125 C15.11597656 13.06988281 15.10695313 14.01476562 15.09765625 14.98828125 C15.07404522 17.32577292 15.04111516 19.66276123 15 22 C14.505 21.01 14.505 21.01 14 20 C13.01 20.33 12.02 20.66 11 21 C11 15.39 11 9.78 11 4 C8.03 4 5.06 4 2 4 C1.89042969 4.68707031 1.78085937 5.37414062 1.66796875 6.08203125 C1.43013672 7.43361328 1.43013672 7.43361328 1.1875 8.8125 C1.03667969 9.70582031 0.88585937 10.59914063 0.73046875 11.51953125 C-0.10565484 14.35877447 -0.62946638 15.25828162 -3 17 C-5.91088867 17.34057617 -5.91088867 17.34057617 -9.41796875 17.29296875 C-10.67158203 17.28330078 -11.92519531 17.27363281 -13.21679688 17.26367188 C-15.18229492 17.2259668 -15.18229492 17.2259668 -17.1875 17.1875 C-18.52277163 17.17244967 -19.85805937 17.15876187 -21.19335938 17.14648438 C-24.46264576 17.11107694 -27.73112093 17.0616889 -31 17 C-31 16.67 -31 16.34 -31 16 C-22.09 16 -13.18 16 -4 16 C-3.67 12.7 -3.34 9.4 -3 6 C-1.4375 2.375 -1.4375 2.375 0 0 Z " fill="#484F54" transform="translate(412,115)"/>
<path d="M0 0 C1.79244141 0.01740234 1.79244141 0.01740234 3.62109375 0.03515625 C5.41740234 0.04869141 5.41740234 0.04869141 7.25 0.0625 C8.17683594 0.07410156 9.10367187 0.08570312 10.05859375 0.09765625 C12.20623465 4.76644081 13.18147632 7.83495165 14.05859375 13.09765625 C22.63859375 12.76765625 31.21859375 12.43765625 40.05859375 12.09765625 C39.72859375 13.41765625 39.39859375 14.73765625 39.05859375 16.09765625 C34.62131224 16.2135238 30.18441784 16.28479683 25.74609375 16.34765625 C24.48345703 16.38117188 23.22082031 16.4146875 21.91992188 16.44921875 C20.10717773 16.46855469 20.10717773 16.46855469 18.2578125 16.48828125 C16.58464966 16.51970215 16.58464966 16.51970215 14.87768555 16.55175781 C12.05859375 16.09765625 12.05859375 16.09765625 10.203125 14.20703125 C8.38716581 10.86021227 8.37293702 7.86977551 8.05859375 4.09765625 C6.26700886 4.0706926 4.47530902 4.05127708 2.68359375 4.03515625 C1.18699219 4.01775391 1.18699219 4.01775391 -0.33984375 4 C-2.92573078 3.91759023 -2.92573078 3.91759023 -4.94140625 5.09765625 C-3.81895287 0.12679126 -3.81895287 0.12679126 0 0 Z " fill="#4F5157" transform="translate(368.94140625,114.90234375)"/>
<path d="M0 0 C0.94329163 -0.01142029 1.88658325 -0.02284058 2.85845947 -0.03460693 C4.40062889 -0.03796051 4.40062889 -0.03796051 5.97395325 -0.04138184 C7.06223419 -0.05131165 8.15051514 -0.06124146 9.27177429 -0.07147217 C12.87540715 -0.10070285 16.47886384 -0.1143182 20.08259583 -0.12536621 C22.5888062 -0.13687154 25.09501652 -0.14838698 27.60122681 -0.15991211 C32.18744819 -0.1782435 36.77361915 -0.19084457 41.359873 -0.19690561 C48.09306726 -0.20585459 54.82544696 -0.24089583 61.55839366 -0.2989068 C67.40393059 -0.34750898 73.24919797 -0.362802 79.0949192 -0.36625671 C81.57438397 -0.37229969 84.05384573 -0.38832291 86.53317833 -0.41462708 C90.00884957 -0.44886477 93.48255527 -0.44496126 96.95832825 -0.43200684 C97.97632004 -0.4504364 98.99431183 -0.46886597 100.04315186 -0.487854 C106.98421671 -0.4071015 112.28219307 1.24149242 117.28962708 6.28088379 C117.28962708 7.27088379 117.28962708 8.26088379 117.28962708 9.28088379 C116.42337708 8.45588379 115.55712708 7.63088379 114.66462708 6.78088379 C112.11072066 4.6222248 111.42322956 4.29325439 107.91462708 3.96838379 C107.04837708 4.07150879 106.18212708 4.17463379 105.28962708 4.28088379 C105.28962708 3.29088379 105.28962708 2.30088379 105.28962708 1.28088379 C69.64962708 1.28088379 34.00962708 1.28088379 -2.71037292 1.28088379 C-2.71037292 1.94088379 -2.71037292 2.60088379 -2.71037292 3.28088379 C-5.68037292 3.94088379 -8.65037292 4.60088379 -11.71037292 5.28088379 C-7.84316096 1.41367183 -5.44204468 0.03958373 0 0 Z " fill="#BB2E39" transform="translate(343.7103729248047,247.7191162109375)"/>
<path d="M0 0 C7.15789474 -0.35789474 7.15789474 -0.35789474 10.5 1.0625 C12 3 12 3 12.5 6.4375 C12 10 12 10 10.5 12.4375 C6.86353539 14.71029038 4.24217465 14.28281164 0 14 C0 9.38 0 4.76 0 0 Z " fill="#50555B" transform="translate(289,172)"/>
<path d="M0 0 C1.9375 1.1875 1.9375 1.1875 2.9375 4.1875 C0.9575 4.1875 -1.0225 4.1875 -3.0625 4.1875 C-2.7325 4.8475 -2.4025 5.5075 -2.0625 6.1875 C-0.4125 6.1875 1.2375 6.1875 2.9375 6.1875 C2.6075 6.8475 2.2775 7.5075 1.9375 8.1875 C-0.4375 8.3125 -0.4375 8.3125 -3.0625 8.1875 C-5.2010485 6.0489515 -5.48905063 5.05474686 -6.0625 2.1875 C-8.5375 1.6925 -8.5375 1.6925 -11.0625 1.1875 C-11.0625 1.8475 -11.0625 2.5075 -11.0625 3.1875 C-8.5875 3.6825 -8.5875 3.6825 -6.0625 4.1875 C-6.3925 5.5075 -6.7225 6.8275 -7.0625 8.1875 C-9.0425 8.5175 -11.0225 8.8475 -13.0625 9.1875 C-13.3925 7.5375 -13.7225 5.8875 -14.0625 4.1875 C-14.7225 5.5075 -15.3825 6.8275 -16.0625 8.1875 C-17.0525 7.8575 -18.0425 7.5275 -19.0625 7.1875 C-19.0625 6.1975 -19.0625 5.2075 -19.0625 4.1875 C-19.7225 4.1875 -20.3825 4.1875 -21.0625 4.1875 C-21.3925 5.5075 -21.7225 6.8275 -22.0625 8.1875 C-22.7225 8.1875 -23.3825 8.1875 -24.0625 8.1875 C-26.1875 3.5625 -26.1875 3.5625 -25.0625 0.1875 C-24.7325 1.8375 -24.4025 3.4875 -24.0625 5.1875 C-23.4025 5.1875 -22.7425 5.1875 -22.0625 5.1875 C-21.7325 3.5375 -21.4025 1.8875 -21.0625 0.1875 C-20.4025 0.1875 -19.7425 0.1875 -19.0625 0.1875 C-18.4025 1.5075 -17.7425 2.8275 -17.0625 4.1875 C-16.77375 3.548125 -16.485 2.90875 -16.1875 2.25 C-13.34524903 -2.96079345 -4.92511978 -1.30666443 0 0 Z " fill="#E37F8A" transform="translate(395.0625,263.8125)"/>
<path d="M0 0 C2.01822917 0.06510417 4.03645833 0.13020833 6.0546875 0.1953125 C6.13582856 1.96538964 6.19394255 3.73653348 6.2421875 5.5078125 C6.27699219 6.49394531 6.31179688 7.48007813 6.34765625 8.49609375 C6.0546875 11.1953125 6.0546875 11.1953125 4.7109375 13.0390625 C2.44484945 14.6210485 0.752129 14.41402397 -1.9453125 14.1953125 C-2.2753125 13.5353125 -2.6053125 12.8753125 -2.9453125 12.1953125 C-1.49125 12.0096875 -1.49125 12.0096875 -0.0078125 11.8203125 C1.0028125 11.6140625 2.0134375 11.4078125 3.0546875 11.1953125 C3.3846875 10.5353125 3.7146875 9.8753125 4.0546875 9.1953125 C3.1059375 9.4015625 2.1571875 9.6078125 1.1796875 9.8203125 C0.1484375 9.9440625 -0.8828125 10.0678125 -1.9453125 10.1953125 C-3.9453125 8.1953125 -3.9453125 8.1953125 -4.1953125 5.1953125 C-3.91874762 1.87653392 -3.53131274 0.35454947 0 0 Z " fill="#646C74" transform="translate(326.9453125,175.8046875)"/>
<path d="M0 0 C6.0546875 -0.1953125 6.0546875 -0.1953125 8 0 C10 2 10 2 10.25 5 C10 8 10 8 8 10 C5.375 10.125 5.375 10.125 3 10 C3 11.32 3 12.64 3 14 C2.01 14 1.02 14 0 14 C0 9.38 0 4.76 0 0 Z " fill="#6A6E77" transform="translate(413,176)"/>
<path d="M0 0 C0 3.63 0 7.26 0 11 C-1.98 11 -3.96 11 -6 11 C-6 8.69 -6 6.38 -6 4 C-6.99 4 -7.98 4 -9 4 C-9 6.31 -9 8.62 -9 11 C-9.66 11 -10.32 11 -11 11 C-11.33 8.36 -11.66 5.72 -12 3 C-11.34 3 -10.68 3 -10 3 C-10 2.01 -10 1.02 -10 0 C-6.05523353 -0.80688405 -4.00001715 -1.00000429 0 0 Z " fill="#D7606C" transform="translate(439,261)"/>
<path d="M0 0 C0.66 0 1.32 0 2 0 C2 4.62 2 9.24 2 14 C-4.0546875 14.1953125 -4.0546875 14.1953125 -6 14 C-8 12 -8 12 -8.25 9 C-8 6 -8 6 -6 4 C-2.875 4.375 -2.875 4.375 0 5 C0 3.35 0 1.7 0 0 Z " fill="#6B6A72" transform="translate(390,172)"/>
<path d="M0 0 C1.97909398 -0.02686553 3.95828971 -0.04633375 5.9375 -0.0625 C7.03964844 -0.07410156 8.14179688 -0.08570313 9.27734375 -0.09765625 C12 0 12 0 13 1 C13.125 4 13.125 4 13 7 C12 8 12 8 9.27734375 8.09765625 C7.62412109 8.08025391 7.62412109 8.08025391 5.9375 8.0625 C4.83277344 8.05347656 3.72804688 8.04445313 2.58984375 8.03515625 C1.30787109 8.01775391 1.30787109 8.01775391 0 8 C0 5.36 0 2.72 0 0 Z " fill="#FCBCC3" transform="translate(354,264)"/>
<path d="M0 0 C2.64 0 5.28 0 8 0 C8.77675511 3.39830361 9.19382275 6.51119051 9 10 C8 11 8 11 6.15234375 11.09765625 C4.1015625 11.06510417 2.05078125 11.03255208 0 11 C0 7.37 0 3.74 0 0 Z " fill="#FCB9C1" transform="translate(343,261)"/>
<path d="M0 0 C0.66 0 1.32 0 2 0 C2 4.62 2 9.24 2 14 C-0.31 14 -2.62 14 -5 14 C-7 12 -7 12 -7.25 9 C-7 6 -7 6 -5 4 C-3.68 4 -2.36 4 -1 4 C-0.67 2.68 -0.34 1.36 0 0 Z " fill="#595860" transform="translate(372,172)"/>
<path d="M0 0 C1.32 0.66 2.64 1.32 4 2 C3.34 2 2.68 2 2 2 C1.95101562 2.67546875 1.90203125 3.3509375 1.8515625 4.046875 C1.77679688 4.93890625 1.70203125 5.8309375 1.625 6.75 C1.55539062 7.63171875 1.48578125 8.5134375 1.4140625 9.421875 C0.99616748 12.02386288 0.39354867 13.77433233 -1 16 C-3.81824192 17.40912096 -6.17251282 17.11183553 -9.3203125 17.09765625 C-10.57714844 17.09443359 -11.83398438 17.09121094 -13.12890625 17.08789062 C-14.44761719 17.07951172 -15.76632812 17.07113281 -17.125 17.0625 C-18.46484211 17.05748489 -19.804686 17.05292201 -21.14453125 17.04882812 C-24.42973206 17.03701086 -27.71484397 17.02053617 -31 17 C-31 16.67 -31 16.34 -31 16 C-22.09 16 -13.18 16 -4 16 C-3.67 12.7 -3.34 9.4 -3 6 C-1.4375 2.375 -1.4375 2.375 0 0 Z " fill="#5E6266" transform="translate(412,115)"/>
<path d="M0 0 C3.625 0.375 3.625 0.375 7 1 C8.33157895 6.44736842 8.33157895 6.44736842 6.875 8.875 C4.40522151 10.3568671 2.83386167 10.3633156 0 10 C-2 8 -2 8 -2.25 5 C-2 2 -2 2 0 0 Z " fill="#5A5D65" transform="translate(389,221)"/>
<path d="M0 0 C1.670625 0.061875 1.670625 0.061875 3.375 0.125 C3.375 3.425 3.375 6.725 3.375 10.125 C0 10.25 0 10.25 -3.625 10.125 C-5.625 8.125 -5.625 8.125 -5.875 5.125 C-5.4955869 0.57204274 -4.51633162 0.15573557 0 0 Z " fill="#5B5A60" transform="translate(316.625,175.875)"/>
<path d="M0 0 C1.670625 0.061875 1.670625 0.061875 3.375 0.125 C3.375 3.425 3.375 6.725 3.375 10.125 C0 10.25 0 10.25 -3.625 10.125 C-5.625 8.125 -5.625 8.125 -5.875 5.125 C-5.4955869 0.57204274 -4.51633162 0.15573557 0 0 Z " fill="#5A5B64" transform="translate(346.625,175.875)"/>
<path d="M0 0 C0.33 0.66 0.66 1.32 1 2 C0.67 2.66 0.34 3.32 0 4 C-8.58 4 -17.16 4 -26 4 C-25.67 3.01 -25.34 2.02 -25 1 C-12.625 0.505 -12.625 0.505 0 0 Z " fill="#3C444A" transform="translate(408,127)"/>
<path d="M0 0 C2.5 0.25 2.5 0.25 4.5 2.25 C4.75 5.25 4.75 5.25 4.5 8.25 C2.5 10.25 2.5 10.25 0 10.5 C-2.5 10.25 -2.5 10.25 -4.5 8.25 C-4.75 5.25 -4.75 5.25 -4.5 2.25 C-2.5 0.25 -2.5 0.25 0 0 Z " fill="#545C64" transform="translate(406.5,175.75)"/>
<path d="M0 0 C2.875 -0.125 2.875 -0.125 6 0 C8 2 8 2 8.25 5 C8 8 8 8 6 10 C2.875 10.125 2.875 10.125 0 10 C0 6.7 0 3.4 0 0 Z " fill="#F6F9F6" transform="translate(291,174)"/>
<path d="M0 0 C2.31 0 4.62 0 7 0 C7 0.66 7 1.32 7 2 C5.02 2 3.04 2 1 2 C1 2.66 1 3.32 1 4 C2.98 4 4.96 4 7 4 C7 7.3 7 10.6 7 14 C6.34 14 5.68 14 5 14 C5 11.36 5 8.72 5 6 C3.68 6 2.36 6 1 6 C1 8.64 1 11.28 1 14 C0.34 14 -0.32 14 -1 14 C-1 11.36 -1 8.72 -1 6 C-1.66 6 -2.32 6 -3 6 C-3 5.34 -3 4.68 -3 4 C-2.34 4 -1.68 4 -1 4 C-0.67 2.68 -0.34 1.36 0 0 Z " fill="#5A5D6F" transform="translate(433,172)"/>
<path d="M0 0 C2.97 0 5.94 0 9 0 C9 0.66 9 1.32 9 2 C7.68 2 6.36 2 5 2 C5 4.64 5 7.28 5 10 C1.625 10.625 1.625 10.625 -2 11 C-2.66 10.34 -3.32 9.68 -4 9 C-3.525625 8.62875 -3.05125 8.2575 -2.5625 7.875 C-0.47794198 5.37353038 -0.35378509 3.18406582 0 0 Z " fill="#E8E9E8" transform="translate(301,176)"/>
<path d="M0 0 C3.45201639 1.47721422 5.64961936 3.43794001 8.25 6.125 C8.95640625 6.84945312 9.6628125 7.57390625 10.390625 8.3203125 C11.18726563 9.15175781 11.18726563 9.15175781 12 10 C11.67 10.99 11.34 11.98 11 13 C5.97072104 12.15436902 3.01633332 8.94699264 0 5 C-0.4375 2.0625 -0.4375 2.0625 0 0 Z " fill="#494E51" transform="translate(397,80)"/>
<path d="M0 0 C0 5.29674437 -2.18913053 9.00200681 -5.4375 13 C-8 15 -8 15 -10.3125 14.8125 C-10.869375 14.544375 -11.42625 14.27625 -12 14 C-10.41332422 10.09714233 -7.86649519 7.66479018 -4.875 4.75 C-3.96492188 3.85796875 -3.05484375 2.9659375 -2.1171875 2.046875 C-1.41851562 1.37140625 -0.71984375 0.6959375 0 0 Z " fill="#4F5153" transform="translate(394,78)"/>
<path d="M0 0 C2.5 0.25 2.5 0.25 4.5 2.25 C4.5 3.24 4.5 4.23 4.5 5.25 C2.19 5.25 -0.12 5.25 -2.5 5.25 C-2.5 6.24 -2.5 7.23 -2.5 8.25 C-0.52 8.25 1.46 8.25 3.5 8.25 C3.17 8.91 2.84 9.57 2.5 10.25 C0.125 10.375 0.125 10.375 -2.5 10.25 C-4.5 8.25 -4.5 8.25 -4.75 5.25 C-4.43608753 1.48305032 -3.83691092 0.38369109 0 0 Z " fill="#71757B" transform="translate(498.5,175.75)"/>
<path d="M0 0 C0.66 0 1.32 0 2 0 C2 1.65 2 3.3 2 5 C2.969375 4.814375 3.93875 4.62875 4.9375 4.4375 C6.4534375 4.2209375 6.4534375 4.2209375 8 4 C9 5 9 5 9.09765625 7.06640625 C9.08605469 7.89011719 9.07445312 8.71382812 9.0625 9.5625 C9.05347656 10.38878906 9.04445313 11.21507812 9.03515625 12.06640625 C9.02355469 12.70449219 9.01195312 13.34257812 9 14 C8.34 14 7.68 14 7 14 C7 11.36 7 8.72 7 6 C5.68 6.33 4.36 6.66 3 7 C2.67 9.31 2.34 11.62 2 14 C1.34 14 0.68 14 0 14 C0 9.38 0 4.76 0 0 Z " fill="#695A57" transform="translate(464,172)"/>
<path d="M0 0 C3.125 0.375 3.125 0.375 6 1 C6.33 2.32 6.66 3.64 7 5 C4.69 5 2.38 5 0 5 C0 5.99 0 6.98 0 8 C1.98 8 3.96 8 6 8 C5.67 8.66 5.34 9.32 5 10 C2.625 10.125 2.625 10.125 0 10 C-2 8 -2 8 -2.25 5 C-2 2 -2 2 0 0 Z " fill="#51565A" transform="translate(450,176)"/>
<path d="M0 0 C4.70588235 0.70588235 4.70588235 0.70588235 6 2 C6.125 4.5 6.125 4.5 6 7 C5 8 5 8 2.5625 8.1875 C0 8 0 8 -2 6 C-1.44444444 1.44444444 -1.44444444 1.44444444 0 0 Z " fill="#F5B2BC" transform="translate(410,264)"/>
<path d="M0 0 C3.125 0.375 3.125 0.375 6 1 C6 2.32 6 3.64 6 5 C4.02 5 2.04 5 0 5 C0 5.99 0 6.98 0 8 C1.98 8 3.96 8 6 8 C5.67 8.66 5.34 9.32 5 10 C2.625 10.125 2.625 10.125 0 10 C-2 8 -2 8 -2.25 5 C-2 2 -2 2 0 0 Z " fill="#52535A" transform="translate(478,176)"/>
<path d="M0 0 C0.99 0 1.98 0 3 0 C3.66 2.64 4.32 5.28 5 8 C5.66 8 6.32 8 7 8 C7.33 6.68 7.66 5.36 8 4 C8.66 4 9.32 4 10 4 C9.125 7.875 9.125 7.875 8 9 C5.64686445 9.07271741 3.29166332 9.08370868 0.9375 9.0625 C-0.35285156 9.05347656 -1.64320313 9.04445313 -2.97265625 9.03515625 C-3.97167969 9.02355469 -4.97070312 9.01195312 -6 9 C-5.67 8.34 -5.34 7.68 -5 7 C-3.35 7 -1.7 7 0 7 C0 4.69 0 2.38 0 0 Z " fill="#C82D3B" transform="translate(366,264)"/>
<path d="M0 0 C2.31 0 4.62 0 7 0 C6.67 2.31 6.34 4.62 6 7 C4.02 7.33 2.04 7.66 0 8 C0 5.36 0 2.72 0 0 Z " fill="#CF2E3F" transform="translate(354,264)"/>
<path d="M0 0 C3.375 -0.125 3.375 -0.125 7 0 C9 2 9 2 9.1953125 3.9453125 C9.13020833 5.96354167 9.06510417 7.98177083 9 10 C8.34 10 7.68 10 7 10 C7 7.36 7 4.72 7 2 C5.68 2.33 4.36 2.66 3 3 C2.67 5.31 2.34 7.62 2 10 C1.34 10 0.68 10 0 10 C0 6.7 0 3.4 0 0 Z " fill="#535662" transform="translate(353,176)"/>
<path d="M0 0 C0.99 0.495 0.99 0.495 2 1 C2 2.32 2 3.64 2 5 C2.66 5 3.32 5 4 5 C4.33 3.35 4.66 1.7 5 0 C5.66 0 6.32 0 7 0 C7.66 1.32 8.32 2.64 9 4 C9.66 2.68 10.32 1.36 11 0 C12.2077558 3.62326739 11.54311128 4.64146369 10 8 C9.01 7.67 8.02 7.34 7 7 C7 6.01 7 5.02 7 4 C6.34 4 5.68 4 5 4 C4.67 5.32 4.34 6.64 4 8 C3.34 8 2.68 8 2 8 C0.74335022 5.09399739 0 3.20395416 0 0 Z " fill="#FBB3BB" transform="translate(369,264)"/>
<path d="M0 0 C1.98 0 3.96 0 6 0 C6 0.66 6 1.32 6 2 C4.35 1.67 2.7 1.34 1 1 C1 1.66 1 2.32 1 3 C2.65 3 4.3 3 6 3 C6 5.64 6 8.28 6 11 C5.34 11 4.68 11 4 11 C4 8.69 4 6.38 4 4 C3.01 4 2.02 4 1 4 C1 6.31 1 8.62 1 11 C0.34 11 -0.32 11 -1 11 C-1.33 8.36 -1.66 5.72 -2 3 C-1.34 3 -0.68 3 0 3 C0 2.01 0 1.02 0 0 Z " fill="#F7B1BC" transform="translate(429,261)"/>
<path d="M0 0 C2.35020498 2.35020498 2.31914802 2.91909622 2.375 6.125 C2.25500065 11.84804569 0.24679711 16.43389064 -3.51171875 20.7265625 C-5 22 -5 22 -7 22 C-7 21.01 -7 20.02 -7 19 C-6.01 18.67 -5.02 18.34 -4 18 C-3.6278958 16.67696283 -3.29369827 15.34262065 -3 14 C-2.34 13.67 -1.68 13.34 -1 13 C-0.53045739 9.95418731 -0.53045739 9.95418731 -0.375 6.4375 C-0.30023438 5.23996094 -0.22546875 4.04242188 -0.1484375 2.80859375 C-0.09945313 1.88175781 -0.05046875 0.95492188 0 0 Z " fill="#CA404D" transform="translate(463,259)"/>
<path d="M0 0 C1.2065625 0.0309375 1.2065625 0.0309375 2.4375 0.0625 C2.7675 1.3825 3.0975 2.7025 3.4375 4.0625 C1.7875 4.3925 0.1375 4.7225 -1.5625 5.0625 C-1.5625 5.7225 -1.5625 6.3825 -1.5625 7.0625 C0.0875 6.7325 1.7375 6.4025 3.4375 6.0625 C3.1075 6.7225 2.7775 7.3825 2.4375 8.0625 C0.77138095 8.105221 -0.89632885 8.10313832 -2.5625 8.0625 C-3.5625 7.0625 -3.5625 7.0625 -3.6875 4.0625 C-3.52180824 0.08589776 -3.52180824 0.08589776 0 0 Z " fill="#FEBDC3" transform="translate(444.5625,263.9375)"/>
<path d="M0 0 C2.31 0 4.62 0 7 0 C7 0.66 7 1.32 7 2 C5.68 2 4.36 2 3 2 C3 4.64 3 7.28 3 10 C2.01 10 1.02 10 0 10 C0 6.7 0 3.4 0 0 Z " fill="#7B7979" transform="translate(394,176)"/>
<path d="M0 0 C0.99 0.33 1.98 0.66 3 1 C2.67 1.99 2.34 2.98 2 4 C1.34 4 0.68 4 0 4 C0 4.66 0 5.32 0 6 C0.66 6 1.32 6 2 6 C2.1953125 12.0546875 2.1953125 12.0546875 2 14 C1.34 14.66 0.68 15.32 0 16 C0 13.03 0 10.06 0 7 C-0.66 7 -1.32 7 -2 7 C-1.125 2.25 -1.125 2.25 0 0 Z " fill="#E9E6D4" transform="translate(430,172)"/>
<path d="M0 0 C1.32 0 2.64 0 4 0 C4 2.64 4 5.28 4 8 C3.34 8 2.68 8 2 8 C1.67 7.34 1.34 6.68 1 6 C0.34 6.66 -0.32 7.32 -1 8 C-1.04241723 5.66705225 -1.04092937 3.33297433 -1 1 C-0.67 0.67 -0.34 0.34 0 0 Z " fill="#F2F5F7" transform="translate(356,178)"/>
<path d="M0 0 C1.65 0.33 3.3 0.66 5 1 C4.67 2.65 4.34 4.3 4 6 C2.35 5.67 0.7 5.34 -1 5 C-0.67 3.35 -0.34 1.7 0 0 Z " fill="#E9EEEE" transform="translate(390,223)"/>
<path d="M0 0 C2.475 0.495 2.475 0.495 5 1 C5.33 2.98 5.66 4.96 6 7 C3 8 3 8 0 7 C0 4.69 0 2.38 0 0 Z " fill="#E7ECE7" transform="translate(306,178)"/>
<path d="M0 0 C1.65 0.33 3.3 0.66 5 1 C4.67 2.65 4.34 4.3 4 6 C2.35 5.67 0.7 5.34 -1 5 C-0.67 3.35 -0.34 1.7 0 0 Z " fill="#EBEFE9" transform="translate(385,178)"/>
<path d="M0 0 C6.05537521 0.30276876 9.51483458 3.27754038 14 7 C13.34 7.66 12.68 8.32 12 9 C11.29875 8.175 10.5975 7.35 9.875 6.5 C7.21372773 3.69576604 7.21372773 3.69576604 3.6875 3.6875 C2.800625 3.790625 1.91375 3.89375 1 4 C0.67 2.68 0.34 1.36 0 0 Z " fill="#CC394A" transform="translate(448,248)"/>
<path d="M0 0 C0.66 0 1.32 0 2 0 C2 4.62 2 9.24 2 14 C0.68 13.34 -0.64 12.68 -2 12 C-1.67 11.67 -1.34 11.34 -1 11 C-0.76636119 9.15108054 -0.58696365 7.29511969 -0.4375 5.4375 C-0.35371094 4.42558594 -0.26992188 3.41367188 -0.18359375 2.37109375 C-0.12300781 1.58863281 -0.06242187 0.80617187 0 0 Z " fill="#4D5B6C" transform="translate(390,172)"/>
<path d="M0 0 C1.65 0 3.3 0 5 0 C5 1.98 5 3.96 5 6 C3.35 6 1.7 6 0 6 C0 4.02 0 2.04 0 0 Z " fill="#EDF4EF" transform="translate(367,178)"/>
<path d="M0 0 C1.65 0 3.3 0 5 0 C5 1.98 5 3.96 5 6 C3.35 6 1.7 6 0 6 C0 4.02 0 2.04 0 0 Z " fill="#EEF1EE" transform="translate(404,178)"/>
<path d="M0 0 C2.475 0.495 2.475 0.495 5 1 C5 2.65 5 4.3 5 6 C3.35 6 1.7 6 0 6 C0 4.02 0 2.04 0 0 Z " fill="#EEF7F0" transform="translate(343,178)"/>
<path d="M0 0 C2.475 0.495 2.475 0.495 5 1 C5 2.65 5 4.3 5 6 C3.35 6 1.7 6 0 6 C0 4.02 0 2.04 0 0 Z " fill="#F3F5F1" transform="translate(313,178)"/>
<path d="M0 0 C1.65 0 3.3 0 5 0 C5 1.65 5 3.3 5 5 C3.35 5.33 1.7 5.66 0 6 C0 4.02 0 2.04 0 0 Z " fill="#F4F5F3" transform="translate(416,178)"/>
<path d="M0 0 C3.3 0 6.6 0 10 0 C10 0.99 10 1.98 10 3 C6.7 3.33 3.4 3.66 0 4 C0 2.68 0 1.36 0 0 Z " fill="#3F414B" transform="translate(414,115)"/>
<path d="M0 0 C1.98 0 3.96 0 6 0 C6 0.66 6 1.32 6 2 C5.01 2.33 4.02 2.66 3 3 C2.67 5.31 2.34 7.62 2 10 C1.34 10 0.68 10 0 10 C0 6.7 0 3.4 0 0 Z " fill="#555959" transform="translate(399,221)"/>
<path d="M0 0 C1.32 0 2.64 0 4 0 C4 1.98 4 3.96 4 6 C2.35 5.67 0.7 5.34 -1 5 C-0.67 3.35 -0.34 1.7 0 0 Z " fill="#F1F9F8" transform="translate(326,178)"/>
<path d="M0 0 C1.98 0 3.96 0 6 0 C6 0.66 6 1.32 6 2 C5.01 2.33 4.02 2.66 3 3 C2.67 5.31 2.34 7.62 2 10 C1.34 10 0.68 10 0 10 C0 6.7 0 3.4 0 0 Z " fill="#525B60" transform="translate(487,176)"/>
<path d="M0 0 C0 2.97 0 5.94 0 9 C-0.66 9 -1.32 9 -2 9 C-2 6.36 -2 3.72 -2 1 C-3.65 1.33 -5.3 1.66 -7 2 C-7 1.34 -7 0.68 -7 0 C-4.3333581 -1.33332095 -2.83319697 -0.67102033 0 0 Z " fill="#565E62" transform="translate(473,177)"/>
<path d="M0 0 C1.98 1.65 3.96 3.3 6 5 C5.67 5.99 5.34 6.98 5 8 C3.125 7.6875 3.125 7.6875 1 7 C0.34 6.01 -0.32 5.02 -1 4 C-0.34 4 0.32 4 1 4 C0.67 2.68 0.34 1.36 0 0 Z " fill="#54575B" transform="translate(403,85)"/>
<path d="M0 0 C0.99 0.33 1.98 0.66 3 1 C2.34 1 1.68 1 1 1 C1 1.66 1 2.32 1 3 C1.66 3.33 2.32 3.66 3 4 C2.34 4 1.68 4 1 4 C1 6.31 1 8.62 1 11 C0.34 11 -0.32 11 -1 11 C-1 8.69 -1 6.38 -1 4 C-1.66 3.67 -2.32 3.34 -3 3 C-2.34 3 -1.68 3 -1 3 C-0.67 2.01 -0.34 1.02 0 0 Z " fill="#F9B6AF" transform="translate(405,261)"/>
<path d="M0 0 C2.36574234 3.5486135 2.10865265 4.5764525 1.625 8.6875 C1.51414062 9.68136719 1.40328125 10.67523438 1.2890625 11.69921875 C1.19367188 12.45847656 1.09828125 13.21773437 1 14 C0.67 14 0.34 14 0 14 C0 10.7 0 7.4 0 4 C-1.98 4 -3.96 4 -6 4 C-6 3.34 -6 2.68 -6 2 C-4.02 2 -2.04 2 0 2 C0 1.34 0 0.68 0 0 Z " fill="#E9F1F7" transform="translate(440,172)"/>
<path d="M0 0 C1.98 0 3.96 0 6 0 C6 0.66 6 1.32 6 2 C4.68 2 3.36 2 2 2 C2 4.64 2 7.28 2 10 C1.34 10 0.68 10 0 10 C0 6.7 0 3.4 0 0 Z " fill="#535D70" transform="translate(304,176)"/>
<path d="M0 0 C1.32 0.66 2.64 1.32 4 2 C3.34 2 2.68 2 2 2 C2 3.65 2 5.3 2 7 C1.01 6.67 0.02 6.34 -1 6 C-1 6.66 -1 7.32 -1 8 C-1.66 8 -2.32 8 -3 8 C-1.125 1.125 -1.125 1.125 0 0 Z " fill="#575B5F" transform="translate(412,115)"/>
<path d="M0 0 C1.670625 0.061875 1.670625 0.061875 3.375 0.125 C3.375 2.105 3.375 4.085 3.375 6.125 C2.715 5.135 2.055 4.145 1.375 3.125 C-1.06217258 3.39534634 -1.06217258 3.39534634 -3.625 4.125 C-4.285 5.115 -4.945 6.105 -5.625 7.125 C-5.75 4.75 -5.75 4.75 -5.625 2.125 C-3.625 0.125 -3.625 0.125 0 0 Z " fill="#525654" transform="translate(328.625,175.875)"/>
<path d="M0 0 C0.99 0.33 1.98 0.66 3 1 C2.67 2.65 2.34 4.3 2 6 C0.68 5.67 -0.64 5.34 -2 5 C-2 3.68 -2 2.36 -2 1 C-1.34 0.67 -0.68 0.34 0 0 Z " fill="#CA4256" transform="translate(363,265)"/>
<path d="M0 0 C2.97 0.495 2.97 0.495 6 1 C5.67 1.99 5.34 2.98 5 4 C2.69 4 0.38 4 -2 4 C-1.34 2.68 -0.68 1.36 0 0 Z " fill="#95989E" transform="translate(478,176)"/>
<path d="M0 0 C0.33 0.99 0.66 1.98 1 3 C1.66 3 2.32 3 3 3 C3.33 4.98 3.66 6.96 4 9 C2.68 9.33 1.36 9.66 0 10 C0 6.7 0 3.4 0 0 Z " fill="#D6DEE1" transform="translate(320,176)"/>
<path d="M0 0 C2.31 0 4.62 0 7 0 C7 1.65 7 3.3 7 5 C4.69 4.34 2.38 3.68 0 3 C0 2.01 0 1.02 0 0 Z " fill="#E6EAEB" transform="translate(450,181)"/>
<path d="M0 0 C2.00720923 0.28674418 4.0085944 0.61866701 6 1 C5.67 1.99 5.34 2.98 5 4 C3.02 4 1.04 4 -1 4 C-1 1 -1 1 0 0 Z " fill="#969DA1" transform="translate(450,176)"/>
<path d="M0 0 C1.65 0 3.3 0 5 0 C5 1.32 5 2.64 5 4 C3.35 4 1.7 4 0 4 C0 2.68 0 1.36 0 0 Z " fill="#BD4849" transform="translate(345,267)"/>
<path d="M0 0 C0.99 0 1.98 0 3 0 C3 1.98 3 3.96 3 6 C1.68 5.67 0.36 5.34 -1 5 C-0.67 3.35 -0.34 1.7 0 0 Z " fill="#C73C45" transform="translate(411,265)"/>
<path d="M0 0 C0.99 0 1.98 0 3 0 C3 2.31 3 4.62 3 7 C2.01 7 1.02 7 0 7 C0 4.69 0 2.38 0 0 Z " fill="#C42C48" transform="translate(430,265)"/>
<path d="M0 0 C0.66 0.33 1.32 0.66 2 1 C2 2.98 2 4.96 2 7 C1.01 7.33 0.02 7.66 -1 8 C-1.04241723 5.66705225 -1.04092937 3.33297433 -1 1 C-0.67 0.67 -0.34 0.34 0 0 Z " fill="#D2E8EF" transform="translate(467,178)"/>
<path d="M0 0 C1.65 0 3.3 0 5 0 C4.34 0.66 3.68 1.32 3 2 C2.60235737 3.98821313 2.26224651 5.98944339 2 8 C1.34 8 0.68 8 0 8 C0 5.36 0 2.72 0 0 Z " fill="#FAB0B1" transform="translate(418,264)"/>
<path d="M0 0 C1.65 0 3.3 0 5 0 C4.34 0.66 3.68 1.32 3 2 C2.60235737 3.98821313 2.26224651 5.98944339 2 8 C1.34 8 0.68 8 0 8 C0 5.36 0 2.72 0 0 Z " fill="#FCB1B9" transform="translate(354,264)"/>
<path d="M0 0 C2.97 0.33 5.94 0.66 9 1 C9.33 2.65 9.66 4.3 10 6 C9.34 5.01 8.68 4.02 8 3 C4.89505874 2.68154449 2.98273923 3.00575359 0 4 C0 2.68 0 1.36 0 0 Z " fill="#C92B31" transform="translate(439,262)"/>
<path d="M0 0 C-0.66 0 -1.32 0 -2 0 C-2 0.66 -2 1.32 -2 2 C-4.97 2.66 -7.94 3.32 -11 4 C-5.15789474 -1.84210526 -5.15789474 -1.84210526 0 0 Z " fill="#CB4250" transform="translate(343,249)"/>
<path d="M0 0 C2.31 0 4.62 0 7 0 C6.67 1.32 6.34 2.64 6 4 C3.03 3.505 3.03 3.505 0 3 C0 2.01 0 1.02 0 0 Z " fill="#DDE6ED" transform="translate(496,181)"/>
<path d="M0 0 C0.99 0 1.98 0 3 0 C3.66 2.64 4.32 5.28 5 8 C3.0625 7.375 3.0625 7.375 1 6 C0.25 2.875 0.25 2.875 0 0 Z " fill="#CA4751" transform="translate(366,264)"/>
<path d="M0 0 C2.475 0.495 2.475 0.495 5 1 C5 1.99 5 2.98 5 4 C3.35 4 1.7 4 0 4 C0 2.68 0 1.36 0 0 Z " fill="#C72E36" transform="translate(345,262)"/>
<path d="M0 0 C0.66 0.33 1.32 0.66 2 1 C2 3.97 2 6.94 2 10 C1.01 10.495 1.01 10.495 0 11 C-0.19406478 9.35492782 -0.38007935 7.70890406 -0.5625 6.0625 C-0.66691406 5.14597656 -0.77132813 4.22945313 -0.87890625 3.28515625 C-0.91886719 2.53105469 -0.95882813 1.77695312 -1 1 C-0.67 0.67 -0.34 0.34 0 0 Z " fill="#FCAEB2" transform="translate(350,261)"/>
<path d="M0 0 C-0.33 0.99 -0.66 1.98 -1 3 C-1.78375 3.144375 -2.5675 3.28875 -3.375 3.4375 C-5.96421018 3.87798925 -5.96421018 3.87798925 -8 5 C-8 4.01 -8 3.02 -8 2 C-2.25 0 -2.25 0 0 0 Z " fill="#EBE9E5" transform="translate(331,185)"/>
<path d="M0 0 C1.65 0 3.3 0 5 0 C5 0.99 5 1.98 5 3 C3.35 3 1.7 3 0 3 C0 2.01 0 1.02 0 0 Z " fill="#D98685" transform="translate(442,264)"/>
<path d="M0 0 C0.66 0 1.32 0 2 0 C2.33 2.97 2.66 5.94 3 9 C2.34 9 1.68 9 1 9 C0.67 6.03 0.34 3.06 0 0 Z " fill="#CC2E36" transform="translate(351,261)"/>
<path d="M0 0 C2.97 0.495 2.97 0.495 6 1 C6 1.66 6 2.32 6 3 C5.01 3.33 4.02 3.66 3 4 C2.34 4.66 1.68 5.32 1 6 C0.67 4.02 0.34 2.04 0 0 Z " fill="#CB2832" transform="translate(402,258)"/>
<path d="M0 0 C2.97 0.495 2.97 0.495 6 1 C5.67 1.66 5.34 2.32 5 3 C2.67843403 3.40729228 0.3431213 3.74438677 -2 4 C-1.34 2.68 -0.68 1.36 0 0 Z " fill="#606262" transform="translate(384,176)"/>
<path d="M0 0 C0.66 0.66 1.32 1.32 2 2 C1.625 4.625 1.625 4.625 1 7 C0.01 6.34 -0.98 5.68 -2 5 C-1.34 3.35 -0.68 1.7 0 0 Z " fill="#464A51" transform="translate(381,124)"/>
</svg>
