<?xml version="1.0" encoding="UTF-8"?>
<svg version="1.1" xmlns="http://www.w3.org/2000/svg" width="402" height="261">
<path d="M0 0 C132.66 0 265.32 0 402 0 C402 86.13 402 172.26 402 261 C269.34 261 136.68 261 0 261 C0 174.87 0 88.74 0 0 Z " fill="transparent" transform="translate(0,0)"/>
<path d="M0 0 C10.78644539 1.26424672 20.0960616 5.49881005 28 13 C29.0318421 14.30884669 30.04202747 15.63615749 31 17 C30.49082031 16.731875 29.98164063 16.46375 29.45703125 16.1875 C26.25955938 14.64213999 22.98253406 13.31931988 19.6875 12 C18.7294043 11.60941406 18.7294043 11.60941406 17.75195312 11.2109375 C13.55482338 9.52698271 9.3674019 8.17518706 5 7 C4.86859619 8.02198486 4.73719238 9.04396973 4.60180664 10.09692383 C4.05471165 13.64516218 3.30414185 16.98610959 2.37109375 20.44921875 C2.05849609 21.62677734 1.74589844 22.80433594 1.42382812 24.01757812 C0.76307551 26.47610123 0.10161032 28.93443294 -0.56054688 31.39257812 C-0.87185547 32.56626953 -1.18316406 33.73996094 -1.50390625 34.94921875 C-1.79080322 36.01487061 -2.0777002 37.08052246 -2.37329102 38.1784668 C-3.14455472 41.16908986 -3.14455472 41.16908986 -3 45 C-1.92363281 45.35191406 -0.84726563 45.70382813 0.26171875 46.06640625 C24.03430994 54.01977661 42.88132267 66.08024205 54.53125 88.7421875 C56 92 56 92 56 95 C55.34 95 54.68 95 54 95 C54.33 95.99 54.66 96.98 55 98 C53.78570312 97.71125 52.57140625 97.4225 51.3203125 97.125 C29.5030313 92.27335509 5.60899513 91.72135735 -16 98 C-18.9375 98.125 -18.9375 98.125 -21 98 C-20.85831863 96.56208484 -20.71148957 95.1246763 -20.5625 93.6875 C-20.48128906 92.88699219 -20.40007812 92.08648437 -20.31640625 91.26171875 C-20 89 -20 89 -19 86 C-3.09293909 83.92589322 13.44478378 83.75299395 29.12109375 87.34375 C31.99536893 88.11112501 31.99536893 88.11112501 35 88 C32.12543719 87.35216876 29.25038241 86.70667482 26.375 86.0625 C25.56675781 85.88009766 24.75851563 85.69769531 23.92578125 85.50976562 C23.13300781 85.33251953 22.34023437 85.15527344 21.5234375 84.97265625 C20.4394165 84.72914429 20.4394165 84.72914429 19.33349609 84.48071289 C12.13012484 82.99677922 5.27445112 82.81651145 -2.0625 82.8125 C-3.21427734 82.80025391 -4.36605469 82.78800781 -5.55273438 82.77539062 C-13.54265004 82.76194713 -21.14303477 83.56160734 -29 85 C-27.125 71.74107143 -27.125 71.74107143 -25 67 C-23.02 67 -21.04 67 -19 67 C-19.33 69.97 -19.66 72.94 -20 76 C-19.23147705 75.9685791 -18.4629541 75.9371582 -17.67114258 75.90478516 C6.3222251 75.05739254 24.84723864 78.42398474 46 90 C47.99590547 91.00814749 49.99451913 92.01103768 52 93 C32.2134653 74.37737911 8.27046606 66.50902128 -18.5 65.4375 C-20.01980469 65.37272461 -20.01980469 65.37272461 -21.5703125 65.30664062 C-24.0467679 65.20150808 -26.52330749 65.09936163 -29 65 C-28.33396045 57.76237023 -26.55714113 50.9492627 -24.6875 43.9375 C-24.37353271 42.74406982 -24.05956543 41.55063965 -23.73608398 40.32104492 C-22.82929873 36.87928178 -21.91571707 33.43939591 -21 30 C-20.54934967 28.29951348 -20.09881091 26.59899738 -19.6484375 24.8984375 C-18.77228058 21.59715642 -17.88934485 18.297757 -17 15 C-15.54096742 15.30921884 -14.08279278 15.62248799 -12.625 15.9375 C-11.81289062 16.11152344 -11.00078125 16.28554687 -10.1640625 16.46484375 C-8 17 -8 17 -6 18 C-6.33 19.32 -6.66 20.64 -7 22 C-8.65 22 -10.3 22 -12 22 C-12.10812012 22.55800293 -12.21624023 23.11600586 -12.32763672 23.69091797 C-13.80345837 31.19691367 -15.45461679 38.66022526 -17.125 46.125 C-17.40214844 47.36765625 -17.67929688 48.6103125 -17.96484375 49.890625 C-18.6422563 52.92730196 -19.32066292 55.96375311 -20 59 C-18.68257812 58.97550781 -17.36515625 58.95101562 -16.0078125 58.92578125 C-11.5194295 58.93016615 -7.28400901 59.37999496 -2.875 60.1875 C-1.78312378 60.38605591 -1.78312378 60.38605591 -0.66918945 60.58862305 C15.12381086 63.63897914 29.67697573 69.55593191 42 80 C42.59941406 80.48984375 43.19882813 80.9796875 43.81640625 81.484375 C45.96872135 83.24771749 48.03166063 85.03166063 50 87 C34.22322309 65.19092604 12.13522264 56.50694194 -13 50 C-10.50186804 38.97472485 -7.68957137 28.08093314 -4.61572266 17.203125 C-3.0176547 11.48505789 -1.5155241 5.74036502 0 0 Z " fill="#8EC4DA" transform="translate(146,71)"/>
<path d="M0 0 C21.78 0 43.56 0 66 0 C66 5 66 5 64.71484375 6.66796875 C64.12832031 7.16941406 63.54179687 7.67085938 62.9375 8.1875 C44.79603586 25.12440012 36.55305272 51.01474151 34 75 C33.34 75 32.68 75 32 75 C31.82984375 74.01902344 31.6596875 73.03804688 31.484375 72.02734375 C27.06368106 47.09625105 19.63346346 25.44461881 1.46875 7.0703125 C0 5 0 5 0 0 Z " fill="#8AC2D9" transform="translate(170,65)"/>
<path d="M0 0 C7.96486582 29.67984934 7.96486582 29.67984934 10.5 39.625 C10.7990625 40.79289062 11.098125 41.96078125 11.40625 43.1640625 C12 46 12 46 12 50 C11.36723145 50.0093457 10.73446289 50.01869141 10.08251953 50.02832031 C-17.73782787 50.54155515 -44.72281833 55.65710757 -66 75 C-66.66 75 -67.32 75 -68 75 C-67.67 75.66 -67.34 76.32 -67 77 C-66.40574219 76.62488281 -65.81148437 76.24976563 -65.19921875 75.86328125 C-47.76794403 65.10089235 -30.51201716 60.78636656 -10.0625 60.9375 C-8.90169922 60.94201172 -7.74089844 60.94652344 -6.54492188 60.95117188 C-3.69656066 60.96289353 -0.84830778 60.9793024 2 61 C2 58.03 2 55.06 2 52 C3.98 52 5.96 52 8 52 C8.47533428 53.66366999 8.95010235 55.32750402 9.421875 56.9921875 C9.97014908 58.89632857 10.546784 60.79223644 11.125 62.6875 C12 66 12 66 12 70 C11.21890869 69.85997559 10.43781738 69.71995117 9.63305664 69.57568359 C-15.24390636 65.39409109 -39.64517638 67.56526993 -63 77 C-61.43765625 76.49339844 -61.43765625 76.49339844 -59.84375 75.9765625 C-41.01149298 70.03992189 -17.59384159 66.40498405 2 71 C3.26237731 73.52475462 3.09856404 75.31200466 3.0625 78.125 C3.05347656 79.03507812 3.04445313 79.94515625 3.03515625 80.8828125 C3.02355469 81.58148438 3.01195312 82.28015625 3 83 C2.17653076 82.81824219 2.17653076 82.81824219 1.33642578 82.6328125 C-11.96039391 79.80890144 -24.94269847 78.58204856 -38.5 78.5625 C-39.20235779 78.55677979 -39.90471558 78.55105957 -40.62835693 78.54516602 C-49.32498575 78.49538537 -57.48260128 79.16682524 -65.97497559 81.13075256 C-67.63451069 81.4989238 -69.31723993 81.75932311 -71 82 C-73 80 -73 80 -74 78 C-73.01 77.01 -73.01 77.01 -72 76 C-71.34 76 -70.68 76 -70 76 C-68.572373 74.51005634 -68.572373 74.51005634 -67.0625 72.5625 C-56.03949358 59.72873277 -41.23183922 51.37634467 -25 47 C-24.23042969 46.78730469 -23.46085937 46.57460937 -22.66796875 46.35546875 C-14.29397315 44.37252942 -5.56417902 44.3545085 3 44 C2.82871582 43.26475098 2.65743164 42.52950195 2.48095703 41.77197266 C1.69404777 38.39001622 0.90950968 35.00751383 0.125 31.625 C-0.14441406 30.46871094 -0.41382813 29.31242187 -0.69140625 28.12109375 C-2.24043499 21.43382333 -3.70715028 14.74170071 -5 8 C-6.65 7.67 -8.3 7.34 -10 7 C-10.495 4.525 -10.495 4.525 -11 2 C-3.375 0 -3.375 0 0 0 Z " fill="#8EC4DA" transform="translate(277,86)"/>
<path d="M0 0 C4.11497518 14.33604258 7.74789685 28.78220619 11.32324219 43.26123047 C11.87852892 45.508419 12.43716218 47.7546935 13 50 C11.9584375 50.20753906 10.916875 50.41507813 9.84375 50.62890625 C-0.77056905 52.86264543 -10.30138376 56.15199862 -20 61 C-21.07121094 61.53496094 -22.14242187 62.06992188 -23.24609375 62.62109375 C-34.01350525 68.45985915 -42.46466144 76.86618456 -50.37890625 86.125 C-51.85425784 87.83143076 -53.38368433 89.42789966 -55 91 C-52.10583178 76.59493543 -38.07468293 65.30355492 -26.671875 57.3828125 C-17.60035783 51.58545219 -7.35027651 47.81676331 3 45 C2.33622576 39.82527024 1.3450471 34.82046039 0.125 29.75 C-0.05063477 29.00927246 -0.22626953 28.26854492 -0.40722656 27.50537109 C-1.6450342 22.33510926 -2.99865148 17.2067614 -4.484375 12.1015625 C-5 10 -5 10 -5 7 C-7.52436164 7.73942886 -10.04398305 8.49111648 -12.5625 9.25 C-13.26697266 9.45496094 -13.97144531 9.65992187 -14.69726562 9.87109375 C-18.38066331 10.99138982 -21.59666191 12.2425667 -24.90234375 14.234375 C-25.92457031 14.81703125 -26.94679687 15.3996875 -28 16 C-28.66 15.67 -29.32 15.34 -30 15 C-21.83880629 6.88002444 -11.94361562 -0.3317671 0 0 Z " fill="#8FC5DA" transform="translate(260,71)"/>
<path d="M0 0 C3 2.5 3 2.5 5 5 C5.33 5.33 5.66 5.66 6 6 C6.38443027 10.99759352 6.10625602 14.00624226 3 18 C0.47450701 20.81689603 -1.71884281 21.2730238 -5.375 21.5 C-10.4446815 21.3494154 -12.55877551 19.61328571 -16 16 C-17.60306924 12.79386153 -17.48740461 9.47860003 -17 6 C-12.78764217 -0.92030215 -7.52137863 -2.13172763 0 0 Z " fill="#8FC5DA" transform="translate(223,188)"/>
<path d="M0 0 C3.6196875 -0.0928125 3.6196875 -0.0928125 7.3125 -0.1875 C8.44619019 -0.22846802 8.44619019 -0.22846802 9.6027832 -0.27026367 C12.50408847 -0.30639885 14.53422623 -0.29994381 17.0078125 1.29296875 C18.64570364 4.11091532 17.5005631 6.88538515 17 10 C17.99 11.485 17.99 11.485 19 13 C18.8125 16.0625 18.8125 16.0625 18 19 C14.31602884 21.45598077 11.55276192 21.2271532 7.3125 21.125 C4.899375 21.08375 2.48625 21.0425 0 21 C0 14.07 0 7.14 0 0 Z " fill="#8FC4DA" transform="translate(351,188)"/>
<path d="M0 0 C12.05357143 -0.53571429 12.05357143 -0.53571429 15.75 1.5 C18.11021401 4.12246001 18.39459565 4.66678773 18.5625 8 C18.31184728 11.44486814 17.49465902 13.50534098 15 16 C15.495 16.61875 15.99 17.2375 16.5 17.875 C18 20 18 20 18 22 C15.625 21.8125 15.625 21.8125 13 21 C11.6875 18.4375 11.6875 18.4375 11 16 C8.69 16 6.38 16 4 16 C4 17.98 4 19.96 4 22 C2.68 22 1.36 22 0 22 C0 14.74 0 7.48 0 0 Z " fill="#94C7DC" transform="translate(236,187)"/>
<path d="M0 0 C19.14 0 38.28 0 58 0 C58 1.65 58 3.3 58 5 C38.86 5 19.72 5 0 5 C0 3.35 0 1.7 0 0 Z " fill="#89C2D9" transform="translate(174,49)"/>
<path d="M0 0 C20.46 0 40.92 0 62 0 C62 1.32 62 2.64 62 4 C41.54 4 21.08 4 0 4 C0 2.68 0 1.36 0 0 Z " fill="#90C5DB" transform="translate(172,58)"/>
<path d="M0 0 C4 1 4 1 5.921875 3.50390625 C6.52515625 4.51324219 7.1284375 5.52257812 7.75 6.5625 C8.67039062 8.08037109 8.67039062 8.08037109 9.609375 9.62890625 C10.06828125 10.41136719 10.5271875 11.19382813 11 12 C13.33152996 9.1639583 15.48194843 6.40787965 17.25 3.1875 C17.8275 2.135625 18.405 1.08375 19 0 C20.32 0 21.64 0 23 0 C23 6.93 23 13.86 23 21 C21.68 21 20.36 21 19 21 C18.67 17.37 18.34 13.74 18 10 C16.35 12.64 14.7 15.28 13 18 C9 17 9 17 7.515625 14.93359375 C6.34375 12.62239583 5.171875 10.31119792 4 8 C3.67 12.29 3.34 16.58 3 21 C2.01 21 1.02 21 0 21 C0 14.07 0 7.14 0 0 Z " fill="#8DC4DA" transform="translate(38,188)"/>
<path d="M0 0 C1.65 0 3.3 0 5 0 C7.97 6.6 10.94 13.2 14 20 C12.68 20.33 11.36 20.66 10 21 C9.34 19.35 8.68 17.7 8 16 C6.20739868 16.05995322 4.41574205 16.1487241 2.625 16.25 C1.62726563 16.29640625 0.62953125 16.3428125 -0.3984375 16.390625 C-3.1526477 16.72160885 -3.1526477 16.72160885 -4.3515625 19.046875 C-4.56554687 19.69140625 -4.77953125 20.3359375 -5 21 C-6.32 21 -7.64 21 -9 21 C-7.50640515 16.15713185 -5.54966433 11.68649104 -3.375 7.125 C-2.88773437 6.09246094 -2.88773437 6.09246094 -2.390625 5.0390625 C-1.59676528 3.35794781 -0.79880442 1.67877079 0 0 Z " fill="#8FC4DA" transform="translate(111,188)"/>
<path d="M0 0 C1.32 0 2.64 0 4 0 C4 2.97 4 5.94 4 9 C7.63 9 11.26 9 15 9 C15 6.03 15 3.06 15 0 C16.32 0 17.64 0 19 0 C19 7.26 19 14.52 19 22 C17.68 22 16.36 22 15 22 C15 19.03 15 16.06 15 13 C11.37 13 7.74 13 4 13 C4 15.97 4 18.94 4 22 C2.68 22 1.36 22 0 22 C0 14.74 0 7.48 0 0 Z " fill="#95C8DC" transform="translate(296,187)"/>
<path d="M0 0 C1.32 0 2.64 0 4 0 C4 2.97 4 5.94 4 9 C7.63 9 11.26 9 15 9 C15 6.03 15 3.06 15 0 C16.32 0 17.64 0 19 0 C19 7.26 19 14.52 19 22 C17.68 22 16.36 22 15 22 C15 19.03 15 16.06 15 13 C11.37 13 7.74 13 4 13 C4 15.97 4 18.94 4 22 C2.68 22 1.36 22 0 22 C0 14.74 0 7.48 0 0 Z " fill="#95C8DC" transform="translate(180,187)"/>
<path d="M0 0 C1.32 0 2.64 0 4 0 C4.04898437 1.04800781 4.09796875 2.09601563 4.1484375 3.17578125 C4.22348143 4.55471354 4.29902857 5.9336185 4.375 7.3125 C4.4059375 8.00279297 4.436875 8.69308594 4.46875 9.40429688 C4.68124919 13.06990789 4.91933861 14.87900792 7 18 C9.31 18 11.62 18 14 18 C14.495 9.09 14.495 9.09 15 0 C16.32 0 17.64 0 19 0 C19.13548815 2.73083902 19.23429855 5.45491807 19.3125 8.1875 C19.35439453 8.95642578 19.39628906 9.72535156 19.43945312 10.51757812 C19.53058086 14.76413057 19.37585411 16.49272837 16.765625 20.015625 C13.20134173 22.57304859 11.32681021 22.66938277 7.08984375 22.4296875 C4.04050378 21.8027204 2.73632985 20.5321477 1 18 C-0.2062252 14.38132441 -0.10816918 11.07493749 -0.0625 7.3125 C-0.05798828 6.61060547 -0.05347656 5.90871094 -0.04882812 5.18554688 C-0.03706927 3.45699462 -0.01913454 1.72848635 0 0 Z " fill="#94C7DC" transform="translate(323,187)"/>
<path d="M0 0 C0.33 1.32 0.66 2.64 1 4 C-2.63 3.67 -6.26 3.34 -10 3 C-9.67 4.32 -9.34 5.64 -9 7 C-6.72788324 8.32283857 -6.72788324 8.32283857 -4 9.1875 C0.95364238 10.95364238 0.95364238 10.95364238 2 12 C2.3125 14.875 2.3125 14.875 2 18 C-0.89763403 20.84446644 -3.05858362 21.41123454 -7.0625 21.375 C-7.91972656 21.38273437 -8.77695312 21.39046875 -9.66015625 21.3984375 C-12.40312296 20.93135469 -13.28099347 20.13044088 -15 18 C-14.67 17.34 -14.34 16.68 -14 16 C-13.484375 16.165 -12.96875 16.33 -12.4375 16.5 C-9.26636124 17.15049 -6.22781666 17.0620734 -3 17 C-3.15110679 15.03164856 -3.15110679 15.03164856 -4 13 C-6.04831139 11.89794531 -6.04831139 11.89794531 -8.5 11.3125 C-12.94701987 10.05298013 -12.94701987 10.05298013 -14 9 C-14.375 5.625 -14.375 5.625 -14 2 C-9.9477798 -2.18293698 -5.24300355 -0.94808125 0 0 Z " fill="#92C6DB" transform="translate(275,188)"/>
<path d="M0 0 C2.4375 1.625 2.4375 1.625 4 4 C4.5625 6.9375 4.5625 6.9375 4 10 C1.9375 12.9375 1.9375 12.9375 -1 15 C-4.85210127 15.06641554 -6.99848005 14.87229157 -9.9375 12.3125 C-11.33817538 9.26397123 -11.4842732 7.32073048 -11 4 C-8.05899778 -0.47032338 -5.13105401 -0.73300772 0 0 Z " fill="transparent" transform="translate(221,191)"/>
<path d="M0 0 C1.32 0 2.64 0 4 0 C4.33 5.94 4.66 11.88 5 18 C7.31 18 9.62 18 12 18 C14.42479736 14.36280395 14.38662577 12.14296518 14.625 7.8125 C14.69976562 6.54019531 14.77453125 5.26789063 14.8515625 3.95703125 C14.90054688 2.98121094 14.94953125 2.00539062 15 1 C15.99 1 16.98 1 18 1 C18.13559675 3.56428515 18.23433188 6.12135216 18.3125 8.6875 C18.35439453 9.40873047 18.39628906 10.12996094 18.43945312 10.87304688 C18.53410868 15.01896038 18.33572381 16.5591097 15.73046875 19.98046875 C12.07126208 22.68692061 12.07126208 22.68692061 9 22.625 C8.360625 22.63789063 7.72125 22.65078125 7.0625 22.6640625 C3.62382893 21.55691462 2.1591539 19.86524554 0 17 C-0.588071 14.03143497 -0.47655857 11.19860569 -0.3125 8.1875 C-0.28994141 7.39923828 -0.26738281 6.61097656 -0.24414062 5.79882812 C-0.18554161 3.86506071 -0.09586827 1.93227833 0 0 Z " fill="#8EC4DA" transform="translate(131,187)"/>
<path d="M0 0 C6.27 0 12.54 0 19 0 C19 1.32 19 2.64 19 4 C16.69 4 14.38 4 12 4 C12 9.94 12 15.88 12 22 C10.35 22 8.7 22 7 22 C7 16.06 7 10.12 7 4 C4.69 4 2.38 4 0 4 C0 2.68 0 1.36 0 0 Z " fill="#A0CCDF" transform="translate(155,187)"/>
<path d="M0 0 C2.25 0.0625 2.25 0.0625 5 1 C7.0898813 3.65742095 9 6.53550551 9 10 C11.95929119 7.24479785 14.03681826 4.53372712 16 1 C17.32 1.33 18.64 1.66 20 2 C19.50628906 2.7734375 19.01257813 3.546875 18.50390625 4.34375 C14.81802904 10.33608156 12.13644221 14.90500517 12 22 C10.68 22 9.36 22 8 22 C7.979375 20.741875 7.95875 19.48375 7.9375 18.1875 C7.369074 12.59205659 4.66226778 8.81463258 1.49609375 4.28515625 C0 2 0 2 0 0 Z " fill="#91C6DB" transform="translate(67,187)"/>
<path d="M0 0 C6.0546875 -0.1953125 6.0546875 -0.1953125 8 0 C10 2 10 2 10.3125 4.5 C10.1578125 5.7375 10.1578125 5.7375 10 7 C6.3558226 9.4294516 4.28758728 9.16179575 0 9 C0 6.03 0 3.06 0 0 Z " fill="transparent" transform="translate(240,191)"/>
<path d="M0 0 C3.3 0 6.6 0 10 0 C10.33 1.32 10.66 2.64 11 4 C9 6 9 6 6.8359375 6.1953125 C5.61777344 6.16050781 5.61777344 6.16050781 4.375 6.125 C3.55773437 6.10695312 2.74046875 6.08890625 1.8984375 6.0703125 C1.27195312 6.04710937 0.64546875 6.02390625 0 6 C0 4.02 0 2.04 0 0 Z " fill="transparent" transform="translate(355,200)"/>
<path d="M0 0 C0.66 0.66 1.32 1.32 2 2 C1.030625 2.08636719 0.06125 2.17273438 -0.9375 2.26171875 C-9.28768909 3.10524647 -16.93107953 4.60695453 -24.85742188 7.41088867 C-29.71348342 9.09550553 -29.71348342 9.09550553 -33 8 C-6.45711959 -2.52856232 -6.45711959 -2.52856232 0 0 Z " fill="#E2ECF1" transform="translate(245,155)"/>
<path d="M0 0 C2.97 0 5.94 0 9 0 C9.33 1.32 9.66 2.64 10 4 C8 6 8 6 6.0546875 6.1953125 C4.03645833 6.13020833 2.01822917 6.06510417 0 6 C0 4.02 0 2.04 0 0 Z " fill="transparent" transform="translate(355,191)"/>
<path d="M0 0 C3.67716271 1.06444184 6.77282884 2.97149242 10 5 C10.33 4.01 10.66 3.02 11 2 C11.66 2.33 12.32 2.66 13 3 C13 3.99 13 4.98 13 6 C12.34 6 11.68 6 11 6 C11.33 6.99 11.66 7.98 12 9 C8.11707422 8.4752803 6.70267485 7.70267485 4 5 C1.70809241 3.86177174 -0.61712632 2.94415749 -3 2 C-2.01 1.34 -1.02 0.68 0 0 Z " fill="#C1DCE8" transform="translate(189,160)"/>
<path d="M0 0 C3.31544299 0 5.98001389 0.67226165 9.1875 1.5 C10.27417969 1.7784375 11.36085937 2.056875 12.48046875 2.34375 C13.31191406 2.5603125 14.14335937 2.776875 15 3 C15 3.33 15 3.66 15 4 C12.87745145 4.38863565 10.75183172 4.76053209 8.625 5.125 C6.84996094 5.43824219 6.84996094 5.43824219 5.0390625 5.7578125 C4.03617188 5.83773437 3.03328125 5.91765625 2 6 C0 4 0 4 -1 2 C-0.67 1.34 -0.34 0.68 0 0 Z " fill="#A2CEE0" transform="translate(204,162)"/>
<path d="M0 0 C2.50298434 2.93828597 3.46930939 5.17902761 4 9 C1.69 9 -0.62 9 -3 9 C-2.44271087 5.65626525 -1.64826111 2.96687001 0 0 Z " fill="transparent" transform="translate(113,192)"/>
<path d="M0 0 C0.66 0.33 1.32 0.66 2 1 C-0.40016348 5.94151304 -3.52273027 8.04331244 -8 11 C-8 8 -8 8 -6.25 5.95703125 C-5.5075 5.24933594 -4.765 4.54164063 -4 3.8125 C-2.88625 2.73935547 -2.88625 2.73935547 -1.75 1.64453125 C-1.1725 1.10183594 -0.595 0.55914062 0 0 Z " fill="#99CADD" transform="translate(217,151)"/>
<path d="M0 0 C3 0 3 0 5 1 C4.67 1.66 4.34 2.32 4 3 C4.66 3.33 5.32 3.66 6 4 C5.34 4 4.68 4 4 4 C4 4.66 4 5.32 4 6 C1 5 1 5 -1 4 C-0.67 2.68 -0.34 1.36 0 0 Z " fill="#CCE1EB" transform="translate(204,162)"/>
<path d="M0 0 C0.99 0.33 1.98 0.66 3 1 C0.36 3.97 -2.28 6.94 -5 10 C-5 6.60406522 -4.47834052 5.93380119 -2.5 3.3125 C-2.0359375 2.68988281 -1.571875 2.06726563 -1.09375 1.42578125 C-0.7328125 0.95527344 -0.371875 0.48476562 0 0 Z " fill="#EEF1F5" transform="translate(211,154)"/>
</svg>
