<svg xmlns="http://www.w3.org/2000/svg" xmlns:xlink="http://www.w3.org/1999/xlink" width="2816" zoomAndPan="magnify" viewBox="0 0 2112 1151.999944" height="1536" preserveAspectRatio="xMidYMid meet" version="1.0"><defs><clipPath id="2d1fb75e74"><path d="M 190 175 L 1921 175 L 1921 992.417969 L 190 992.417969 Z M 190 175 " clip-rule="nonzero"/></clipPath></defs><g clip-path="url(#2d1fb75e74)"><path fill="#FFFFFF" d="M 682.210938 410.332031 L 682.402344 645.179688 L 699.234375 646.039062 C 730.394531 647.632812 737.285156 648.324219 787.511719 654.910156 C 795.535156 655.960938 811.359375 658.664062 822.671875 660.910156 C 869.390625 670.191406 903.808594 680.84375 936.761719 696.21875 C 949.097656 701.976562 952.6875 703.84375 965.296875 711.082031 C 997.832031 729.761719 1027.296875 754.570312 1050.339844 782.695312 C 1053.636719 786.722656 1056.566406 789.917969 1056.851562 789.804688 C 1057.136719 789.6875 1059.785156 786.566406 1062.738281 782.863281 C 1102.898438 732.472656 1162.023438 695.433594 1236.382812 674.074219 C 1257.339844 668.058594 1286.453125 661.53125 1311.570312 657.226562 C 1335.246094 653.164062 1381.421875 648.289062 1415.53125 646.25 C 1422.921875 645.808594 1429.234375 645.28125 1429.558594 645.082031 C 1429.882812 644.878906 1430.148438 539.121094 1430.148438 410.058594 L 1430.148438 175.402344 L 1413.503906 175.914062 C 1381.195312 176.90625 1365.652344 178.105469 1334.015625 182.042969 C 1293.574219 187.074219 1264.820312 192.324219 1233.457031 200.402344 C 1162.746094 218.617188 1118.207031 240.261719 1081.523438 274.238281 C 1060.390625 293.808594 1047.941406 309.703125 1035.675781 332.769531 C 1026.601562 349.828125 1021.40625 364.941406 1010.46875 406.101562 C 1000.867188 442.234375 997.320312 454.378906 992.121094 468.957031 C 989.613281 475.992188 987.105469 483.03125 984.601562 490.066406 C 983.183594 494.0625 982.023438 497.839844 982.023438 498.457031 C 982.023438 499.078125 984.632812 503.007812 987.820312 507.191406 C 996.386719 518.429688 996.597656 518.726562 1002.613281 528.183594 C 1017.207031 551.121094 1032.292969 588.933594 1044.210938 632.4375 C 1045.011719 635.355469 1049.839844 641.0625 1051.511719 641.0625 C 1052.121094 641.0625 1052.347656 621.574219 1052.347656 568.902344 C 1052.347656 498.359375 1052.316406 496.734375 1050.90625 496.289062 C 1048.234375 495.441406 1044.996094 491.328125 1044.117188 487.667969 C 1042.464844 480.777344 1046.058594 474.71875 1053.046875 472.625 C 1060.800781 470.300781 1068.800781 476.609375 1068.800781 485.046875 C 1068.800781 489.53125 1066.980469 492.878906 1063.230469 495.3125 L 1060.59375 497.019531 L 1060.585938 569.039062 C 1060.582031 608.652344 1060.761719 641.0625 1060.988281 641.0625 C 1061.214844 641.0625 1062.359375 640.566406 1063.535156 639.957031 C 1066.304688 638.523438 1068.394531 635.050781 1069.847656 629.464844 C 1075.414062 608.050781 1090.6875 566.316406 1100.167969 546.605469 C 1107.378906 531.613281 1112.070312 524.292969 1126.269531 505.863281 L 1131.5625 498.996094 L 1127.582031 489.027344 C 1114.132812 455.332031 1104.460938 420.085938 1099.375 386.261719 C 1097.367188 372.894531 1096.996094 350.882812 1098.632812 341.75 C 1099.929688 334.480469 1104.285156 320.898438 1107.144531 315.1875 C 1112.808594 303.878906 1121.527344 293.269531 1132.085938 284.839844 C 1160.597656 262.078125 1229.609375 238.203125 1299.613281 226.878906 C 1325.425781 222.703125 1359.054688 218.941406 1380.210938 217.859375 L 1390.496094 217.332031 L 1390.484375 412.175781 C 1390.480469 519.335938 1390.203125 607.441406 1389.871094 607.964844 C 1389.472656 608.59375 1383.332031 609.542969 1371.742188 610.765625 C 1333.976562 614.753906 1326.394531 615.828125 1297.382812 621.3125 C 1275.046875 625.535156 1260.652344 629.023438 1232.558594 637.027344 C 1210.21875 643.390625 1179.589844 655.269531 1157.675781 666.066406 C 1143.144531 673.222656 1143.347656 672.929688 1161.199219 660.9375 C 1179.175781 648.863281 1189.390625 642.953125 1209.078125 633.234375 C 1251.933594 612.082031 1294.242188 598.933594 1350.097656 589.410156 C 1357.707031 588.113281 1364.183594 586.660156 1364.488281 586.183594 C 1365.230469 585.015625 1365.195312 553.386719 1364.449219 552.214844 C 1363.457031 550.648438 1340.945312 554.515625 1313.632812 560.945312 C 1252.757812 575.273438 1201.550781 596.222656 1158.675781 624.34375 C 1131.261719 642.324219 1117.992188 653.117188 1094.949219 676.179688 C 1079.6875 691.457031 1073.671875 698.289062 1061.867188 713.742188 C 1059.078125 717.394531 1056.675781 720.378906 1056.53125 720.378906 C 1056.386719 720.378906 1054.308594 717.769531 1051.90625 714.582031 C 1034.753906 691.765625 1012.335938 668.261719 992.03125 651.804688 C 946.640625 615.019531 898.839844 590.164062 835.390625 570.355469 C 817.882812 564.890625 816.972656 564.644531 799.855469 560.671875 C 772.988281 554.4375 748.804688 550.492188 747.765625 552.171875 C 747.445312 552.6875 747.253906 560.683594 747.335938 569.941406 L 747.488281 586.777344 L 760.207031 588.855469 C 798.824219 595.160156 819.414062 600.160156 848.84375 610.371094 C 884.441406 622.722656 913.839844 636.667969 942.261719 654.679688 C 949.425781 659.21875 969.304688 673.074219 969.304688 673.523438 C 969.304688 673.65625 962.488281 670.359375 954.15625 666.199219 C 934.972656 656.625 909.21875 646.144531 888.507812 639.480469 C 875.199219 635.195312 844.289062 626.890625 828.785156 623.425781 C 801.183594 617.261719 764.164062 611.773438 735.144531 609.550781 C 728.765625 609.058594 723.125 608.332031 722.613281 607.933594 C 721.867188 607.355469 721.675781 567.292969 721.675781 412.066406 L 721.675781 216.929688 L 727.847656 217.257812 C 753.742188 218.632812 760.636719 219.238281 786.390625 222.394531 C 836.664062 228.5625 890.992188 241.941406 933.769531 258.683594 C 943.675781 262.5625 963.253906 272.472656 970.425781 277.238281 C 978.179688 282.390625 989.070312 291.796875 994.074219 297.671875 C 1002.394531 307.425781 1009.488281 320.433594 1014.660156 335.40625 C 1016.148438 339.71875 1017.617188 343.246094 1017.921875 343.246094 C 1018.226562 343.246094 1020.417969 339.457031 1022.789062 334.828125 C 1027.9375 324.773438 1034.089844 314.847656 1041.378906 304.828125 C 1049.929688 293.074219 1049.578125 294.839844 1044.574219 288.726562 C 1038.789062 281.648438 1024.371094 267.828125 1014.828125 260.203125 C 983.976562 235.558594 948.464844 218.855469 895.558594 204.105469 C 843.15625 189.496094 774.65625 178.925781 718.683594 176.808594 C 712.71875 176.582031 702.03125 176.195312 694.929688 175.945312 L 682.023438 175.492188 Z M 223.789062 837.875 C 222.3125 839.507812 219.609375 855.003906 215.175781 887.246094 C 210.726562 919.617188 204.789062 956.644531 203.558594 959.726562 C 202.253906 962.980469 202.039062 963.097656 195.453125 964.128906 C 191.414062 964.761719 189.253906 966.792969 191.257812 968.070312 C 191.878906 968.46875 200.0625 968.820312 209.589844 968.859375 C 219.050781 968.898438 227.785156 969.09375 228.996094 969.289062 C 231.964844 969.773438 234.382812 969.085938 234.953125 967.597656 C 235.746094 965.535156 234.109375 964.554688 229.078125 964.085938 C 223.347656 963.550781 221.367188 962.480469 220.53125 959.453125 C 219.824219 956.894531 221.003906 943.910156 223.832031 923.164062 C 224.984375 914.6875 226.109375 906.207031 227.203125 897.722656 C 228.019531 891.34375 228.765625 885.652344 228.863281 885.074219 C 228.960938 884.496094 232.371094 890.890625 236.445312 899.289062 C 248.476562 924.101562 267.335938 961.738281 269.292969 964.835938 C 272.707031 970.246094 274.578125 970.59375 277.21875 966.304688 C 278.476562 964.257812 297.492188 924.21875 297.492188 923.613281 C 297.492188 923.488281 301.699219 914.761719 306.84375 904.214844 C 311.988281 893.671875 316.195312 884.644531 316.195312 884.152344 C 316.195312 883.660156 316.375 883.433594 316.59375 883.652344 C 316.8125 883.875 317.808594 890.242188 318.804688 897.808594 C 319.804688 905.375 321.289062 916.28125 322.105469 922.042969 C 324.480469 938.757812 326.671875 956.976562 326.667969 959.992188 C 326.667969 962.003906 326.257812 962.992188 325.171875 963.570312 C 324.351562 964.011719 323.675781 965.019531 323.675781 965.8125 C 323.675781 968.242188 328.285156 968.820312 348.414062 968.914062 C 365.796875 968.992188 367.402344 968.890625 368.304688 967.65625 C 369.753906 965.671875 368.234375 964.320312 364.546875 964.316406 C 357.382812 964.304688 351.574219 960.804688 350.027344 955.5625 C 349.566406 954 348.488281 948.589844 347.636719 943.542969 C 346.035156 934.09375 345.597656 931.125 337.925781 877.894531 C 332.582031 840.8125 332.277344 839.175781 330.371094 837.453125 C 329.148438 836.34375 328.589844 836.269531 326.976562 837.007812 C 325.007812 837.902344 325.332031 837.273438 297.695312 893.980469 C 293.785156 902.007812 287.917969 914.28125 284.65625 921.261719 C 281.398438 928.238281 278.636719 934.042969 278.519531 934.160156 C 278.402344 934.277344 267.75 913.304688 254.851562 887.550781 C 241.949219 861.800781 230.476562 839.746094 229.355469 838.546875 C 226.953125 835.972656 225.652344 835.816406 223.789062 837.875 M 597.640625 837.722656 C 596.476562 838.613281 592.761719 846.671875 586.171875 862.585938 C 573.523438 893.121094 571.472656 898.132812 560.371094 925.621094 C 555.257812 938.289062 550.066406 950.726562 548.839844 953.265625 C 545.121094 960.941406 542.152344 963.25 534.816406 964.164062 C 530.890625 964.65625 530.53125 964.855469 530.53125 966.566406 L 530.53125 968.4375 L 575.417969 968.4375 L 575.417969 966.570312 C 575.417969 964.871094 575.003906 964.632812 570.761719 963.871094 C 561.285156 962.175781 561.320312 961.75 573.453125 931.023438 L 575.523438 925.785156 L 595.367188 925.566406 C 610.890625 925.394531 615.375 925.558594 615.957031 926.316406 C 617.085938 927.769531 628.824219 957.597656 629.371094 960.398438 C 629.773438 962.453125 629.53125 963.082031 627.824219 964.425781 C 624.695312 966.886719 626.546875 967.988281 635.332031 968.90625 C 645.589844 969.980469 670.746094 969.1875 672.1875 967.75 C 673.941406 965.992188 672.683594 964.320312 669.605469 964.320312 C 661.265625 964.320312 656.910156 960.726562 650.855469 948.851562 C 648.371094 943.984375 645.964844 938.992188 645.503906 937.757812 C 645.046875 936.523438 640.570312 925.578125 635.558594 913.4375 C 630.546875 901.296875 625.792969 889.679688 624.992188 887.621094 C 624.191406 885.5625 621.59375 879.335938 619.21875 873.777344 C 616.84375 868.222656 612.800781 858.457031 610.234375 852.078125 C 607.050781 844.160156 604.878906 839.828125 603.390625 838.421875 C 600.847656 836.023438 599.980469 835.917969 597.640625 837.722656 M 811.890625 839.917969 C 811.265625 841.898438 810.039062 848.613281 808.796875 856.847656 C 807.957031 862.414062 807.894531 864.492188 808.535156 865.265625 C 810.152344 867.214844 811.457031 866.285156 813.664062 861.617188 C 815.296875 858.160156 816.683594 856.417969 818.980469 854.925781 C 822.664062 852.542969 825.25 852.203125 842.359375 851.855469 L 854.933594 851.601562 L 854.628906 904.03125 C 854.460938 932.871094 854.011719 957.640625 853.628906 959.082031 C 852.789062 962.253906 849.246094 964.316406 844.648438 964.320312 C 841.316406 964.320312 839.574219 965.640625 840.320312 967.59375 C 840.742188 968.6875 843.5625 968.808594 868.039062 968.808594 C 891.671875 968.808594 895.347656 968.660156 895.722656 967.679688 C 896.542969 965.542969 894.597656 964.542969 888.757812 964.101562 C 881.339844 963.542969 879.75 962.140625 878.757812 955.285156 C 878.378906 952.640625 878.058594 928.308594 878.050781 901.210938 L 878.035156 851.949219 L 893.558594 852.210938 C 907.996094 852.453125 909.304688 852.589844 912.289062 854.175781 C 915.6875 855.980469 918.425781 859.605469 918.429688 862.304688 C 918.433594 865.046875 919.265625 866.296875 921.082031 866.296875 C 923.574219 866.296875 923.910156 864.515625 923.832031 851.777344 C 923.753906 838.941406 923.414062 838.050781 919.160156 839.511719 C 917.296875 840.148438 903.8125 840.476562 871.558594 840.671875 C 833.164062 840.898438 825.65625 840.769531 820.417969 839.773438 C 812.730469 838.316406 812.390625 838.320312 811.890625 839.917969 M 1143.703125 839.726562 C 1122.210938 844.5625 1107.039062 856.09375 1097.949219 874.5 C 1088.757812 893.121094 1088.226562 912.945312 1096.398438 932.695312 C 1104.101562 951.316406 1121.914062 965.628906 1142.871094 970.035156 C 1150.496094 971.640625 1167.671875 971.824219 1175.039062 970.382812 C 1196.878906 966.109375 1215.765625 951.308594 1223.585938 932.34375 C 1225.625 927.390625 1228.144531 917.785156 1229.324219 910.445312 C 1230.96875 900.238281 1228.488281 883.957031 1223.667969 873.300781 C 1218.074219 860.929688 1206.949219 849.871094 1194.660156 844.46875 C 1185.464844 840.429688 1178.46875 839.199219 1163.070312 838.917969 C 1152.277344 838.722656 1147.238281 838.933594 1143.703125 839.726562 M 1407.332031 839.117188 C 1402.347656 840.230469 1393.890625 843.5 1390.957031 845.441406 C 1370.886719 858.738281 1371.855469 886.84375 1392.964844 903.574219 C 1395.519531 905.597656 1401.71875 910.003906 1406.746094 913.371094 C 1418.011719 920.914062 1423.191406 925.578125 1426.066406 930.769531 C 1428.058594 934.367188 1428.277344 935.429688 1428.273438 941.496094 C 1428.269531 947.007812 1427.964844 948.796875 1426.609375 951.339844 C 1424.484375 955.335938 1420.3125 958.75 1415.691406 960.285156 C 1410.433594 962.03125 1399.714844 961.441406 1394.402344 959.113281 C 1387.328125 956.011719 1381.691406 948.140625 1379.78125 938.691406 C 1378.726562 933.488281 1377.070312 931.78125 1375.042969 933.8125 C 1373.945312 934.910156 1373.769531 937.015625 1373.722656 949.820312 L 1373.664062 964.5625 L 1377.03125 966.28125 C 1383.457031 969.558594 1392.859375 971.308594 1403.964844 971.285156 C 1421.179688 971.253906 1429.992188 968.207031 1439.207031 959.097656 C 1445.484375 952.894531 1447.933594 948.113281 1449.027344 939.953125 C 1450.136719 931.660156 1448.988281 923.96875 1445.558594 916.722656 C 1441.746094 908.671875 1435.097656 902.113281 1421.996094 893.480469 C 1417.433594 890.472656 1412.875 887.464844 1408.316406 884.453125 C 1395.007812 875.625 1391.847656 861.972656 1401.035156 852.992188 C 1405.515625 848.609375 1415.003906 846.6875 1422.578125 848.628906 C 1431.292969 850.863281 1436.53125 855.941406 1438.679688 864.246094 C 1439.292969 866.617188 1440.003906 868.890625 1440.253906 869.296875 C 1440.957031 870.4375 1443.402344 870.171875 1443.890625 868.898438 C 1444.128906 868.273438 1444.542969 862.210938 1444.804688 855.429688 L 1445.28125 843.09375 L 1442.765625 842.042969 C 1437.425781 839.8125 1428.796875 838.609375 1418.769531 838.695312 C 1413.300781 838.742188 1408.152344 838.933594 1407.332031 839.117188 M 1842.984375 840.832031 C 1830.777344 841.046875 1820.5625 841.457031 1820.285156 841.734375 C 1820.007812 842.011719 1819.988281 842.886719 1820.242188 843.683594 C 1820.613281 844.847656 1821.644531 845.21875 1825.542969 845.582031 C 1828.207031 845.832031 1831.089844 846.410156 1831.949219 846.871094 C 1835.570312 848.808594 1835.628906 849.667969 1835.625 897.886719 C 1835.617188 940.996094 1835.003906 958.304688 1833.367188 961.359375 C 1832.515625 962.953125 1828.335938 964.308594 1824.265625 964.316406 C 1821.230469 964.320312 1820.34375 965.109375 1821.007812 967.207031 C 1821.417969 968.5 1823.261719 968.613281 1852.289062 969.101562 C 1881.792969 969.597656 1883.398438 969.554688 1889.121094 968.097656 C 1904.144531 964.277344 1914.761719 955.5 1918.707031 943.632812 C 1920.070312 939.542969 1920.285156 937.464844 1920.054688 930.691406 C 1919.792969 923.066406 1919.617188 922.308594 1916.890625 916.929688 C 1912.832031 908.933594 1907.199219 903.394531 1898.613281 898.957031 C 1894.832031 897.007812 1891.738281 895.3125 1891.738281 895.195312 C 1891.738281 895.078125 1893.246094 893.902344 1895.089844 892.578125 C 1903.035156 886.871094 1908.199219 876.964844 1908.199219 867.417969 C 1908.199219 850.675781 1896.105469 841.382812 1873.410156 840.683594 C 1868.882812 840.546875 1855.191406 840.609375 1842.984375 840.832031 M 360.605469 841.976562 C 359.835938 843.976562 360.941406 845.34375 363.328125 845.34375 C 372.09375 845.34375 380.40625 855.195312 401.300781 890.339844 C 410.667969 906.101562 414.164062 913.515625 414.949219 919.292969 C 415.929688 926.488281 415.28125 955.742188 414.058594 959.433594 C 412.863281 963.050781 410.679688 964.292969 405.496094 964.308594 C 402.3125 964.316406 401.589844 964.574219 401.273438 965.789062 C 401.058594 966.597656 401.34375 967.636719 401.902344 968.101562 C 403.210938 969.1875 455.179688 969.277344 456.257812 968.195312 C 456.65625 967.796875 456.863281 966.847656 456.714844 966.082031 C 456.496094 964.9375 455.492188 964.609375 451.007812 964.207031 C 439.066406 963.140625 439.410156 963.875 439.023438 938.441406 C 438.828125 925.535156 439.019531 917.523438 439.585938 914.789062 C 441.042969 907.777344 452.863281 886.117188 465.851562 866.667969 C 476.089844 851.332031 481.539062 846.382812 489.222656 845.445312 C 492.761719 845.015625 493.125 844.792969 493.125 843.097656 L 493.125 841.226562 L 452.726562 841.226562 L 452.726562 842.859375 C 452.726562 843.886719 453.699219 845.152344 455.347656 846.273438 C 459.484375 849.09375 459.023438 852.042969 452.734375 862.996094 C 449.921875 867.898438 446.816406 873.421875 445.835938 875.273438 C 444.855469 877.125 443.015625 880.324219 441.75 882.382812 C 440.488281 884.441406 437.953125 888.988281 436.117188 892.484375 C 434.28125 895.984375 432.347656 899.292969 431.820312 899.839844 C 431.027344 900.660156 429.421875 898.335938 422.785156 886.746094 C 408.445312 861.722656 403.03125 851.785156 402.558594 849.632812 C 402.074219 847.433594 403.191406 845.34375 404.847656 845.34375 C 406.28125 845.34375 407.550781 843.4375 407.023438 842.070312 C 406.609375 840.984375 404.128906 840.855469 383.796875 840.855469 C 364.253906 840.855469 360.976562 841.011719 360.605469 841.976562 M 667.335938 841.976562 C 666.457031 844.261719 667.648438 845.121094 672.261719 845.539062 C 677.441406 846.007812 680.210938 847.484375 681.441406 850.433594 C 682 851.78125 682.457031 865.164062 682.804688 890.613281 C 683.394531 933.644531 683.566406 935.214844 688.988281 946.363281 C 697.335938 963.527344 715.890625 972.863281 738.898438 971.472656 C 753.265625 970.601562 762.035156 967.640625 770.84375 960.675781 C 775.195312 957.234375 780.699219 949.910156 783.046875 944.441406 C 787.640625 933.726562 787.996094 929.507812 788.527344 879.015625 C 788.839844 849.386719 788.964844 848.667969 794.171875 846.582031 C 795.875 845.902344 798.449219 845.34375 799.894531 845.34375 C 802.800781 845.34375 803.984375 843.792969 802.464844 841.964844 C 801.078125 840.296875 758.226562 840.304688 756.839844 841.976562 C 755.316406 843.8125 757.171875 845.148438 762.015625 845.710938 C 767.929688 846.398438 770.808594 848.25 771.574219 851.855469 C 771.90625 853.417969 772.175781 871.195312 772.175781 891.363281 C 772.175781 924.402344 772.039062 928.621094 770.789062 934.015625 C 766.550781 952.332031 754.789062 961.535156 737.097656 960.382812 C 729.054688 959.859375 723.449219 957.660156 718.414062 953.0625 C 711.007812 946.289062 707.113281 936.367188 705.964844 921.332031 C 705.15625 910.757812 705.574219 853.90625 706.480469 851.007812 C 707.476562 847.835938 710.292969 846.078125 715.195312 845.570312 C 719.84375 845.09375 720.523438 844.613281 719.804688 842.34375 C 719.34375 840.894531 718.636719 840.855469 693.546875 840.855469 C 671.320312 840.855469 667.707031 841.007812 667.335938 841.976562 M 935.164062 841.976562 C 934.300781 844.222656 935.492188 845.34375 938.796875 845.386719 C 943.292969 845.445312 946.832031 846.859375 948.660156 849.324219 C 950.203125 851.402344 950.230469 852.152344 950.464844 894.597656 C 950.703125 937.371094 950.027344 957.429688 948.234375 960.835938 C 947.066406 963.054688 946.375 963.402344 942.035156 963.949219 C 936.535156 964.644531 935.640625 965.011719 935.640625 966.566406 C 935.640625 967.332031 936.230469 968.136719 936.949219 968.347656 C 939.085938 968.980469 989.070312 969.167969 990.078125 968.542969 C 991.390625 967.734375 991.222656 965.3125 989.816406 964.773438 C 989.167969 964.523438 987.230469 964.316406 985.515625 964.316406 C 980.964844 964.308594 976.921875 962.984375 975.714844 961.101562 C 974.035156 958.484375 973.046875 944.65625 973.046875 923.78125 L 973.046875 904.457031 L 1036.636719 904.457031 L 1036.621094 925.597656 C 1036.609375 948.382812 1035.867188 958.984375 1034.101562 961.679688 C 1033.214844 963.03125 1031.9375 963.523438 1027.964844 964.039062 C 1022.894531 964.699219 1020.40625 966.367188 1022.066406 967.984375 C 1022.492188 968.402344 1033.785156 968.792969 1049.15625 968.925781 C 1072.417969 969.125 1075.65625 969.011719 1076.703125 967.964844 C 1078.714844 965.957031 1076.410156 964.578125 1070.042969 963.980469 C 1063.222656 963.339844 1061.707031 962.03125 1060.4375 955.667969 C 1059.164062 949.28125 1059.195312 852.402344 1060.472656 850.019531 C 1061.882812 847.398438 1064.730469 845.929688 1069.390625 845.429688 C 1073.332031 845.003906 1073.667969 844.824219 1073.667969 843.097656 L 1073.667969 841.226562 L 1021.300781 841.226562 L 1021.0625 842.914062 C 1020.761719 845.023438 1022.976562 845.898438 1028.957031 846.035156 C 1030.515625 846.074219 1032.242188 846.867188 1033.820312 848.273438 L 1036.261719 850.457031 L 1036.492188 871.84375 L 1036.722656 893.234375 L 972.90625 893.234375 L 973.164062 872.433594 C 973.390625 854.160156 973.578125 851.394531 974.730469 849.636719 C 976.496094 846.945312 978.539062 845.96875 982.40625 845.96875 C 986.3125 845.96875 988.851562 843.894531 987.273438 841.992188 C 985.859375 840.289062 935.816406 840.277344 935.164062 841.976562 M 1244.136719 841.976562 C 1243.351562 844.023438 1244.472656 845.34375 1247.023438 845.363281 C 1251.304688 845.390625 1255.261719 846.671875 1257.261719 848.675781 L 1259.203125 850.617188 L 1259.199219 901.292969 C 1259.195312 953.332031 1258.898438 959.332031 1256.21875 962.015625 C 1255.609375 962.625 1252.832031 963.492188 1250.050781 963.949219 C 1245.40625 964.710938 1244.988281 964.929688 1244.988281 966.605469 L 1244.988281 968.4375 L 1271.085938 968.632812 C 1298.257812 968.835938 1300 968.660156 1298.480469 965.820312 C 1297.917969 964.765625 1296.585938 964.425781 1292.144531 964.203125 C 1282.449219 963.710938 1282.125 962.710938 1282.058594 933.246094 L 1282.019531 916.019531 L 1290.0625 916.292969 C 1295.167969 916.46875 1298.695312 916.945312 1299.722656 917.597656 C 1300.613281 918.164062 1305.460938 924.78125 1310.496094 932.304688 C 1322.398438 950.101562 1329.007812 958.875 1332.792969 961.914062 C 1340.710938 968.261719 1348.992188 970.089844 1365.0625 969.042969 C 1373.53125 968.492188 1374.414062 968.300781 1374.414062 967.015625 C 1374.414062 965.902344 1373.074219 965.152344 1368.195312 963.53125 C 1364.773438 962.394531 1360.597656 960.511719 1358.914062 959.34375 C 1354.132812 956.027344 1345.664062 946.367188 1335.683594 932.835938 C 1330.648438 926.015625 1324.609375 917.871094 1322.257812 914.734375 L 1317.984375 909.035156 L 1323.289062 903.941406 C 1333.316406 894.304688 1337.5625 887.019531 1339.035156 876.917969 C 1341.074219 862.929688 1335.140625 851.367188 1322.8125 845.296875 C 1314.867188 841.386719 1309.753906 840.910156 1275.449219 840.878906 C 1248.671875 840.859375 1244.511719 841.003906 1244.136719 841.976562 M 1519.425781 842.023438 C 1518.558594 844.289062 1519.785156 845.113281 1524.699219 845.574219 C 1527.398438 845.824219 1530.433594 846.574219 1531.441406 847.234375 C 1535.0625 849.605469 1535.136719 850.476562 1535.300781 893.980469 C 1535.5 946.8125 1534.785156 960.113281 1531.589844 962.765625 C 1531.054688 963.207031 1528.53125 963.789062 1525.984375 964.054688 C 1521.089844 964.566406 1518.886719 966.273438 1520.933594 967.96875 C 1521.980469 968.835938 1573.929688 969.273438 1575.300781 968.425781 C 1576.464844 967.703125 1576.148438 965.929688 1574.722656 965.195312 C 1574.003906 964.820312 1571.125 964.34375 1568.328125 964.128906 C 1562.546875 963.6875 1560.789062 962.550781 1559.472656 958.410156 C 1558.929688 956.703125 1558.488281 946.324219 1558.273438 930.085938 L 1557.929688 904.457031 L 1621.667969 904.457031 L 1621.648438 920.359375 C 1621.625 938.949219 1620.617188 956.964844 1619.417969 960.332031 C 1618.433594 963.085938 1617.507812 963.570312 1612.019531 964.21875 C 1607.890625 964.707031 1605.570312 966.484375 1607.09375 967.996094 C 1607.53125 968.425781 1618.484375 968.785156 1634.242188 968.882812 C 1656.972656 969.019531 1660.816406 968.886719 1661.789062 967.910156 C 1663.761719 965.9375 1661.25 964.320312 1656.214844 964.320312 C 1653.667969 964.320312 1650.917969 963.792969 1649.347656 963.007812 C 1644.40625 960.539062 1644.503906 961.722656 1644.492188 904.082031 C 1644.488281 875.6875 1644.742188 851.53125 1645.058594 850.402344 C 1645.816406 847.6875 1648.371094 846.121094 1652.816406 845.636719 C 1657.9375 845.082031 1658.460938 844.820312 1658.191406 842.914062 L 1657.953125 841.226562 L 1606.332031 841.226562 L 1606.332031 843.074219 C 1606.332031 844.792969 1606.707031 844.976562 1611.78125 845.742188 C 1621.25 847.164062 1621.5625 848.144531 1621.628906 876.585938 L 1621.667969 893.234375 L 1557.957031 893.234375 L 1558.203125 872.09375 C 1558.46875 849.625 1558.605469 848.761719 1562.234375 846.816406 C 1563.121094 846.34375 1565.660156 845.734375 1567.882812 845.460938 C 1571.554688 845.011719 1571.917969 844.800781 1571.917969 843.097656 L 1571.917969 841.226562 L 1545.878906 841.089844 C 1523.847656 840.96875 1519.777344 841.113281 1519.425781 842.023438 M 1672.554688 841.957031 C 1670.914062 843.9375 1672.214844 845.097656 1676.652344 845.621094 C 1681.636719 846.207031 1684.84375 847.695312 1686.15625 850.027344 C 1686.859375 851.28125 1687.21875 861.339844 1687.582031 889.867188 C 1688.097656 930.320312 1688.328125 933.03125 1692.097656 943.105469 C 1696.882812 955.898438 1708.265625 965.867188 1722.429688 969.667969 C 1730.820312 971.921875 1748.914062 971.921875 1757.300781 969.671875 C 1766.226562 967.273438 1772.695312 963.511719 1778.570312 957.296875 C 1784.304688 951.238281 1786.839844 946.949219 1789.480469 938.867188 C 1792.40625 929.898438 1792.972656 921.949219 1793.214844 886.5 C 1793.410156 857.414062 1793.597656 852.84375 1794.683594 850.367188 C 1796.070312 847.207031 1799.421875 845.34375 1803.71875 845.34375 C 1806.867188 845.34375 1808.324219 843.898438 1807.003906 842.089844 C 1806.167969 840.949219 1803.953125 840.847656 1783.636719 841.027344 L 1761.191406 841.226562 L 1761.191406 843.074219 C 1761.191406 844.792969 1761.566406 844.976562 1766.648438 845.742188 C 1770.929688 846.386719 1772.539062 847 1774.128906 848.589844 L 1776.15625 850.617188 L 1776.15625 890.070312 C 1776.15625 925.511719 1776.015625 930.113281 1774.800781 935.292969 C 1771.96875 947.367188 1766.125 954.925781 1756.925781 958.417969 C 1752.914062 959.9375 1750.933594 960.199219 1743.609375 960.160156 C 1735.605469 960.121094 1734.660156 959.957031 1729.988281 957.792969 C 1720.59375 953.433594 1714.710938 945.128906 1712.105469 932.546875 C 1710.851562 926.5 1710.699219 922 1710.679688 890.019531 C 1710.664062 866.984375 1710.9375 853.199219 1711.453125 851.292969 C 1712.449219 847.589844 1714.507812 846.214844 1720.121094 845.515625 C 1724.179688 845.007812 1724.535156 844.8125 1724.535156 843.09375 L 1724.535156 841.226562 L 1699.011719 841.03125 C 1677.070312 840.863281 1673.355469 840.992188 1672.554688 841.957031 M 1144.902344 850.140625 C 1127.859375 855.183594 1117.714844 870.601562 1115.898438 894.222656 C 1113.929688 919.816406 1122.433594 941.265625 1139.21875 953.054688 C 1145.855469 957.71875 1151.128906 959.730469 1159.519531 960.796875 C 1171.808594 962.359375 1181.414062 959.433594 1189.515625 951.648438 C 1198.765625 942.765625 1203.335938 930.210938 1204.011719 911.839844 C 1204.757812 891.484375 1201.011719 877.191406 1191.679688 864.796875 C 1181.441406 851.207031 1161.945312 845.097656 1144.902344 850.140625 M 1859.371094 850.351562 C 1858.140625 850.671875 1858.066406 852.179688 1858.25 872.152344 L 1858.449219 893.609375 L 1865.929688 893.839844 C 1874.558594 894.105469 1878.042969 893.296875 1881.558594 890.210938 C 1885.699219 886.574219 1887.597656 881.300781 1887.613281 873.402344 C 1887.621094 867.703125 1887.328125 866.039062 1885.6875 862.554688 C 1883.394531 857.675781 1879.054688 853.117188 1874.90625 851.230469 C 1872.046875 849.925781 1862.964844 849.414062 1859.371094 850.351562 M 1283.347656 851.054688 C 1282.164062 851.402344 1282.042969 853.527344 1281.851562 876.636719 C 1281.738281 890.496094 1281.902344 902.414062 1282.214844 903.113281 C 1283.378906 905.722656 1297.582031 907.632812 1303.617188 905.988281 C 1308.609375 904.632812 1313.527344 899.296875 1315.761719 892.816406 C 1318.265625 885.566406 1318.277344 873.207031 1315.789062 866.890625 C 1313.675781 861.53125 1308.789062 856.039062 1303.601562 853.195312 C 1300.019531 851.230469 1298.816406 850.984375 1292.121094 850.839844 C 1288.003906 850.75 1284.058594 850.847656 1283.347656 851.054688 M 593.253906 878.472656 C 591.957031 881.859375 588.335938 891.21875 585.214844 899.277344 C 582.089844 907.335938 579.535156 914.269531 579.535156 914.683594 C 579.535156 915.660156 610.640625 916.050781 611.238281 915.078125 C 611.472656 914.699219 609.121094 907.355469 606.015625 898.761719 C 603.476562 891.746094 600.941406 884.726562 598.414062 877.707031 C 597.339844 874.722656 596.273438 872.289062 596.039062 872.300781 C 595.808594 872.3125 594.554688 875.089844 593.253906 878.472656 M 1858.078125 927.386719 C 1858.078125 950.746094 1858.152344 952.097656 1859.59375 954.457031 C 1863.816406 961.386719 1880.507812 962.59375 1888.746094 956.5625 C 1893.96875 952.742188 1896.457031 947.496094 1896.839844 939.5 C 1897.59375 923.851562 1891.238281 911.609375 1879.195312 905.511719 C 1875.367188 903.570312 1874 903.308594 1866.488281 903.070312 L 1858.074219 902.800781 Z M 830.183594 1003.582031 C 829.835938 1004.007812 829.503906 1017.0625 829.445312 1032.601562 L 829.335938 1060.847656 L 832.738281 1060.847656 C 835.886719 1060.847656 836.140625 1060.707031 836.140625 1058.941406 L 836.140625 1057.03125 L 838.8125 1059.070312 C 842.496094 1061.878906 848.179688 1062.355469 852.394531 1060.203125 C 859.445312 1056.605469 862.683594 1049.304688 862.195312 1038.117188 C 861.949219 1032.449219 861.515625 1030.433594 859.789062 1026.910156 C 855.449219 1018.039062 845.875 1015.253906 839.15625 1020.910156 L 836.886719 1022.820312 L 836.886719 1003.386719 L 833.851562 1003.097656 C 832.179688 1002.9375 830.53125 1003.15625 830.183594 1003.582031 M 975.730469 1003.5625 C 975.113281 1004.078125 974.898438 1005.589844 975.113281 1007.90625 L 975.441406 1011.460938 L 982.023438 1011.460938 L 982.023438 1003.394531 L 979.351562 1003.082031 C 977.882812 1002.910156 976.253906 1003.125 975.730469 1003.5625 M 1831.207031 1003.085938 C 1830.753906 1003.234375 1830.394531 1005.152344 1830.394531 1007.410156 C 1830.394531 1011.78125 1830.0625 1011.496094 1835.441406 1011.742188 C 1837.433594 1011.832031 1837.507812 1011.699219 1837.726562 1007.535156 C 1837.886719 1004.410156 1837.683594 1003.214844 1836.976562 1003.171875 C 1836.441406 1003.136719 1835.109375 1003.042969 1834.011719 1002.960938 C 1832.917969 1002.878906 1831.65625 1002.933594 1831.207031 1003.085938 M 193.5 1003.40625 L 193.4375 1032.039062 L 193.375 1060.472656 L 212.515625 1060.675781 L 231.65625 1060.875 L 231.65625 1053.367188 L 200.984375 1053.367188 L 200.984375 1034.285156 L 228.664062 1034.722656 L 228.664062 1027.175781 L 200.984375 1027.175781 L 200.984375 1010.714844 L 230.160156 1010.714844 L 230.25 1009.03125 L 230.4375 1005.476562 L 230.535156 1003.605469 L 212.019531 1003.40625 C 201.835938 1003.292969 193.503906 1003.292969 193.5 1003.40625 M 301.980469 1012.988281 L 301.980469 1022.746094 L 299.921875 1020.828125 C 292.574219 1013.980469 280.496094 1019.523438 277.148438 1031.285156 C 276.027344 1035.21875 276.066406 1044.113281 277.21875 1048.230469 C 278.484375 1052.746094 282.6875 1058.269531 286.234375 1060.082031 C 291.140625 1062.585938 297.347656 1061.890625 301.046875 1058.421875 L 302.730469 1056.847656 L 302.730469 1058.890625 C 302.730469 1060.832031 302.890625 1060.921875 305.890625 1060.703125 L 309.050781 1060.472656 L 309.175781 1031.851562 L 309.304688 1003.230469 L 301.980469 1003.230469 Z M 417.878906 1003.542969 C 417.707031 1003.714844 417.65625 1016.675781 417.769531 1032.351562 L 417.976562 1060.847656 L 456.09375 1060.847656 L 456.09375 1053.367188 L 425.375 1053.367188 L 425.585938 1043.960938 L 425.796875 1034.558594 L 452.726562 1034.285156 L 452.957031 1030.730469 L 453.183594 1027.175781 L 425.421875 1027.175781 L 425.421875 1010.714844 L 454.597656 1010.714844 L 454.597656 1003.230469 L 436.394531 1003.230469 C 426.382812 1003.230469 418.050781 1003.371094 417.878906 1003.542969 M 527.164062 1013.089844 L 527.164062 1022.945312 L 525.480469 1021.414062 C 522.804688 1018.972656 520.773438 1018.195312 517.085938 1018.195312 C 508.054688 1018.195312 501.84375 1025.796875 501.140625 1037.714844 C 500.589844 1047.003906 503.300781 1053.941406 509.390625 1058.847656 C 513.296875 1061.988281 519.023438 1062.484375 523.355469 1060.050781 C 525.039062 1059.101562 526.453125 1057.96875 526.492188 1057.53125 C 526.535156 1057.09375 526.800781 1057.574219 527.082031 1058.605469 C 527.515625 1060.164062 528.117188 1060.511719 530.75 1060.703125 L 533.898438 1060.933594 L 533.898438 1003.230469 L 527.164062 1003.230469 Z M 563.074219 1032.097656 L 563.074219 1060.964844 L 591.253906 1060.472656 L 594.890625 1058.222656 C 599.742188 1055.222656 602.234375 1050.507812 602.175781 1044.449219 C 602.125 1038.707031 599.980469 1033.898438 596.519531 1031.761719 L 593.867188 1030.121094 L 595.71875 1028.265625 C 602.6875 1021.296875 600.273438 1008.867188 591.128906 1004.644531 C 588.605469 1003.476562 586.1875 1003.261719 575.605469 1003.246094 L 563.074219 1003.230469 Z M 687.894531 1022.125 C 687.828125 1032.515625 687.699219 1044.835938 687.609375 1049.503906 C 687.382812 1060.707031 687.429688 1060.847656 691.378906 1060.847656 C 694.246094 1060.847656 694.609375 1060.644531 694.953125 1058.84375 C 695.164062 1057.742188 695.207031 1054.058594 695.050781 1050.660156 C 694.78125 1044.871094 694.886719 1044.332031 696.730469 1042.140625 C 697.808594 1040.855469 698.953125 1040.078125 699.273438 1040.414062 C 699.589844 1040.746094 702.066406 1044.890625 704.773438 1049.625 C 707.480469 1054.355469 709.988281 1058.734375 710.339844 1059.351562 C 710.964844 1060.441406 719.433594 1061.492188 719.433594 1060.476562 C 719.433594 1060.234375 716.050781 1054.328125 711.917969 1047.359375 C 705.957031 1037.304688 704.554688 1034.414062 705.132812 1033.363281 C 705.535156 1032.636719 708.578125 1029.355469 711.898438 1026.070312 C 715.21875 1022.789062 717.9375 1019.84375 717.9375 1019.523438 C 717.9375 1019.207031 716 1018.945312 713.636719 1018.949219 L 709.332031 1018.953125 L 702.226562 1026.679688 L 695.117188 1034.40625 L 694.917969 1018.816406 L 694.714844 1003.230469 L 688.011719 1003.230469 Z M 744.203125 1032.039062 L 744.257812 1060.847656 L 752.421875 1060.847656 L 751.976562 1037.832031 L 761.703125 1037.480469 C 771.96875 1037.113281 775.703125 1036.140625 779.183594 1032.9375 C 785.371094 1027.25 785.363281 1012.878906 779.171875 1007.183594 C 775.625 1003.921875 771.839844 1003.230469 757.507812 1003.230469 L 744.152344 1003.230469 Z M 869.058594 1032.039062 L 869.058594 1060.847656 L 872.34375 1060.847656 C 875.492188 1060.847656 875.636719 1060.75 875.894531 1058.417969 C 876.042969 1057.078125 876.070312 1044.117188 875.957031 1029.609375 L 875.753906 1003.230469 L 869.058594 1003.230469 Z M 884.914062 1007.160156 L 885.140625 1011.085938 L 888.695312 1011.316406 L 892.25 1011.542969 L 892.25 1003.230469 L 884.6875 1003.230469 Z M 936.386719 1032.039062 L 936.386719 1060.847656 L 943.121094 1060.847656 L 943.125 1047.566406 C 943.128906 1040.261719 943.472656 1033.042969 943.894531 1031.527344 C 945.574219 1025.476562 952.65625 1022.910156 957.105469 1026.734375 L 959.207031 1028.539062 L 959.433594 1044.734375 L 959.664062 1060.925781 L 966.6875 1060.472656 L 966.582031 1050 C 966.332031 1025.410156 966.441406 1026.835938 964.613281 1024.125 C 959.941406 1017.191406 950.859375 1016.132812 944.429688 1021.769531 C 943.191406 1022.855469 943.121094 1022.386719 943.121094 1013.074219 L 943.121094 1003.230469 L 936.386719 1003.230469 Z M 1107.65625 1003.792969 C 1107.628906 1004.101562 1107.628906 1016.980469 1107.652344 1032.414062 L 1107.699219 1060.472656 L 1120.609375 1060.472656 C 1132.4375 1060.472656 1133.773438 1060.339844 1136.5625 1058.84375 C 1145.601562 1054.003906 1150.136719 1042.085938 1148.78125 1026.734375 C 1148.089844 1018.910156 1145.804688 1013.054688 1141.84375 1008.984375 C 1137.085938 1004.085938 1133.773438 1003.230469 1119.542969 1003.230469 C 1113.035156 1003.230469 1107.683594 1003.484375 1107.65625 1003.792969 M 1156.335938 1007.347656 L 1156.335938 1011.460938 L 1162.925781 1011.460938 L 1163.183594 1007.65625 C 1163.328125 1005.566406 1163.304688 1003.714844 1163.132812 1003.542969 C 1162.960938 1003.371094 1161.359375 1003.230469 1159.578125 1003.230469 L 1156.335938 1003.230469 Z M 1249.851562 1007.347656 L 1249.851562 1011.460938 L 1256.585938 1011.460938 L 1256.585938 1003.230469 L 1249.851562 1003.230469 Z M 1265.132812 1004.226562 C 1264.921875 1004.777344 1264.90625 1015.972656 1265.101562 1029.109375 C 1265.292969 1042.242188 1265.476562 1054.777344 1265.503906 1056.960938 L 1265.5625 1060.933594 L 1268.710938 1060.703125 C 1271.367188 1060.511719 1271.929688 1060.179688 1272.300781 1058.605469 C 1272.675781 1057 1272.8125 1056.921875 1273.253906 1058.074219 C 1274.359375 1060.949219 1281.765625 1062.503906 1286.273438 1060.804688 C 1289.128906 1059.726562 1293.035156 1055.875 1294.953125 1052.242188 C 1297.09375 1048.191406 1297.710938 1034.886719 1295.992188 1029.847656 C 1293.335938 1022.039062 1287.691406 1017.789062 1280.75 1018.363281 C 1277.640625 1018.621094 1276.253906 1019.171875 1274.523438 1020.832031 L 1272.292969 1022.964844 L 1272.292969 1003.230469 L 1268.90625 1003.230469 C 1266.769531 1003.230469 1265.375 1003.601562 1265.132812 1004.226562 M 1361.46875 1007.160156 L 1361.695312 1011.085938 L 1365.25 1011.316406 L 1368.800781 1011.542969 L 1368.800781 1003.230469 L 1361.242188 1003.230469 Z M 1574.535156 1013.035156 L 1574.535156 1022.839844 L 1571.890625 1020.519531 C 1570.4375 1019.242188 1568.5 1018.148438 1567.589844 1018.085938 C 1558.222656 1017.472656 1552.691406 1021.785156 1550.160156 1031.664062 C 1547.855469 1040.660156 1549.6875 1051 1554.628906 1056.871094 C 1558.703125 1061.71875 1567.246094 1062.945312 1572.222656 1059.402344 C 1574.527344 1057.757812 1574.535156 1057.757812 1574.535156 1059.300781 C 1574.535156 1060.636719 1574.996094 1060.847656 1577.902344 1060.847656 L 1581.269531 1060.847656 L 1581.269531 1003.230469 L 1574.535156 1003.230469 Z M 1609.699219 1032.039062 L 1609.699219 1060.847656 L 1617.15625 1060.847656 L 1617.355469 1038.421875 L 1617.554688 1015.992188 L 1621.148438 1027.757812 C 1623.449219 1035.257812 1625.789062 1042.746094 1628.167969 1050.222656 L 1631.59375 1060.921875 L 1634.953125 1060.699219 L 1638.316406 1060.472656 L 1640.394531 1053.738281 C 1641.539062 1050.035156 1644.679688 1039.933594 1647.378906 1031.292969 L 1652.28125 1015.578125 L 1652.3125 1038.214844 L 1652.339844 1060.847656 L 1659.820312 1060.847656 L 1659.820312 1003.230469 L 1654.941406 1003.230469 C 1650.304688 1003.230469 1650.019531 1003.332031 1649.277344 1005.289062 C 1647.753906 1009.285156 1636.65625 1044.792969 1636.179688 1047.191406 C 1635.914062 1048.53125 1635.484375 1049.625 1635.226562 1049.621094 C 1634.96875 1049.621094 1633.316406 1044.488281 1631.554688 1038.210938 C 1629.792969 1031.9375 1626.621094 1021.496094 1624.507812 1015.015625 L 1620.664062 1003.230469 L 1609.699219 1003.230469 Z M 1733.136719 1032.039062 L 1733.136719 1060.847656 L 1740.617188 1060.847656 L 1740.617188 1051.921875 C 1740.617188 1043.152344 1740.652344 1042.972656 1742.609375 1041.433594 L 1744.597656 1039.867188 L 1748.65625 1046.804688 C 1750.886719 1050.617188 1753.609375 1055.339844 1754.707031 1057.292969 L 1756.703125 1060.847656 L 1765.371094 1060.847656 L 1763.320312 1057.292969 C 1762.195312 1055.339844 1758.664062 1049.390625 1755.472656 1044.078125 L 1749.671875 1034.417969 L 1756.855469 1026.867188 L 1764.039062 1019.320312 L 1759.621094 1019.074219 L 1755.207031 1018.832031 L 1740.660156 1034.285156 L 1740.640625 1018.757812 L 1740.617188 1003.230469 L 1733.136719 1003.230469 Z M 1814.527344 1006 L 1811.003906 1007.9375 L 1810.785156 1013.25 C 1810.570312 1018.503906 1810.542969 1018.566406 1808.324219 1018.945312 C 1806.332031 1019.289062 1806.078125 1019.628906 1806.078125 1021.945312 C 1806.078125 1024.34375 1806.277344 1024.574219 1808.511719 1024.789062 L 1810.941406 1025.027344 L 1810.941406 1039.980469 C 1810.941406 1056.8125 1811.386719 1058.675781 1815.832031 1060.535156 C 1818.757812 1061.757812 1821.316406 1061.882812 1823.824219 1060.925781 C 1825.351562 1060.347656 1825.546875 1059.855469 1825.296875 1057.226562 C 1825.011719 1054.257812 1824.941406 1054.1875 1821.902344 1053.964844 L 1818.796875 1053.738281 L 1818.390625 1025.019531 L 1821.585938 1024.789062 C 1824.695312 1024.5625 1824.78125 1024.488281 1824.78125 1021.9375 C 1824.78125 1019.394531 1824.691406 1019.3125 1821.628906 1019.089844 L 1818.476562 1018.859375 L 1818.261719 1011.460938 L 1818.050781 1004.058594 Z M 342.003906 1006.410156 C 338.808594 1008.738281 338.664062 1009.074219 338.648438 1014.269531 L 338.640625 1018.945312 L 336.394531 1018.945312 C 334.28125 1018.945312 334.148438 1019.117188 334.148438 1021.890625 C 334.148438 1024.632812 334.308594 1024.851562 336.460938 1025.070312 L 338.773438 1025.304688 L 338.679688 1039.25 C 338.566406 1055.53125 339.3125 1058.773438 343.59375 1060.5625 C 347.878906 1062.351562 353.972656 1061.464844 353.261719 1059.152344 C 353.105469 1058.644531 352.777344 1057.304688 352.527344 1056.171875 C 352.167969 1054.527344 351.65625 1054.113281 349.996094 1054.113281 C 346.304688 1054.113281 346.121094 1053.378906 346.121094 1038.625 L 346.121094 1024.929688 L 352.105469 1024.929688 L 352.105469 1018.945312 L 346.121094 1018.945312 L 346.121094 1011.835938 C 346.121094 1004.003906 345.832031 1003.621094 342.003906 1006.410156 M 1210.753906 1006.71875 C 1207.988281 1008.683594 1207.957031 1008.769531 1207.957031 1013.828125 L 1207.957031 1018.945312 L 1205.710938 1018.945312 C 1203.59375 1018.945312 1203.46875 1019.109375 1203.46875 1021.9375 C 1203.46875 1024.765625 1203.59375 1024.929688 1205.710938 1024.929688 L 1207.957031 1024.929688 L 1207.957031 1039.546875 C 1207.957031 1056.402344 1208.484375 1058.710938 1212.769531 1060.5 C 1215.765625 1061.753906 1218.695312 1061.90625 1220.5625 1060.90625 C 1221.539062 1060.386719 1221.777344 1059.488281 1221.554688 1057.167969 C 1221.28125 1054.261719 1221.144531 1054.113281 1218.769531 1054.113281 C 1217.398438 1054.113281 1216.105469 1053.839844 1215.898438 1053.507812 C 1215.695312 1053.175781 1215.460938 1046.695312 1215.382812 1039.105469 L 1215.238281 1025.304688 L 1218.332031 1025.074219 C 1221.382812 1024.847656 1221.421875 1024.808594 1221.421875 1021.9375 C 1221.421875 1019.058594 1221.394531 1019.027344 1218.269531 1018.800781 L 1215.117188 1018.570312 L 1215.339844 1011.648438 C 1215.59375 1003.785156 1215.304688 1003.476562 1210.753906 1006.71875 M 1346.203125 1006.445312 C 1343.46875 1008.070312 1343.425781 1008.167969 1343.210938 1013.332031 C 1343 1018.429688 1342.9375 1018.578125 1340.933594 1018.808594 C 1339.078125 1019.019531 1338.878906 1019.332031 1338.878906 1021.988281 C 1338.878906 1024.746094 1339.015625 1024.929688 1341.082031 1024.929688 L 1343.285156 1024.929688 L 1343.511719 1040.941406 C 1343.71875 1055.34375 1343.882812 1057.109375 1345.140625 1058.5 C 1347.042969 1060.601562 1351.152344 1061.847656 1354.261719 1061.261719 C 1356.734375 1060.800781 1356.832031 1060.652344 1356.832031 1057.449219 C 1356.832031 1054.175781 1356.785156 1054.113281 1354.363281 1054.113281 C 1353.003906 1054.113281 1351.492188 1053.710938 1350.996094 1053.214844 C 1350.363281 1052.582031 1350.097656 1048.277344 1350.097656 1038.625 L 1350.097656 1024.929688 L 1356.832031 1024.929688 L 1356.832031 1021.9375 C 1356.832031 1020.089844 1356.472656 1018.910156 1355.898438 1018.851562 C 1355.382812 1018.800781 1353.953125 1018.714844 1352.71875 1018.664062 L 1350.472656 1018.570312 L 1350.257812 1011.648438 C 1350.140625 1007.839844 1349.804688 1004.742188 1349.511719 1004.761719 C 1349.21875 1004.777344 1347.730469 1005.535156 1346.203125 1006.445312 M 570.71875 1018.757812 L 570.929688 1026.800781 L 578.992188 1026.730469 C 589.996094 1026.636719 592.253906 1025.167969 592.253906 1018.105469 C 592.253906 1015.769531 591.757812 1014.59375 590.066406 1012.902344 C 587.898438 1010.734375 587.796875 1010.714844 579.191406 1010.714844 L 570.503906 1010.714844 Z M 752.351562 1019.691406 C 752.351562 1024.632812 752.433594 1028.925781 752.539062 1029.234375 C 752.890625 1030.292969 769.941406 1029.871094 772.03125 1028.75 C 775.875 1026.691406 777.496094 1019.703125 775.171875 1015.210938 C 773.105469 1011.210938 771.597656 1010.714844 761.535156 1010.714844 L 752.351562 1010.714844 Z M 1115.1875 1032.039062 L 1115.1875 1053.367188 L 1122.320312 1053.367188 C 1133.152344 1053.367188 1137.125 1051.199219 1139.894531 1043.789062 C 1141.082031 1040.621094 1141.425781 1037.914062 1141.433594 1031.753906 C 1141.441406 1020.53125 1139.492188 1015.445312 1133.984375 1012.351562 C 1131.496094 1010.953125 1129.914062 1010.714844 1123.128906 1010.714844 L 1115.1875 1010.714844 Z M 619.109375 1018.964844 C 610.78125 1021.769531 606.78125 1029.398438 607.355469 1041.390625 C 607.933594 1053.550781 613.511719 1060.769531 622.84375 1061.445312 C 628.175781 1061.832031 631.910156 1060.703125 635.378906 1057.660156 C 640.15625 1053.460938 641.652344 1049.089844 641.699219 1039.164062 C 641.722656 1033.9375 641.386719 1031.707031 640.144531 1028.894531 C 636.15625 1019.875 627.929688 1015.992188 619.109375 1018.964844 M 660.332031 1018.300781 C 655.292969 1019.242188 651.359375 1022.386719 648.738281 1027.582031 C 646.671875 1031.679688 646.496094 1032.648438 646.535156 1039.523438 C 646.570312 1045.648438 646.890625 1047.71875 648.308594 1050.929688 C 651.511719 1058.195312 657.699219 1062.070312 665.089844 1061.441406 C 675.675781 1060.542969 681.277344 1052.945312 681.277344 1039.496094 C 681.277344 1029.664062 677.847656 1022.863281 671.367188 1019.84375 C 667.230469 1017.914062 664.464844 1017.527344 660.332031 1018.300781 M 910.855469 1018.277344 C 906.550781 1018.921875 904.902344 1019.789062 902.460938 1022.691406 C 896.648438 1029.597656 900.265625 1038.816406 909.902344 1041.679688 C 918.1875 1044.140625 920.738281 1045.28125 921.890625 1047.042969 C 925.695312 1052.847656 914.585938 1057.824219 908.765625 1052.925781 C 907.5 1051.859375 906.457031 1050.429688 906.453125 1049.746094 C 906.429688 1047.140625 905.296875 1046.441406 902 1047 L 898.84375 1047.535156 L 899.335938 1050.261719 C 900.050781 1054.199219 902.898438 1058.152344 906.210938 1059.796875 C 910.058594 1061.707031 919.210938 1061.769531 922.921875 1059.910156 C 930.113281 1056.304688 931.949219 1044.949219 926.179688 1039.773438 C 924.902344 1038.628906 920.722656 1036.839844 911.476562 1033.484375 C 907.554688 1032.0625 906.308594 1030.550781 906.96875 1028.015625 C 908.347656 1022.746094 920.082031 1023.261719 921.15625 1028.640625 C 921.640625 1031.046875 922.050781 1031.203125 925.902344 1030.433594 C 928.148438 1029.984375 928.292969 1029.777344 927.921875 1027.5 C 926.824219 1020.734375 919.800781 1016.9375 910.855469 1018.277344 M 1180.015625 1018.238281 C 1174.222656 1019.671875 1170.5625 1024.089844 1170.554688 1029.65625 C 1170.546875 1036.640625 1173.101562 1039.257812 1182.863281 1042.261719 C 1191.558594 1044.933594 1192.992188 1045.933594 1192.992188 1049.3125 C 1192.992188 1052.773438 1190.164062 1054.863281 1185.46875 1054.863281 C 1181.191406 1054.863281 1177.679688 1052.378906 1176.894531 1048.800781 C 1176.410156 1046.597656 1176.292969 1046.539062 1173.285156 1047.039062 C 1169.089844 1047.730469 1169.109375 1047.710938 1169.960938 1051.074219 C 1171 1055.175781 1175.003906 1059.628906 1178.621094 1060.710938 C 1191.230469 1064.492188 1202.238281 1056.640625 1200.125 1045.375 C 1199.285156 1040.898438 1195.898438 1038.234375 1187.476562 1035.433594 C 1179.898438 1032.914062 1177.285156 1031.207031 1177.285156 1028.789062 C 1177.285156 1025.425781 1183.160156 1023.289062 1188.007812 1024.890625 C 1190.058594 1025.566406 1190.863281 1026.371094 1191.539062 1028.421875 C 1192.398438 1031.023438 1192.484375 1031.070312 1195.480469 1030.589844 C 1197.167969 1030.320312 1198.675781 1029.972656 1198.835938 1029.8125 C 1198.992188 1029.65625 1198.890625 1028.484375 1198.613281 1027.210938 C 1198 1024.421875 1195.066406 1020.777344 1192.273438 1019.332031 C 1189.511719 1017.90625 1183.527344 1017.371094 1180.015625 1018.238281 M 1486.183594 1018.21875 C 1482.25 1018.871094 1478.945312 1020.414062 1477.179688 1022.421875 C 1475.386719 1024.464844 1473.539062 1028.378906 1473.539062 1030.132812 C 1473.539062 1031.441406 1474.011719 1031.664062 1476.753906 1031.664062 C 1479.769531 1031.664062 1480.035156 1031.496094 1480.945312 1028.976562 C 1481.628906 1027.078125 1482.65625 1025.980469 1484.4375 1025.234375 C 1491.277344 1022.378906 1497.324219 1025.8125 1496.601562 1032.144531 C 1496.363281 1034.234375 1496.164062 1034.324219 1488.203125 1035.941406 C 1483 1037 1479.050781 1038.261719 1477.285156 1039.429688 C 1469.9375 1044.292969 1470.441406 1055.746094 1478.199219 1060.105469 C 1480.75 1061.539062 1481.953125 1061.730469 1486.410156 1061.410156 C 1490.675781 1061.105469 1492.230469 1060.617188 1494.886719 1058.746094 L 1498.136719 1056.453125 L 1498.371094 1058.464844 C 1498.582031 1060.300781 1498.914062 1060.496094 1502.253906 1060.707031 C 1505.539062 1060.914062 1505.84375 1060.804688 1505.292969 1059.582031 C 1504.960938 1058.839844 1504.488281 1050.988281 1504.246094 1042.140625 C 1503.753906 1024.035156 1503.394531 1022.660156 1498.488281 1019.96875 C 1495 1018.050781 1490.789062 1017.453125 1486.183594 1018.21875 M 1683.011719 1017.945312 C 1677.671875 1018.667969 1675.917969 1019.308594 1673.519531 1021.414062 C 1670.699219 1023.890625 1667.628906 1029.628906 1668.429688 1030.925781 C 1668.679688 1031.332031 1670.210938 1031.664062 1671.824219 1031.664062 C 1674.464844 1031.664062 1674.871094 1031.40625 1675.835938 1029.09375 C 1677.257812 1025.699219 1680.746094 1023.902344 1684.996094 1024.378906 C 1689.707031 1024.910156 1691.75 1026.53125 1692.375 1030.230469 C 1692.992188 1033.878906 1692.472656 1034.394531 1687.503906 1035.074219 C 1685.652344 1035.328125 1681.53125 1036.214844 1678.34375 1037.046875 C 1673.707031 1038.257812 1672.113281 1039.0625 1670.335938 1041.089844 C 1664.652344 1047.5625 1666.226562 1056.828125 1673.574219 1060.164062 C 1679.070312 1062.664062 1687.683594 1061.378906 1692.066406 1057.414062 C 1693.167969 1056.414062 1693.335938 1056.527344 1693.742188 1058.578125 C 1694.179688 1060.753906 1694.359375 1060.847656 1698.042969 1060.847656 C 1701.699219 1060.847656 1701.863281 1060.765625 1701.332031 1059.164062 C 1701.023438 1058.238281 1700.5625 1050.578125 1700.308594 1042.140625 C 1699.789062 1024.972656 1699.261719 1023.054688 1694.230469 1020.113281 C 1691.886719 1018.746094 1685.796875 1017.570312 1683.011719 1017.945312 M 250.734375 1019.679688 C 249.40625 1020.554688 248.097656 1021.457031 246.808594 1022.386719 C 245.15625 1023.589844 245.125 1023.570312 245.125 1021.28125 C 245.125 1019.054688 244.984375 1018.945312 242.132812 1018.945312 L 239.140625 1018.945312 L 239.140625 1060.929688 L 242.5 1060.703125 L 245.859375 1060.472656 L 246.082031 1046.632812 C 246.371094 1028.597656 247.417969 1025.910156 254.460938 1025.117188 C 258.742188 1024.632812 261.234375 1026.183594 262.289062 1029.976562 C 262.71875 1031.523438 263.070312 1039.101562 263.074219 1046.816406 L 263.078125 1060.847656 L 269.890625 1060.847656 L 269.664062 1043.316406 C 269.414062 1023.824219 269.367188 1023.648438 263.835938 1019.878906 C 260.550781 1017.644531 253.980469 1017.542969 250.734375 1019.679688 M 365.945312 1019.613281 C 362.085938 1021.402344 359.339844 1024.375 357.230469 1029.046875 C 354.792969 1034.453125 354.824219 1045.335938 357.292969 1050.9375 C 360.261719 1057.675781 366.058594 1061.597656 373.050781 1061.597656 C 380.050781 1061.597656 385.855469 1057.667969 388.796875 1050.9375 C 391.039062 1045.816406 391.292969 1035.421875 389.320312 1029.792969 C 385.9375 1020.140625 375.050781 1015.398438 365.945312 1019.613281 M 475.917969 1019.234375 C 474.683594 1019.773438 473.210938 1020.769531 472.648438 1021.449219 C 471.242188 1023.140625 470.457031 1023 470.171875 1021.003906 C 469.976562 1019.601562 469.398438 1019.28125 466.753906 1019.089844 L 463.574219 1018.859375 L 463.574219 1060.847656 L 471.054688 1060.847656 L 471.054688 1046.558594 C 471.054688 1034.878906 471.28125 1031.792969 472.28125 1029.6875 C 473.707031 1026.679688 476.65625 1024.929688 480.308594 1024.929688 C 487.019531 1024.929688 487.515625 1026.34375 487.515625 1045.472656 L 487.515625 1060.847656 L 490.882812 1060.847656 C 493.871094 1060.847656 494.25 1060.660156 494.257812 1059.164062 C 494.265625 1058.238281 494.480469 1053.097656 494.738281 1047.738281 C 495.605469 1029.6875 494.273438 1023.910156 488.320312 1019.898438 C 485.414062 1017.9375 479.605469 1017.625 475.917969 1019.234375 M 1001.847656 1019.574219 C 1000.613281 1020.328125 999.140625 1021.507812 998.578125 1022.191406 C 997.046875 1024.046875 996.238281 1023.703125 996.238281 1021.191406 C 996.238281 1019.070312 996.070312 1018.945312 993.246094 1018.945312 L 990.253906 1018.945312 L 990.253906 1060.847656 L 997.734375 1060.847656 L 997.734375 1047.472656 C 997.734375 1031.832031 997.992188 1030.105469 1000.75 1027.148438 C 1002.453125 1025.328125 1003.421875 1024.929688 1006.179688 1024.929688 C 1013.179688 1024.929688 1014.109375 1027.574219 1014.160156 1047.566406 L 1014.191406 1060.847656 L 1020.925781 1060.847656 L 1020.925781 1044.542969 C 1020.925781 1029.125 1020.835938 1028.0625 1019.242188 1024.910156 C 1016.886719 1020.242188 1013.542969 1018.195312 1008.285156 1018.199219 C 1005.539062 1018.199219 1003.320312 1018.675781 1001.847656 1019.574219 M 1037.011719 1019.257812 C 1033.898438 1020.644531 1031.039062 1023.882812 1029.023438 1028.296875 C 1027.609375 1031.390625 1027.3125 1033.339844 1027.300781 1039.523438 C 1027.285156 1046.222656 1027.503906 1047.453125 1029.382812 1051.277344 C 1032.414062 1057.449219 1036.335938 1060.339844 1042.183594 1060.699219 C 1046.316406 1060.957031 1047.03125 1060.769531 1049.921875 1058.660156 L 1053.109375 1056.339844 L 1052.625 1060.652344 C 1052.359375 1063.023438 1051.660156 1065.917969 1051.070312 1067.082031 C 1048.769531 1071.644531 1040.191406 1072.625 1036.824219 1068.710938 C 1035.898438 1067.632812 1035.140625 1066.308594 1035.140625 1065.765625 C 1035.140625 1064.875 1032.078125 1063.839844 1029.4375 1063.839844 C 1027.871094 1063.839844 1028.15625 1069.03125 1029.878906 1071.855469 C 1031.792969 1074.996094 1036.585938 1077.378906 1041.976562 1077.867188 C 1049.925781 1078.589844 1057.3125 1073.476562 1059.019531 1066.070312 C 1059.453125 1064.1875 1059.800781 1053.144531 1059.808594 1040.832031 L 1059.828125 1018.945312 L 1056.460938 1018.945312 C 1053.308594 1018.945312 1053.09375 1019.074219 1053.09375 1020.945312 L 1053.09375 1022.945312 L 1051.410156 1021.371094 C 1048.007812 1018.179688 1041.542969 1017.234375 1037.011719 1019.257812 M 1228.53125 1018.898438 L 1226.285156 1019.332031 L 1226.054688 1040.089844 L 1225.820312 1060.847656 L 1233.390625 1060.847656 L 1233.398438 1047.566406 C 1233.402344 1033.105469 1233.933594 1029.828125 1236.714844 1027.214844 C 1238.277344 1025.75 1239.035156 1025.570312 1241.863281 1025.996094 C 1245.519531 1026.542969 1246.109375 1025.972656 1246.109375 1021.902344 C 1246.109375 1019.292969 1244.378906 1018.195312 1240.253906 1018.195312 C 1237.304688 1018.195312 1235.917969 1019.132812 1233.039062 1023.058594 C 1232.003906 1024.472656 1231.941406 1024.40625 1231.921875 1021.792969 C 1231.890625 1018.589844 1231.5625 1018.3125 1228.53125 1018.898438 M 1385.207031 1019.675781 C 1377.933594 1023.519531 1374.367188 1031.171875 1374.941406 1041.699219 C 1375.613281 1054.027344 1382.222656 1061.5625 1392.367188 1061.5625 C 1399.292969 1061.5625 1404.640625 1057.816406 1407.800781 1050.746094 C 1409.996094 1045.835938 1410.222656 1035.386719 1408.25 1029.746094 C 1406.84375 1025.707031 1403.003906 1021.441406 1398.953125 1019.402344 C 1395.648438 1017.738281 1388.605469 1017.878906 1385.207031 1019.675781 M 1427.53125 1019.191406 C 1426.292969 1019.753906 1424.824219 1020.769531 1424.257812 1021.449219 C 1422.792969 1023.214844 1421.917969 1022.976562 1421.917969 1020.816406 C 1421.917969 1019.132812 1421.621094 1018.945312 1418.925781 1018.945312 L 1415.933594 1018.945312 L 1415.933594 1060.847656 L 1422.667969 1060.847656 L 1422.679688 1051.308594 C 1422.703125 1033.742188 1423.636719 1028.679688 1427.316406 1026.097656 C 1429.859375 1024.320312 1434.183594 1024.613281 1436.652344 1026.734375 L 1438.75 1028.539062 L 1438.980469 1044.695312 L 1439.207031 1060.847656 L 1445.859375 1060.847656 L 1445.859375 1043.75 C 1445.859375 1027.246094 1445.800781 1026.5625 1444.175781 1024.175781 C 1441.441406 1020.15625 1438.878906 1018.695312 1434.085938 1018.417969 C 1431.519531 1018.273438 1428.867188 1018.585938 1427.53125 1019.191406 M 1523.742188 1019.707031 C 1522.34375 1020.582031 1520.722656 1021.78125 1520.136719 1022.367188 C 1518.6875 1023.816406 1518.636719 1023.765625 1519.023438 1021.140625 C 1519.359375 1018.855469 1519.351562 1018.851562 1516.085938 1019.085938 L 1512.816406 1019.320312 L 1512.601562 1040.082031 L 1512.386719 1060.847656 L 1519.921875 1060.847656 L 1519.921875 1046.605469 C 1519.921875 1031.292969 1520.453125 1028.460938 1523.75 1026.152344 C 1525.785156 1024.726562 1530.992188 1024.574219 1532.707031 1025.890625 C 1535.335938 1027.910156 1535.632812 1029.894531 1535.632812 1045.5 L 1535.632812 1060.929688 L 1539.1875 1060.703125 L 1542.742188 1060.472656 L 1542.742188 1044.011719 C 1542.742188 1028.816406 1542.621094 1027.320312 1541.191406 1024.597656 C 1538.878906 1020.1875 1536.40625 1018.683594 1530.949219 1018.378906 C 1527.179688 1018.164062 1525.792969 1018.421875 1523.742188 1019.707031 M 1718.855469 1019.15625 C 1718.199219 1019.65625 1717.121094 1021.078125 1716.453125 1022.3125 L 1715.242188 1024.554688 L 1715.210938 1021.75 C 1715.183594 1018.980469 1715.144531 1018.945312 1712.191406 1018.945312 L 1709.199219 1018.945312 L 1709.121094 1024.742188 C 1709.046875 1031.664062 1708.984375 1038.585938 1708.9375 1045.507812 L 1708.824219 1060.472656 L 1712.378906 1060.703125 L 1715.929688 1060.929688 L 1715.929688 1048.125 C 1715.929688 1041.082031 1716.308594 1033.816406 1716.773438 1031.976562 C 1718.097656 1026.707031 1721.289062 1024.867188 1725.792969 1026.765625 C 1726.71875 1027.15625 1727.363281 1026.695312 1728.222656 1025.027344 C 1729.898438 1021.792969 1729.683594 1020.0625 1727.492188 1019.066406 C 1725.027344 1017.941406 1720.375 1017.988281 1718.855469 1019.15625 M 1778.355469 1019.605469 C 1771.621094 1022.667969 1767.550781 1030.472656 1767.550781 1040.328125 C 1767.550781 1047.707031 1769.5625 1053.019531 1773.859375 1056.980469 C 1780.976562 1063.542969 1792.570312 1063.164062 1798.710938 1056.167969 C 1800.792969 1053.796875 1803.296875 1048.40625 1802.601562 1047.796875 C 1802.457031 1047.671875 1800.777344 1047.34375 1798.871094 1047.066406 C 1795.5625 1046.589844 1795.367188 1046.660156 1794.648438 1048.65625 C 1792.941406 1053.402344 1789.355469 1055.375 1783.777344 1054.625 C 1780.050781 1054.125 1777.027344 1051.167969 1775.832031 1046.855469 C 1774.410156 1041.75 1774.421875 1041.738281 1780.453125 1042.027344 C 1783.4375 1042.171875 1789.710938 1042.050781 1794.390625 1041.761719 L 1802.902344 1041.234375 L 1802.542969 1036.261719 C 1802.15625 1030.871094 1799.703125 1025.046875 1796.605469 1022.160156 C 1792.320312 1018.167969 1784.070312 1017.011719 1778.355469 1019.605469 M 1858.074219 1019.742188 C 1856.632812 1020.636719 1855.183594 1021.835938 1854.855469 1022.402344 C 1853.882812 1024.082031 1853.042969 1023.582031 1853.128906 1021.375 C 1853.203125 1019.476562 1852.96875 1019.300781 1850.03125 1019.089844 L 1846.851562 1018.859375 L 1846.851562 1060.929688 L 1850.40625 1060.703125 L 1853.957031 1060.472656 L 1854.332031 1045.507812 C 1854.582031 1035.488281 1855.019531 1030 1855.648438 1028.898438 C 1857.160156 1026.253906 1859.667969 1024.929688 1863.160156 1024.929688 C 1865.761719 1024.929688 1866.855469 1025.371094 1868.605469 1027.117188 L 1870.792969 1029.304688 L 1870.796875 1041.148438 C 1870.800781 1047.660156 1871.019531 1054.777344 1871.28125 1056.957031 L 1871.757812 1060.921875 L 1874.828125 1060.699219 L 1877.898438 1060.472656 L 1878.109375 1044.761719 C 1878.347656 1026.796875 1877.808594 1024.121094 1873.238281 1020.632812 C 1869.519531 1017.792969 1861.925781 1017.347656 1858.074219 1019.742188 M 1894.613281 1019.707031 C 1891.070312 1021.578125 1887.589844 1025.84375 1886.148438 1030.074219 C 1884.671875 1034.40625 1884.6875 1043.039062 1886.179688 1048.0625 C 1887.503906 1052.535156 1891.867188 1057.78125 1895.808594 1059.65625 C 1900.226562 1061.75 1906.992188 1060.738281 1909.597656 1057.597656 C 1910.164062 1056.914062 1910.914062 1056.359375 1911.265625 1056.359375 C 1912.007812 1056.359375 1911.40625 1062.300781 1910.296875 1065.957031 C 1908.265625 1072.636719 1895.601562 1073.308594 1893.355469 1066.855469 C 1892.652344 1064.835938 1892.234375 1064.589844 1889.53125 1064.589844 C 1886.699219 1064.589844 1886.5 1064.726562 1886.5 1066.722656 C 1886.5 1072.199219 1894.414062 1078.066406 1901.785156 1078.050781 C 1906.089844 1078.042969 1912.097656 1075.5625 1914.71875 1072.710938 C 1918.324219 1068.789062 1918.671875 1066.050781 1918.671875 1041.671875 L 1918.671875 1018.945312 L 1915.304688 1018.945312 C 1912.152344 1018.945312 1911.9375 1019.074219 1911.9375 1020.945312 L 1911.9375 1022.945312 L 1910.253906 1021.414062 C 1909.328125 1020.570312 1907.835938 1019.5 1906.9375 1019.039062 C 1904.363281 1017.714844 1897.703125 1018.074219 1894.613281 1019.707031 M 790.640625 1035.96875 C 790.855469 1051.441406 791.015625 1053.230469 792.390625 1055.609375 C 796.234375 1062.261719 807.542969 1063.535156 812.574219 1057.875 L 814.070312 1056.191406 L 814.449219 1058.335938 C 814.796875 1060.269531 815.121094 1060.472656 817.816406 1060.472656 L 820.800781 1060.472656 L 821 1039.710938 L 821.199219 1018.945312 L 814.445312 1018.945312 L 814.445312 1030.441406 C 814.445312 1044.523438 813.65625 1049.257812 810.839844 1052.078125 C 808.453125 1054.464844 804.542969 1055.347656 801.503906 1054.179688 C 798.199219 1052.910156 797.105469 1049.253906 797.25 1039.972656 C 797.320312 1035.609375 797.34375 1029.09375 797.308594 1025.492188 L 797.238281 1018.945312 L 790.402344 1018.945312 Z M 885.125 1019.878906 C 884.9375 1020.394531 884.863281 1029.738281 884.960938 1040.644531 L 885.140625 1060.472656 L 888.695312 1060.703125 L 892.246094 1060.929688 L 892.246094 1018.945312 L 888.859375 1018.945312 C 886.828125 1018.945312 885.332031 1019.320312 885.125 1019.878906 M 975.289062 1039.898438 L 975.289062 1060.847656 L 982.023438 1060.847656 L 982.023438 1018.945312 L 975.289062 1018.945312 Z M 1156.335938 1039.855469 L 1156.335938 1060.847656 L 1163.441406 1060.847656 L 1163.414062 1040.082031 L 1163.382812 1019.320312 L 1159.859375 1019.089844 L 1156.335938 1018.863281 Z M 1249.605469 1019.507812 C 1249.421875 1019.8125 1249.449219 1029.242188 1249.667969 1040.457031 L 1250.066406 1060.847656 L 1256.585938 1060.847656 L 1256.585938 1018.945312 L 1253.261719 1018.945312 C 1251.433594 1018.945312 1249.789062 1019.199219 1249.605469 1019.507812 M 1303.730469 1035.21875 C 1303.746094 1049.40625 1303.925781 1051.878906 1305.121094 1054.488281 C 1307.5625 1059.800781 1311.871094 1062.082031 1318.089844 1061.34375 C 1321.140625 1060.980469 1322.5 1060.34375 1324.617188 1058.273438 L 1327.292969 1055.660156 L 1327.289062 1058.066406 C 1327.28125 1060.363281 1327.425781 1060.484375 1330.460938 1060.703125 L 1333.640625 1060.933594 L 1333.640625 1018.945312 L 1326.90625 1018.945312 L 1326.847656 1031.851562 C 1326.773438 1047.273438 1326.0625 1050.757812 1322.496094 1053.15625 C 1319.03125 1055.480469 1316.242188 1055.335938 1313.265625 1052.679688 L 1310.824219 1050.5 L 1310.339844 1018.945312 L 1303.714844 1018.945312 Z M 1361.320312 1039.898438 L 1361.320312 1060.847656 L 1368.800781 1060.847656 L 1368.800781 1018.945312 L 1361.320312 1018.945312 Z M 1830.394531 1039.855469 L 1830.394531 1060.847656 L 1837.898438 1060.847656 L 1837.699219 1040.082031 L 1837.5 1019.320312 L 1833.945312 1019.089844 L 1830.394531 1018.863281 Z M 289.597656 1025.335938 C 285.773438 1027.238281 284.488281 1030.347656 284.15625 1038.507812 C 283.976562 1042.863281 284.207031 1046.785156 284.742188 1048.398438 C 286.761719 1054.527344 293.558594 1056.816406 298.179688 1052.925781 C 304.199219 1047.859375 304.066406 1030.183594 297.976562 1026.195312 C 295.277344 1024.425781 292.085938 1024.097656 289.597656 1025.335938 M 369.316406 1025.492188 C 367.699219 1026.300781 366 1028.082031 364.863281 1030.152344 C 361.441406 1036.394531 362.855469 1049.582031 367.34375 1053.289062 C 368.042969 1053.867188 370.203125 1054.476562 372.140625 1054.640625 C 379.160156 1055.246094 382.882812 1050.546875 383.394531 1040.433594 C 383.828125 1031.820312 381.078125 1026.523438 375.339844 1024.929688 C 371.976562 1023.996094 372.382812 1023.957031 369.316406 1025.492188 M 621.890625 1024.957031 C 616.65625 1026.527344 614.363281 1031.140625 614.449219 1039.949219 C 614.546875 1049.941406 618.039062 1054.863281 625.03125 1054.863281 C 630.644531 1054.863281 633.972656 1050.484375 634.667969 1042.191406 C 635.4375 1033.035156 632.867188 1027.128906 627.179688 1024.980469 C 624.796875 1024.078125 624.824219 1024.078125 621.890625 1024.957031 M 659.582031 1025.535156 C 655.582031 1027.726562 654.117188 1030.890625 653.738281 1038.167969 C 653.191406 1048.546875 656.855469 1054.863281 663.417969 1054.863281 C 670.613281 1054.863281 673.867188 1050.125 673.945312 1039.53125 C 673.980469 1034.703125 673.65625 1032.609375 672.535156 1030.445312 C 669.6875 1024.957031 664.339844 1022.929688 659.582031 1025.535156 M 843.246094 1024.886719 C 841.164062 1025.761719 838.640625 1028.632812 837.644531 1031.265625 C 836.378906 1034.601562 836.601562 1046.898438 837.972656 1049.546875 C 840.78125 1054.984375 846.761719 1056.527344 851.042969 1052.925781 C 857.0625 1047.859375 856.925781 1030.183594 850.839844 1026.195312 C 848.621094 1024.742188 845.058594 1024.128906 843.246094 1024.886719 M 1277.417969 1025.285156 C 1273.976562 1027.21875 1272.042969 1032.453125 1272.050781 1039.828125 C 1272.058594 1049.429688 1275.308594 1054.863281 1281.039062 1054.863281 C 1284.511719 1054.863281 1288.347656 1051.28125 1289.414062 1047.046875 C 1290.464844 1042.867188 1290.484375 1035.902344 1289.453125 1032.1875 C 1287.746094 1026.042969 1281.96875 1022.726562 1277.417969 1025.285156 M 1390.9375 1024.785156 C 1385.445312 1025.460938 1382.265625 1030.609375 1382.273438 1038.824219 C 1382.277344 1045.707031 1383.398438 1049.410156 1386.386719 1052.394531 C 1389.328125 1055.339844 1393.21875 1055.707031 1397.007812 1053.394531 C 1400.328125 1051.371094 1401.902344 1047.90625 1402.296875 1041.765625 C 1403.003906 1030.734375 1398.414062 1023.867188 1390.9375 1024.785156 M 1561.972656 1025.3125 C 1557.945312 1027.0625 1556.347656 1031.695312 1556.703125 1040.582031 C 1556.9375 1046.359375 1557.320312 1048.308594 1558.640625 1050.445312 C 1561.804688 1055.566406 1567.316406 1056.382812 1571.164062 1052.300781 C 1573.964844 1049.328125 1574.542969 1047.082031 1574.519531 1039.242188 C 1574.5 1032.710938 1572.9375 1028.378906 1569.667969 1025.808594 C 1567.28125 1023.929688 1565.425781 1023.8125 1561.972656 1025.3125 M 1781.523438 1025.257812 C 1778.640625 1026.8125 1776.769531 1029.257812 1775.914062 1032.601562 L 1775.191406 1035.40625 L 1785.210938 1035.40625 C 1796.261719 1035.40625 1796.21875 1035.429688 1794.207031 1030.707031 C 1791.964844 1025.449219 1785.957031 1022.867188 1781.523438 1025.257812 M 511.960938 1027.152344 C 508.851562 1030.851562 507.515625 1040.570312 509.253906 1046.839844 C 509.6875 1048.394531 511.066406 1050.835938 512.320312 1052.261719 C 514.265625 1054.476562 515.082031 1054.863281 517.835938 1054.863281 C 520.4375 1054.863281 521.507812 1054.417969 523.339844 1052.585938 C 526.203125 1049.722656 527.15625 1046.316406 527.160156 1038.9375 C 527.167969 1029.230469 524.171875 1024.929688 517.40625 1024.929688 C 514.363281 1024.929688 513.554688 1025.261719 511.960938 1027.152344 M 1038.964844 1026.152344 C 1034.898438 1029.003906 1033.050781 1039.363281 1035.285156 1046.816406 C 1037.464844 1054.097656 1044.167969 1056.457031 1048.976562 1051.648438 C 1051.828125 1048.796875 1053.085938 1044.96875 1053.085938 1039.148438 C 1053.085938 1033.457031 1051.945312 1029.878906 1049.269531 1027.207031 C 1047.457031 1025.394531 1046.355469 1024.929688 1043.851562 1024.929688 C 1042.125 1024.929688 1039.925781 1025.480469 1038.964844 1026.152344 M 1897.722656 1025.878906 C 1892.714844 1028.363281 1890.601562 1041.511719 1894.058594 1048.660156 C 1898.066406 1056.941406 1908.796875 1055.453125 1911.101562 1046.300781 C 1914.570312 1032.527344 1907.152344 1021.207031 1897.722656 1025.878906 M 570.605469 1044.011719 L 570.5 1053.367188 L 578.945312 1053.363281 C 588.308594 1053.363281 591.839844 1052.277344 593.539062 1048.875 C 594.816406 1046.320312 594.734375 1041.777344 593.363281 1039.125 C 591.480469 1035.484375 588.875 1034.660156 579.273438 1034.660156 L 570.710938 1034.660156 Z M 1496.648438 1040.230469 C 1496.410156 1040.464844 1493.21875 1041.3125 1489.554688 1042.113281 C 1480.605469 1044.0625 1477.988281 1046.925781 1480.371094 1052.15625 C 1482.273438 1056.339844 1489.089844 1056.425781 1493.5 1052.324219 C 1495.460938 1050.5 1496.171875 1049.058594 1496.785156 1045.648438 C 1497.554688 1041.394531 1497.503906 1039.375 1496.648438 1040.230469 M 1684.777344 1042.167969 C 1680.605469 1043.214844 1676.679688 1044.492188 1676.058594 1045.007812 C 1674.292969 1046.472656 1673.886719 1049.40625 1675.113281 1051.785156 C 1676.453125 1054.371094 1677.574219 1054.863281 1682.140625 1054.859375 C 1688.824219 1054.855469 1693.011719 1050.417969 1692.589844 1043.789062 L 1692.363281 1040.269531 Z M 1069.554688 1056.269531 C 1069.554688 1060.441406 1069.679688 1060.765625 1071.359375 1060.984375 C 1073.132812 1061.21875 1073.148438 1061.28125 1072.136719 1064.207031 C 1071.570312 1065.847656 1070.632812 1067.53125 1070.058594 1067.953125 C 1068.746094 1068.914062 1069.746094 1072.074219 1071.363281 1072.074219 C 1071.972656 1072.074219 1073.355469 1070.910156 1074.4375 1069.492188 C 1076.46875 1066.828125 1077.589844 1061.628906 1077.46875 1055.429688 L 1077.410156 1052.242188 L 1073.480469 1052.015625 L 1069.554688 1051.789062 Z M 1069.554688 1056.269531 " fill-opacity="1" fill-rule="evenodd"/></g></svg>