<?xml version="1.0" encoding="UTF-8"?>


<svg width="143px" height="84px" viewBox="0 0 143 84" version="1.1" xmlns="http://www.w3.org/2000/svg" xmlns:xlink="http://www.w3.org/1999/xlink">
    <!-- Generator: Sketch 53.2 (72643) - https://sketchapp.com -->
     <style>
    .inherit {
      stroke: currentColor;
      fill: currentColor;
    }
  </style>
    <title>Group 8</title>
    <desc>Created with Sketch.</desc>
    <g id="Phase-2---Title-Setup" stroke="none" stroke-width="1" >
        <g id="1.-Home" transform="translate(-274.000000, -987.000000)">
            <g id="Group-8" transform="translate(274.000000, 987.000000)">
                <path d="M80.5,0.512345679 L80.5,82.5900595" id="Line-3" stroke="#DCDEE0" stroke-linecap="square" class="inherit"></path>
                <path d="M36.1185171,39.4540629 C36.311545,39.8000926 36.6955555,40 37.092605,40 C37.2584044,40 37.4285502,39.9649635 37.5868076,39.8910235 C37.6511076,39.8610257 44.0719062,36.8712029 47.2385866,35.954277 C47.8124292,35.7872969 48.1308613,35.2253063 47.9486992,34.6994069 C47.7675598,34.1733902 47.1589466,33.8804427 46.579735,34.0464854 C43.2439315,35.0134467 36.8668518,37.9832318 36.5963571,38.1091993 C36.0595861,38.3591421 35.8458492,38.961208 36.1185171,39.4540629 Z" id="Shape" class="inherit"></path>
                <path d="M37.0925836,28 C37.2583834,28 37.4285295,27.9649635 37.5867871,27.8910235 C37.6510873,27.8610257 44.0718985,24.8712029 47.2385851,23.954277 C47.8124288,23.7872969 48.1308616,23.2253063 47.9486991,22.6994069 C47.7675593,22.1733902 47.158945,21.8804427 46.5797323,22.0464854 C43.2439222,23.0134467 36.86683,25.9832318 36.5963347,26.1091993 C36.0596905,26.3591421 35.8458254,26.9610908 36.1184938,27.4540629 C36.3115221,27.7999754 36.6955334,28 37.0925836,28 Z" id="Shape" class="inherit"></path>
                <path d="M62.9332521,26.0003498 C62.3433782,26.0003498 61.8666292,26.47822 61.8666292,27.0669642 L61.8666292,68.6665528 C61.8666292,70.4307853 60.430882,71.8665211 58.6666354,71.8665211 L33.0666854,71.8665211 L33.0666854,69.4121704 C34.6219324,68.8681758 38.6730495,67.5999383 42.6666667,67.5999383 C51.9583985,67.5999383 58.2677612,69.657543 58.3306361,69.6787927 C58.6516354,69.7854167 59.0101347,69.7321672 59.2906342,69.5315442 C59.5690087,69.3310462 59.7332583,69.0089244 59.7332583,68.6664278 L59.7332583,21.733767 C59.7332583,21.2335219 59.386634,20.8004012 58.89801,20.6926523 C58.89801,20.6926523 58.0617616,20.5060291 56.6323894,20.2435317 C56.0552655,20.1369077 55.4975166,20.5209039 55.3907668,21.0990232 C55.284142,21.6792675 55.6670163,22.235012 56.2462651,22.3416359 C56.7913891,22.4418849 57.2478882,22.5303841 57.5998875,22.6008834 L57.5998875,67.2489418 C55.1827672,66.615323 49.8154027,65.4665844 42.6665417,65.4665844 C38.0190507,65.4665844 33.4538097,66.9929443 32.0414374,67.5103142 C30.7859399,66.9556947 26.9908223,65.4665844 22.3998313,65.4665844 C15.0525956,65.4665844 9.00035742,66.6783224 6.3998625,67.2938163 L6.3998625,22.5592588 C8.52998334,22.035514 14.8212211,20.6670275 22.3998313,20.6670275 C26.2889487,20.6670275 29.6243171,21.8776405 30.9331896,22.4248851 L30.9331896,64.39997 C30.9331896,64.7839662 31.1400642,65.1392126 31.4739385,65.3279608 C31.8078129,65.5178339 32.2195621,65.5124589 32.5491864,65.3140859 C32.6548112,65.2512115 43.2232906,58.938649 52.6035223,55.8123049 C53.0397714,55.6661813 53.3331458,55.2598104 53.3331458,54.8000649 L53.3331458,11.0671225 C53.3331458,10.7172509 53.1613962,10.3897542 52.8733967,10.1903811 C52.5875223,9.9908831 52.220648,9.94500855 51.8910237,10.0677573 C43.3566653,13.2687257 34.7210572,18.6425475 34.6345574,18.695922 C34.1353083,19.0084189 33.9828086,19.6665374 34.295308,20.1657825 C34.6068074,20.6650275 35.2649311,20.817526 35.7651801,20.5050291 C35.844055,20.4549046 43.3566653,15.7808258 51.199775,12.626732 L51.199775,54.0364475 C43.9186642,56.5665474 36.3165541,60.6977566 33.0664354,62.5472383 L33.0664354,21.733767 C33.0664354,21.329521 32.8381859,20.9603996 32.4765616,20.7791514 C32.2930619,20.6885273 27.9219455,18.5337986 22.3998313,18.5337986 C12.7614751,18.5337986 5.35136455,20.619153 5.03986516,20.7086521 C4.58224105,20.8387758 4.26649167,21.2580217 4.26649167,21.733767 L4.26649167,68.6666778 C4.26649167,69.0005494 4.42436636,69.3162963 4.68999084,69.5179193 C4.87774047,69.6597929 5.10386503,69.7334172 5.33323958,69.7334172 C5.43136439,69.7334172 5.5294892,69.7195423 5.62548901,69.6917926 C5.69911387,69.6715428 13.0750995,67.6000633 22.3998313,67.6000633 C26.2995736,67.6000633 29.6318171,68.8139263 30.9331896,69.3589209 L30.9331896,71.8666461 L5.33323958,71.8666461 C3.56899303,71.8666461 2.13324583,70.4309103 2.13324583,68.6666778 L2.13324583,27.0670892 C2.13324583,26.478345 1.65537177,26.0004748 1.06662292,26.0004748 C0.477874067,26.0004748 0,26.478345 0,27.0670892 L0,68.6666778 C0,71.6073987 2.39249533,74 5.33336458,74 L58.6666354,74 C61.6073797,74 64,71.6075237 64,68.6666778 L64,27.0670892 C63.999875,26.47822 63.5231259,26.0003498 62.9332521,26.0003498 Z" id="Shape" class="inherit"></path>
                <path d="M36.1185171,33.4540629 C36.311545,33.8000926 36.6955555,34 37.092605,34 C37.2584044,34 37.4285502,33.9649635 37.5868076,33.8910235 C37.6511076,33.8610257 44.0719062,30.8712029 47.2385866,29.954277 C47.8124292,29.7872969 48.1308613,29.2253063 47.9486992,28.6994069 C47.7675598,28.1733902 47.1589466,27.8804427 46.579735,28.0464854 C43.2439315,29.0134467 36.8668518,31.9832318 36.5963571,32.1091993 C36.0595861,32.3591421 35.8458492,32.961208 36.1185171,33.4540629 Z" id="Shape" class="inherit"></path>
                <path d="M36.1185171,46.4540629 C36.311545,46.8000926 36.6955555,47 37.092605,47 C37.2584044,47 37.4285502,46.9649635 37.5868076,46.8910235 C37.6511076,46.8610257 44.0719062,43.8712029 47.2385866,42.954277 C47.8124292,42.7872969 48.1308613,42.2253063 47.9486992,41.6994069 C47.7675598,41.1733902 47.1589466,40.8804427 46.579735,41.0464854 C43.2439315,42.0134467 36.8668518,44.9832318 36.5963571,45.1091993 C36.0595861,45.3591421 35.8458492,45.961208 36.1185171,46.4540629 Z" id="Shape" class="inherit"></path>
                <path d="M26.1758767,30.5541783 C19.5896714,29.1028593 12.1052734,30.9518385 11.7906684,31.030948 C11.2222046,31.1741433 10.8841012,31.7229801 11.0365915,32.2578496 C11.1645833,32.7055108 11.5954309,33 12.0659009,33 C12.157645,33 12.2503891,32.9889669 12.3432582,32.9659618 C12.4147536,32.9469473 19.6206694,31.1671009 25.6896577,32.5042158 C26.2602463,32.629453 26.8373345,32.2958785 26.971701,31.7570183 C27.1059424,31.2192146 26.7497151,30.6803544 26.1758767,30.5541783 Z" id="Shape" class="inherit"></path>
                <path d="M26.1758767,36.5538032 C19.5896714,35.1033181 12.1052734,36.9515244 11.7906684,37.030646 C11.2222046,37.1738632 10.8841012,37.7229017 11.0365915,38.2577357 C11.1645833,38.7054656 11.5954309,39 12.0659009,39 C12.157645,39 12.2503891,38.9889652 12.3432582,38.9659566 C12.4147536,38.9469392 19.6206694,37.1668198 25.6896577,38.5041398 C26.2602463,38.6293961 26.8373345,38.2957705 26.971701,37.7568277 C27.1059424,37.2189414 26.7497151,36.6799987 26.1758767,36.5538032 Z" id="Shape" class="inherit"></path>
                <path d="M36.1185171,52.454062 C36.311545,52.8000922 36.6955555,53 37.092605,53 C37.2584044,53 37.4285502,52.9649634 37.5868076,52.8910233 C37.6511076,52.8610254 44.0719062,49.8711976 47.2385866,48.9542701 C47.8124292,48.7872897 48.1308613,48.2252982 47.9486992,47.6993978 C47.7675598,47.1734975 47.1589466,46.8804322 46.579735,47.0464752 C43.2439315,48.0134381 36.8668518,50.9832284 36.5963571,51.109196 C36.0595861,51.3591393 35.8458492,51.9612062 36.1185171,52.454062 Z" id="Shape" class="inherit"></path>
                <path d="M26.1758767,42.5537542 C19.5896714,41.1038663 12.1052734,42.9502556 11.7906684,43.0304008 C11.2222046,43.173559 10.8841012,43.7223714 11.0365915,44.2569853 C11.1645833,44.7045308 11.5954309,45 12.0659009,45 C12.157645,45 12.2503891,44.988031 12.3432582,44.9649145 C12.4147536,44.945905 19.6206694,43.1665184 25.6896577,44.5032878 C26.2602463,44.6284926 26.8373345,44.2950043 26.971701,43.7562834 C27.1059424,43.2186186 26.7497151,42.6798977 26.1758767,42.5537542 Z" id="Shape" class="inherit"></path>
                <path d="M26.1758767,54.5539832 C19.5896714,53.1031751 12.1052734,54.9515035 11.7906684,55.0305852 C11.2222046,55.17373 10.8841012,55.722491 11.0365915,56.2570548 C11.1645833,56.7045584 11.5954309,57 12.0659009,57 C12.157645,57 12.2503891,56.9880322 12.3432582,56.9649178 C12.4147536,56.94591 19.6206694,55.1666901 25.6896577,56.5033343 C26.2602463,56.6274714 26.8373345,56.2950703 26.971701,55.7563999 C27.1059424,55.2187854 26.7497151,54.680115 26.1758767,54.5539832 Z" id="Shape" class="inherit"></path>
                <path d="M26.1758767,48.5541292 C19.5896714,47.1034077 12.1052734,48.9505698 11.7906684,49.0307027 C11.2222046,49.173839 10.8841012,49.7225672 11.0365915,50.2570992 C11.1645833,50.7045761 11.5954309,51 12.0659009,51 C12.157645,51 12.2503891,50.9880329 12.3432582,50.9649199 C12.4147536,50.9459133 19.6206694,49.1667995 25.6896577,50.503364 C26.2602463,50.6285496 26.8373345,50.2951124 26.971701,49.7564741 C27.1059424,49.2188917 26.7497151,48.6802534 26.1758767,48.5541292 Z" id="Shape" class="inherit"></path>
                <path d="M137.928058,10 L101.071942,10 C98.2752058,10 96,12.2906553 96,15.106383 L96,68.893617 C96,71.7093447 98.2752058,74 101.071942,74 L137.928058,74 C140.724794,74 143,71.7093447 143,68.893617 L143,15.106383 C143,12.2906553 140.724794,10 137.928058,10 Z M140.971223,68.893617 C140.971223,70.5830809 139.605991,71.9574468 137.928058,71.9574468 L101.071942,71.9574468 C99.3938734,71.9574468 98.028777,70.5830809 98.028777,68.893617 L98.028777,15.106383 C98.028777,13.4169191 99.3938734,12.0425532 101.071942,12.0425532 L137.928058,12.0425532 C139.605991,12.0425532 140.971223,13.4169191 140.971223,15.106383 L140.971223,68.893617 Z" id="Shape" class="inherit"></path>
                <path d="M137.982829,14.0031472 L109.159148,14 C108.597188,14 108.141842,14.4593499 108.141706,15.0261141 C108.141706,15.5928783 108.597053,16.0523651 109.158877,16.0525019 L136.965387,16.0555123 L136.965387,63.9473612 L102.034748,63.9473612 L102.037868,16.0525019 L105.089787,16.0525019 C105.651612,16.0525019 106.107094,15.5930152 106.107094,15.026251 C106.107094,14.4594868 105.651612,14 105.089787,14 L101.020562,14 C100.458737,14 100.003255,14.4593499 100.003255,15.026251 L100,64.9736122 C100,65.245774 100.107156,65.5068522 100.297867,65.6993769 C100.488714,65.8919016 100.747381,66 101.017306,66 L137.982694,66 C138.544654,66 139,65.5405132 139,64.973749 L139,15.029535 C139,14.4626339 138.544654,14.0031472 137.982829,14.0031472 Z" id="Shape" class="inherit"></path>
                <path d="M121,68 L117,68 C116.447733,68 116,68.4477333 116,69 C116,69.5522667 116.447733,70 117,70 L121,70 C121.5524,70 122,69.5522667 122,69 C122,68.4477333 121.5524,68 121,68 Z" id="Shape" class="inherit"></path>
                <path d="M133.951807,20 L107.048193,20 C106.469311,20 106,20.4477333 106,21 C106,21.5522667 106.469311,22 107.048193,22 L133.951807,22 C134.530829,22 135,21.5522667 135,21 C135,20.4477333 134.530829,20 133.951807,20 Z" id="Shape" class="inherit"></path>
                <path d="M133.951807,25 L107.048193,25 C106.469311,25 106,25.4477333 106,26 C106,26.5522667 106.469311,27 107.048193,27 L133.951807,27 C134.530829,27 135,26.5522667 135,26 C135,25.4477333 134.530829,25 133.951807,25 Z" id="Shape" class="inherit"></path>
                <path d="M107.011236,31 L119.988764,31 C120.547371,31 121,30.5522667 121,30 C121,29.4477333 120.547371,29 119.988764,29 L107.011236,29 C106.452764,29 106,29.4477333 106,30 C106,30.5522667 106.452764,31 107.011236,31 Z" id="Shape" class="inherit"></path>
                <path d="M133.951807,35 L107.048193,35 C106.469311,35 106,35.4477333 106,36 C106,36.5522667 106.469311,37 107.048193,37 L133.951807,37 C134.530829,37 135,36.5522667 135,36 C135,35.4477333 134.530829,35 133.951807,35 Z" id="Shape" class="inherit"></path>
                <path d="M133.951807,39 L107.048193,39 C106.469311,39 106,39.4477333 106,40 C106,40.5522667 106.469311,41 107.048193,41 L133.951807,41 C134.530829,41 135,40.5522667 135,40 C135,39.4477333 134.530829,39 133.951807,39 Z" id="Shape" class="inherit"></path>
                <path d="M133.951807,44 L107.048193,44 C106.469311,44 106,44.4477333 106,45 C106,45.5522667 106.469311,46 107.048193,46 L133.951807,46 C134.530829,46 135,45.5522667 135,45 C135,44.4477333 134.530829,44 133.951807,44 Z" id="Shape" class="inherit"></path>
                <path d="M133.951807,49 L107.048193,49 C106.469311,49 106,49.4477333 106,50 C106,50.5522667 106.469311,51 107.048193,51 L133.951807,51 C134.530829,51 135,50.5522667 135,50 C135,49.4477333 134.530829,49 133.951807,49 Z" id="Shape" class="inherit"></path>
                <path d="M135,54 C135,53.4477333 134.530829,53 133.951807,53 L107.048193,53 C106.469311,53 106,53.4477333 106,54 C106,54.5522667 106.469311,55 107.048193,55 L133.951807,55 C134.530829,55 135,54.5522667 135,54 Z" id="Shape" class="inherit"></path>
                <path d="M107.011236,58 C106.452764,58 106,58.4477333 106,59 C106,59.5522667 106.452764,60 107.011236,60 L119.988764,60 C120.547371,60 121,59.5522667 121,59 C121,58.4477333 120.547371,58 119.988764,58 L107.011236,58 Z" id="Shape" class="inherit"></path>
            </g>
        </g>
    </g>
</svg>