<?xml version="1.0" encoding="UTF-8"?>
<svg width="84px" height="84px" viewBox="0 0 84 84" version="1.1" xmlns="http://www.w3.org/2000/svg" xmlns:xlink="http://www.w3.org/1999/xlink">
    <!-- Generator: Sketch 53.2 (72643) - https://sketchapp.com -->
    <title>Group 6</title>
    <desc>Created with Sketch.</desc>
    <g id="Phase-2---Title-Setup" stroke="none" stroke-width="1">
        <g id="1.-Home" transform="translate(-723.000000, -982.000000)" class="inherit"  stroke="#FFFFFF" stroke-width="0.5">
            <g id="Group-6" transform="translate(724.000000, 983.000000)">
                <path d="M47.1481464,39.2720839 C47.3894313,39.7334568 47.8694444,40 48.3657562,40 C48.5730055,40 48.7856878,39.9532846 48.9835094,39.854698 C49.0638845,39.8147009 57.0898827,35.8282705 61.0482333,34.6057027 C61.7655365,34.3830626 62.1635766,33.6337418 61.935874,32.9325425 C61.7094497,32.231187 60.9486833,31.8405902 60.2246688,32.0619805 C56.0549144,33.3512622 48.0835647,37.3109758 47.7454463,37.4789324 C47.0744826,37.8121895 46.8073115,38.6149439 47.1481464,39.2720839 Z" id="Shape"></path>
                <path d="M48.3657295,23 C48.5729792,23 48.7856619,22.9532846 48.9834839,22.854698 C49.0638591,22.8147009 57.0898731,18.8282705 61.0482314,17.6057027 C61.765536,17.3830626 62.163577,16.6337418 61.9358739,15.9325425 C61.7094492,15.231187 60.9486812,14.8405902 60.2246653,15.0619805 C56.0549027,16.3512622 48.0835375,20.3109758 47.7454184,20.4789324 C47.0746131,20.8121895 46.8072817,21.6147877 47.1481173,22.2720839 C47.3894026,22.7333005 47.8694167,23 48.3657295,23 Z" id="Shape"></path>
                <path d="M80.6332292,20.5004481 C79.8774534,20.5004481 79.2666186,21.1127194 79.2666186,21.8670479 L79.2666186,75.1665207 C79.2666186,77.4269437 77.4270675,79.2664802 75.1666266,79.2664802 L42.3666907,79.2664802 L42.3666907,76.1218433 C44.3593509,75.4248502 49.5498446,73.7999209 54.6666667,73.7999209 C66.5716981,73.7999209 74.655569,76.4362269 74.7361275,76.4634532 C75.1474079,76.6000651 75.6067351,76.5318392 75.9661251,76.274791 C76.3227923,76.0179029 76.5332372,75.6051843 76.5332372,75.1663606 L76.5332372,15.0338889 C76.5332372,14.3929499 76.0891248,13.838014 75.4630753,13.6999607 C75.4630753,13.6999607 74.391632,13.4608498 72.5602489,13.124525 C71.8208089,12.9879131 71.1061932,13.4799082 70.96942,14.2206235 C70.832807,14.9640615 71.3233646,15.6761091 72.0655272,15.812721 C72.7639673,15.9411651 73.3488567,16.0545546 73.7998559,16.1448818 L73.7998559,73.3502066 C70.7029205,72.5383826 63.8259847,71.0665613 54.6665065,71.0665613 C48.7119088,71.0665613 42.8626936,73.0222099 41.0530917,73.6850901 C39.4444855,72.9744838 34.5819911,71.0665613 28.6997838,71.0665613 C19.2861381,71.0665613 11.5317079,72.6191006 8.19982383,73.4077022 L8.19982383,16.0915503 C10.9290412,15.4205023 18.9896895,13.667129 28.6997838,13.667129 C33.6827155,13.667129 37.9561563,15.2182269 39.6331492,15.9193841 L39.6331492,69.6999615 C39.6331492,70.1919566 39.8982072,70.6471162 40.3259837,70.8889497 C40.7537602,71.1322247 41.2813139,71.125338 41.7036451,70.8711726 C41.8389769,70.7906148 55.3798411,62.702644 67.3982629,58.6970156 C67.9572071,58.5097948 68.3330931,57.989132 68.3330931,57.4000832 L68.3330931,1.36725065 C68.3330931,0.918977735 68.1130388,0.499372511 67.7440396,0.243925818 C67.3777629,-0.0116810285 66.9077053,-0.0704577909 66.4853741,0.086814091 C55.5507274,4.18805478 44.4863545,11.073264 44.3755266,11.1416501 C43.7358638,11.5420367 43.5404736,12.385251 43.9408634,13.0249088 C44.339972,13.6645665 45.183193,13.8599552 45.8241371,13.4595685 C45.9251955,13.3953465 55.5507274,7.4066831 65.5997117,3.36550041 L65.5997117,56.4216983 C56.2707885,59.6633889 46.5305849,64.9565006 42.3663704,67.326149 L42.3663704,15.0338889 C42.3663704,14.5159487 42.0739256,14.043012 41.6105945,13.8107877 C41.3754856,13.6946756 35.7749926,10.9339295 28.6997838,10.9339295 C16.3506399,10.9339295 6.85643583,13.6057898 6.45732723,13.7204605 C5.87099635,13.8871815 5.46644245,14.4243403 5.46644245,15.0338889 L5.46644245,75.1666809 C5.46644245,75.594454 5.6687194,75.9990047 6.00905076,76.2573341 C6.24960498,76.4391097 6.53932707,76.5334408 6.83321322,76.5334408 C6.95893563,76.5334408 7.08465804,76.5156636 7.2076578,76.4801093 C7.30198964,76.4541642 16.7524712,73.8000811 28.6997838,73.8000811 C33.6963287,73.8000811 37.9657657,75.3553431 39.6331492,76.0536174 L39.6331492,79.2666403 L6.83321322,79.2666403 C4.57277232,79.2666403 2.73322122,77.4271038 2.73322122,75.1666809 L2.73322122,21.867208 C2.73322122,21.1128796 2.12094508,20.5006083 1.36661061,20.5006083 C0.612276148,20.5006083 0,21.1128796 0,21.867208 L0,75.1666809 C0,78.9344795 3.06538464,82 6.83337337,82 L75.1666266,82 C78.9344552,82 82,78.9346397 82,75.1666809 L82,21.867208 C81.9998398,21.1127194 81.3890051,20.5004481 80.6332292,20.5004481 Z" id="Shape"></path>
                <path d="M47.1481464,30.2720839 C47.3894313,30.7334568 47.8694444,31 48.3657562,31 C48.5730055,31 48.7856878,30.9532846 48.9835094,30.854698 C49.0638845,30.8147009 57.0898827,26.8282705 61.0482333,25.6057027 C61.7655365,25.3830626 62.1635766,24.6337418 61.935874,23.9325425 C61.7094497,23.231187 60.9486833,22.8405902 60.2246688,23.0619805 C56.0549144,24.3512622 48.0835647,28.3109758 47.7454463,28.4789324 C47.0744826,28.8121895 46.8073115,29.6149439 47.1481464,30.2720839 Z" id="Shape"></path>
                <path d="M47.1481464,47.2720839 C47.3894313,47.7334568 47.8694444,48 48.3657562,48 C48.5730055,48 48.7856878,47.9532846 48.9835094,47.854698 C49.0638845,47.8147009 57.0898827,43.8282705 61.0482333,42.6057027 C61.7655365,42.3830626 62.1635766,41.6337418 61.935874,40.9325425 C61.7094497,40.231187 60.9486833,39.8405902 60.2246688,40.0619805 C56.0549144,41.3512622 48.0835647,45.3109758 47.7454463,45.4789324 C47.0744826,45.8121895 46.8073115,46.6149439 47.1481464,47.2720839 Z" id="Shape"></path>
                <path d="M32.9698459,25.7389044 C24.7370893,23.8038124 15.3815917,26.2691181 14.9883355,26.3745974 C14.2777558,26.5655244 13.8551265,27.2973068 14.0457393,28.0104661 C14.2057291,28.6073477 14.7442886,29 15.3323761,29 C15.4470563,29 15.5629864,28.9852892 15.6790727,28.9546157 C15.7684421,28.9292631 24.7758368,26.5561345 32.3620721,28.3389544 C33.0753079,28.5059373 33.7966682,28.0611713 33.9646262,27.3426911 C34.132428,26.6256194 33.6871439,25.9071393 32.9698459,25.7389044 Z" id="Shape"></path>
                <path d="M32.9698459,33.7384042 C24.7370893,31.8044242 15.3815917,34.2686992 14.9883355,34.3741947 C14.2777558,34.565151 13.8551265,35.2972022 14.0457393,36.0103143 C14.2057291,36.6072875 14.7442886,37 15.3323761,37 C15.4470563,37 15.5629864,36.985287 15.6790727,36.9546088 C15.7684421,36.9292523 24.7758368,34.5557597 32.3620721,36.338853 C33.0753079,36.5058615 33.7966682,36.0610273 33.9646262,35.3424369 C34.132428,34.6252553 33.6871439,33.9066649 32.9698459,33.7384042 Z" id="Shape"></path>
                <path d="M47.1481464,54.2720827 C47.3894313,54.7334563 47.8694444,55 48.3657562,55 C48.5730055,55 48.7856878,54.9532845 48.9835094,54.8546978 C49.0638845,54.8147006 57.0898827,50.8282634 61.0482333,49.6056935 C61.7655365,49.383053 62.1635766,48.6337309 61.935874,47.9325304 C61.7094497,47.23133 60.9486833,46.8405763 60.2246688,47.0619669 C56.0549144,48.3512509 48.0835647,52.3109712 47.7454463,52.4789281 C47.0744826,52.8121858 46.8073115,53.6149416 47.1481464,54.2720827 Z" id="Shape"></path>
                <path d="M32.9698459,41.7383389 C24.7370893,39.8051551 15.3815917,42.2670075 14.9883355,42.3738677 C14.2777558,42.5647453 13.8551265,43.2964952 14.0457393,44.0093137 C14.2057291,44.606041 14.7442886,45 15.3323761,45 C15.4470563,45 15.5629864,44.9840414 15.6790727,44.9532193 C15.7684421,44.9278733 24.7758368,42.5553579 32.3620721,44.3377171 C33.0753079,44.5046568 33.7966682,44.0600058 33.9646262,43.3417113 C34.132428,42.6248248 33.6871439,41.9065303 32.9698459,41.7383389 Z" id="Shape"></path>
                <path d="M32.9698459,57.7386443 C24.7370893,55.8042335 15.3815917,58.2686713 14.9883355,58.3741135 C14.2777558,58.5649733 13.8551265,59.2966546 14.0457393,60.0094064 C14.2057291,60.6060779 14.7442886,61 15.3323761,61 C15.4470563,61 15.5629864,60.9840429 15.6790727,60.9532237 C15.7684421,60.92788 24.7758368,58.5555868 32.3620721,60.3377791 C33.0753079,60.5032952 33.7966682,60.0600938 33.9646262,59.3418665 C34.132428,58.6250472 33.6871439,57.90682 32.9698459,57.7386443 Z" id="Shape"></path>
                <path d="M32.9698459,49.738839 C24.7370893,47.8045436 15.3815917,50.2674264 14.9883355,50.3742703 C14.2777558,50.5651186 13.8551265,51.2967563 14.0457393,52.0094655 C14.2057291,52.6061014 14.7442886,53 15.3323761,53 C15.4470563,53 15.5629864,52.9840438 15.6790727,52.9532265 C15.7684421,52.9278843 24.7758368,50.5557327 32.3620721,52.3378186 C33.0753079,52.5047328 33.7966682,52.0601499 33.9646262,51.3419655 C34.132428,50.625189 33.6871439,49.9070046 32.9698459,49.738839 Z" id="Shape"></path>
            </g>
        </g>
    </g>
</svg>