     <svg
          aria-hidden="true"
          focusable="false"
          data-prefix="fas"
          data-icon="shield-check"
          class="h-8 w-8 text-primary"
          xmlns="http://www.w3.org/2000/svg"
          viewBox="0 0 512 512"
        >
          <path
            fill="currentColor"
            d="M466.5 83.7L278.6 3.4c-7.3-3.1-15.8-3.1-23.1 0L45.5 
           83.7C34.6 88.3 27 98.8 27 110.7v130.9C27 368 
           140.2 470.8 250 512c109.8-41.2 223-144 223-270.4V110.7c0-11.9-7.6-22.4-16.5-27zM369 
           207l-113 112c-9.4 9.4-24.6 9.4-34 0l-57-56c-9.4-9.4-9.4-24.6 
           0-34s24.6-9.4 34 0l40 40 96-96c9.4-9.4 24.6-9.4 
           34 0s9.4 24.6 0 34z"
          />
        </svg>