<?xml version="1.0" encoding="utf-8"?>
<svg version="1.2" baseProfile="tiny-ps" xmlns="http://www.w3.org/2000/svg" viewBox="0 0 1875 1875">
    <title>My Authors Hub</title>
    <g fill="inherit" fill-rule="evenodd">
        <path d="M231 795v444l32 2c59 3 72 4 167 17 15 2 45 7 66 11 88 18 153 38 216 67 23 11 30 14 54 27 62 35 118 82 162 135 6 8 11 14 12 14 1 0 6-6 11-13 76-95 188-165 329-205 40-11 95-23 143-31 45-8 132-17 197-21 14-1 26-2 27-2 1 0 1-200 1-444V350l-31 1c-61 2-91 4-151 12-77 10-131 20-190 35-134 34-218 75-287 140-40 37-63 67-86 111-17 32-27 61-48 139-18 68-25 91-35 118-5 13-9 26-14 39-3 8-5 15-5 16 0 1 5 9 11 17 16 21 16 22 28 40 27 43 55 114 77 196 1 5 10 16 13 16 1 0 1-37 1-137 0-134 0-137-3-138-5-2-11-10-13-17-3-13 4-24 17-28 15-4 30 8 30 24 0 9-3 15-10 20l-5 3v136c0 75 0 137 1 137s3-1 5-2c5-3 9-10 12-21 11-41 40-120 58-157 14-28 23-42 50-77l10-13-8-19c-25-64-43-131-53-195-4-25-4-67-1-84 3-14 11-39 16-50 11-21 28-41 48-57 54-43 185-88 317-109 49-8 113-15 153-17l20-1v369c0 203-1 370-1 371-1 1-13 3-35 5-72 8-86 10-141 20-42 8-69 14-122 29-42 12-100 35-141 55-27 13-27 13 7-10 34-23 53-34 90-52 81-40 161-65 267-83 14-2 26-5 27-6 1-2 1-62 0-65-2-3-44 4-96 16-115 27-212 67-293 120-52 34-77 54-120 98-29 29-40 42-62 71-5 7-9 13-9 13s-4-5-9-11c-32-43-74-87-112-118-86-70-176-117-296-155-33-10-35-11-67-18-51-12-97-19-99-16-1 1-1 16-1 34l1 32 24 4c73 12 112 21 168 40 67 23 123 50 177 84 14 9 51 35 51 36 0 0-13-6-29-14-36-18-85-38-124-50-25-8-83-23-113-30-52-12-122-22-177-26-12-1-23-2-24-3-1-1-1-77-1-371V429l12 1c49 3 62 4 111 10 95 12 198 37 279 69 19 7 56 26 70 35 15 10 35 28 44 39 16 18 29 43 39 71 3 8 6 15 7 15s4-7 9-16c10-19 22-38 36-57 16-22 16-19 7-31-11-13-38-39-56-53-58-46-125-78-225-106-99-28-229-48-335-52-11 0-31-1-44-1l-25-1z"/>
    </g>
</svg>