<svg xmlns="http://www.w3.org/2000/svg" xmlns:xlink="http://www.w3.org/1999/xlink" width="84" zoomAndPan="magnify" viewBox="0 0 1874.88 1874.999927" height="84" preserveAspectRatio="xMidYMid meet" version="1.0"><defs><clipPath id="950162504e"><path d="M 182.640625 349 L 1692.296875 349 L 1692.296875 1554.339844 L 182.640625 1554.339844 Z M 182.640625 349 " clip-rule="nonzero"/></clipPath></defs><g clip-path="url(#950162504e)"><path fill="inherit" d="M 230.984375 794.625 L 231.34375 1239.109375 L 263.214844 1240.738281 C 322.210938 1243.757812 335.257812 1245.066406 430.355469 1257.53125 C 445.546875 1259.523438 475.507812 1264.632812 496.929688 1268.886719 C 585.382812 1286.453125 650.546875 1306.613281 712.941406 1335.714844 C 736.300781 1346.609375 743.09375 1350.144531 766.972656 1363.847656 C 828.570312 1399.199219 884.355469 1446.15625 927.984375 1499.386719 C 934.226562 1507.003906 939.777344 1513.058594 940.316406 1512.84375 C 940.855469 1512.625 945.871094 1506.710938 951.460938 1499.703125 C 1027.496094 1404.335938 1139.445312 1334.226562 1280.238281 1293.804688 C 1319.914062 1282.414062 1375.039062 1270.0625 1422.59375 1261.910156 C 1467.417969 1254.226562 1554.84375 1245 1619.429688 1241.140625 C 1633.421875 1240.300781 1645.371094 1239.304688 1645.988281 1238.925781 C 1646.601562 1238.546875 1647.105469 1038.375 1647.105469 794.105469 L 1647.105469 349.972656 L 1615.589844 350.941406 C 1554.421875 352.820312 1524.992188 355.089844 1465.089844 362.542969 C 1388.523438 372.066406 1334.078125 382.003906 1274.699219 397.292969 C 1140.816406 431.765625 1056.484375 472.734375 987.027344 537.039062 C 947.019531 574.082031 923.445312 604.164062 900.21875 647.824219 C 883.042969 680.109375 873.207031 708.710938 852.496094 786.617188 C 834.3125 855 827.601562 877.988281 817.753906 905.582031 C 813.007812 918.898438 808.261719 932.214844 803.523438 945.53125 C 800.835938 953.09375 798.636719 960.242188 798.636719 961.417969 C 798.636719 962.589844 803.578125 970.03125 809.617188 977.949219 C 825.832031 999.214844 826.230469 999.777344 837.621094 1017.679688 C 865.25 1061.089844 893.816406 1132.65625 916.382812 1215 C 917.898438 1220.523438 927.042969 1231.320312 930.203125 1231.320312 C 931.359375 1231.320312 931.785156 1194.4375 931.785156 1094.746094 C 931.785156 961.230469 931.726562 958.15625 929.0625 957.308594 C 924 955.703125 917.871094 947.925781 916.207031 940.992188 C 913.078125 927.949219 919.882812 916.484375 933.109375 912.523438 C 947.792969 908.125 962.9375 920.0625 962.9375 936.03125 C 962.9375 944.519531 959.496094 950.859375 952.390625 955.460938 L 947.402344 958.691406 L 947.386719 1095.007812 C 947.375 1169.980469 947.71875 1231.320312 948.148438 1231.320312 C 948.574219 1231.320312 950.746094 1230.382812 952.96875 1229.230469 C 958.214844 1226.519531 962.171875 1219.941406 964.921875 1209.371094 C 975.464844 1168.839844 1004.382812 1089.847656 1022.332031 1052.546875 C 1035.984375 1024.167969 1044.863281 1010.3125 1071.75 975.433594 L 1081.769531 962.4375 L 1074.238281 943.570312 C 1048.773438 879.789062 1030.457031 813.085938 1020.828125 749.0625 C 1017.023438 723.765625 1016.328125 682.101562 1019.421875 664.816406 C 1021.882812 651.054688 1030.125 625.355469 1035.542969 614.542969 C 1046.265625 593.136719 1062.773438 573.058594 1082.761719 557.109375 C 1136.742188 514.027344 1267.414062 468.832031 1399.957031 447.402344 C 1448.828125 439.5 1512.496094 432.378906 1552.554688 430.332031 L 1572.03125 429.335938 L 1572.011719 798.109375 C 1571.996094 1000.933594 1571.476562 1167.691406 1570.847656 1168.679688 C 1570.09375 1169.867188 1558.464844 1171.664062 1536.519531 1173.980469 C 1465.019531 1181.527344 1450.660156 1183.5625 1395.726562 1193.941406 C 1353.441406 1201.929688 1326.183594 1208.535156 1272.996094 1223.683594 C 1230.695312 1235.726562 1172.707031 1258.207031 1131.214844 1278.644531 C 1103.703125 1292.191406 1104.085938 1291.636719 1137.882812 1268.941406 C 1171.917969 1246.085938 1191.261719 1234.894531 1228.539062 1216.503906 C 1309.679688 1176.46875 1389.785156 1151.582031 1495.539062 1133.558594 C 1509.949219 1131.105469 1522.207031 1128.355469 1522.785156 1127.453125 C 1524.1875 1125.242188 1524.125 1065.378906 1522.714844 1063.160156 C 1520.832031 1060.195312 1478.210938 1067.515625 1426.496094 1079.683594 C 1311.238281 1106.800781 1214.289062 1146.453125 1133.109375 1199.679688 C 1081.199219 1233.710938 1056.078125 1254.140625 1012.453125 1297.789062 C 983.554688 1326.703125 972.164062 1339.632812 949.808594 1368.882812 C 944.53125 1375.792969 939.988281 1381.445312 939.710938 1381.445312 C 939.4375 1381.445312 935.496094 1376.507812 930.957031 1370.46875 C 898.476562 1327.285156 856.03125 1282.800781 817.585938 1251.65625 C 731.644531 1182.027344 641.136719 1134.984375 521.011719 1097.496094 C 487.863281 1087.15625 486.140625 1086.683594 453.726562 1079.167969 C 402.859375 1067.367188 357.066406 1059.902344 355.101562 1063.082031 C 354.5 1064.054688 354.132812 1079.1875 354.292969 1096.714844 L 354.574219 1128.574219 L 378.65625 1132.507812 C 451.773438 1144.441406 490.757812 1153.902344 546.476562 1173.230469 C 613.878906 1196.613281 669.539062 1223 723.355469 1257.09375 C 736.917969 1265.683594 774.558594 1291.90625 774.558594 1292.761719 C 774.558594 1293.007812 761.652344 1286.769531 745.875 1278.898438 C 709.554688 1260.777344 660.792969 1240.9375 621.578125 1228.324219 C 596.378906 1220.21875 537.855469 1204.496094 508.5 1197.941406 C 456.242188 1186.273438 386.148438 1175.890625 331.203125 1171.675781 C 319.128906 1170.75 308.453125 1169.375 307.476562 1168.617188 C 306.070312 1167.523438 305.707031 1091.699219 305.707031 797.90625 L 305.707031 428.570312 L 317.390625 429.191406 C 366.421875 431.792969 379.472656 432.9375 428.230469 438.917969 C 523.417969 450.589844 626.28125 475.910156 707.277344 507.601562 C 726.035156 514.941406 763.105469 533.695312 776.683594 542.714844 C 791.363281 552.46875 811.980469 570.273438 821.460938 581.390625 C 837.207031 599.855469 850.636719 624.472656 860.429688 652.8125 C 863.25 660.972656 866.03125 667.652344 866.609375 667.652344 C 867.1875 667.652344 871.332031 660.480469 875.820312 651.71875 C 885.574219 632.6875 897.21875 613.898438 911.019531 594.9375 C 927.207031 572.695312 926.542969 576.03125 917.074219 564.457031 C 906.117188 551.066406 878.820312 524.90625 860.753906 510.476562 C 802.339844 463.828125 735.101562 432.214844 634.925781 404.296875 C 535.714844 376.648438 406.019531 356.640625 300.042969 352.636719 C 288.746094 352.207031 268.507812 351.472656 255.066406 351 L 230.628906 350.140625 Z M -636.980469 1603.828125 C -639.773438 1606.910156 -644.890625 1636.242188 -653.285156 1697.269531 C -661.710938 1758.539062 -672.949219 1828.613281 -675.285156 1834.453125 C -677.75 1840.609375 -678.160156 1840.832031 -690.628906 1842.785156 C -698.277344 1843.980469 -702.367188 1847.824219 -698.570312 1850.246094 C -697.394531 1850.992188 -681.902344 1851.660156 -663.867188 1851.738281 C -645.949219 1851.8125 -629.414062 1852.179688 -627.121094 1852.550781 C -621.5 1853.464844 -616.917969 1852.164062 -615.839844 1849.351562 C -614.339844 1845.441406 -617.4375 1843.589844 -626.964844 1842.703125 C -637.816406 1841.6875 -641.5625 1839.660156 -643.148438 1833.933594 C -644.488281 1829.09375 -642.25 1804.515625 -636.898438 1765.25 C -634.714844 1749.207031 -632.589844 1733.15625 -630.515625 1717.097656 C -628.96875 1705.023438 -627.554688 1694.25 -627.371094 1693.15625 C -627.1875 1692.058594 -620.730469 1704.167969 -613.019531 1720.0625 C -590.238281 1767.027344 -554.527344 1838.257812 -550.828125 1844.121094 C -544.363281 1854.359375 -540.816406 1855.015625 -535.816406 1846.898438 C -533.433594 1843.027344 -497.433594 1767.25 -497.433594 1766.101562 C -497.433594 1765.863281 -489.464844 1749.34375 -479.726562 1729.386719 C -469.988281 1709.429688 -462.019531 1692.339844 -462.019531 1691.410156 C -462.019531 1690.476562 -461.679688 1690.054688 -461.265625 1690.46875 C -460.851562 1690.882812 -458.96875 1702.9375 -457.078125 1717.261719 C -455.1875 1731.582031 -452.375 1752.222656 -450.828125 1763.125 C -446.332031 1794.765625 -442.1875 1829.242188 -442.1875 1834.953125 C -442.1875 1838.761719 -442.96875 1840.628906 -445.023438 1841.726562 C -446.582031 1842.5625 -447.855469 1844.472656 -447.855469 1845.972656 C -447.855469 1850.570312 -439.132812 1851.660156 -401.019531 1851.835938 C -368.105469 1851.988281 -365.066406 1851.796875 -363.355469 1849.460938 C -360.609375 1845.703125 -363.488281 1843.144531 -370.476562 1843.136719 C -384.035156 1843.117188 -395.03125 1836.488281 -397.960938 1826.570312 C -398.835938 1823.613281 -400.875 1813.375 -402.492188 1803.820312 C -405.523438 1785.933594 -406.355469 1780.316406 -420.878906 1679.566406 C -430.992188 1609.386719 -431.574219 1606.285156 -435.179688 1603.023438 C -437.496094 1600.925781 -438.554688 1600.789062 -441.605469 1602.179688 C -445.332031 1603.878906 -444.722656 1602.6875 -497.046875 1710.015625 C -504.453125 1725.207031 -515.5625 1748.4375 -521.734375 1761.644531 C -527.902344 1774.855469 -533.132812 1785.839844 -533.355469 1786.0625 C -533.574219 1786.285156 -553.742188 1746.585938 -578.167969 1697.84375 C -602.59375 1649.105469 -624.316406 1607.367188 -626.441406 1605.097656 C -630.988281 1600.226562 -633.453125 1599.929688 -636.980469 1603.828125 M 70.859375 1603.53125 C 68.660156 1605.222656 61.621094 1620.472656 49.144531 1650.589844 C 25.195312 1708.386719 21.3125 1717.871094 0.296875 1769.898438 C -9.386719 1793.875 -19.214844 1817.417969 -21.542969 1822.222656 C -28.582031 1836.75 -34.199219 1841.117188 -48.09375 1842.851562 C -55.523438 1843.78125 -56.199219 1844.160156 -56.199219 1847.398438 L -56.199219 1850.933594 L 28.789062 1850.933594 L 28.789062 1847.40625 C 28.789062 1844.191406 28 1843.734375 19.972656 1842.296875 C 2.023438 1839.085938 2.089844 1838.28125 25.066406 1780.121094 L 28.984375 1770.207031 L 66.554688 1769.796875 C 95.949219 1769.472656 104.433594 1769.78125 105.542969 1771.214844 C 107.675781 1773.96875 129.902344 1830.421875 130.9375 1835.71875 C 131.699219 1839.613281 131.242188 1840.800781 128.007812 1843.347656 C 122.085938 1848 125.585938 1850.089844 142.222656 1851.828125 C 161.648438 1853.855469 209.277344 1852.359375 212.003906 1849.632812 C 215.328125 1846.308594 212.941406 1843.144531 207.117188 1843.144531 C 191.328125 1843.144531 183.078125 1836.339844 171.613281 1813.871094 C 166.914062 1804.65625 162.355469 1795.203125 161.488281 1792.867188 C 160.617188 1790.53125 152.140625 1769.816406 142.652344 1746.839844 C 133.164062 1723.859375 124.160156 1701.875 122.648438 1697.976562 C 121.132812 1694.082031 116.214844 1682.292969 111.714844 1671.777344 C 107.21875 1661.261719 99.5625 1642.78125 94.707031 1630.707031 C 88.679688 1615.722656 84.5625 1607.519531 81.742188 1604.859375 C 76.929688 1600.324219 75.289062 1600.125 70.859375 1603.53125 M 476.511719 1607.691406 C 475.332031 1611.441406 473.007812 1624.148438 470.65625 1639.734375 C 469.066406 1650.265625 468.945312 1654.199219 470.164062 1655.667969 C 473.222656 1659.351562 475.695312 1657.59375 479.871094 1648.761719 C 482.964844 1642.21875 485.589844 1638.917969 489.941406 1636.097656 C 496.910156 1631.585938 501.804688 1630.941406 534.199219 1630.285156 L 558.011719 1629.804688 L 557.433594 1729.039062 C 557.113281 1783.617188 556.261719 1830.503906 555.539062 1833.230469 C 553.949219 1839.230469 547.246094 1843.140625 538.535156 1843.140625 C 532.230469 1843.144531 528.925781 1845.644531 530.34375 1849.339844 C 531.136719 1851.40625 536.480469 1851.640625 582.824219 1851.640625 C 627.570312 1851.640625 634.527344 1851.359375 635.238281 1849.5 C 636.792969 1845.457031 633.109375 1843.570312 622.054688 1842.734375 C 608.007812 1841.671875 604.996094 1839.019531 603.121094 1826.046875 C 602.398438 1821.039062 601.792969 1774.984375 601.777344 1723.703125 L 601.75 1630.457031 L 631.140625 1630.957031 C 658.480469 1631.417969 660.957031 1631.675781 666.609375 1634.675781 C 673.039062 1638.089844 678.226562 1644.953125 678.234375 1650.0625 C 678.242188 1655.253906 679.8125 1657.617188 683.253906 1657.617188 C 687.972656 1657.617188 688.609375 1654.246094 688.464844 1630.136719 C 688.3125 1605.84375 687.667969 1604.15625 679.613281 1606.921875 C 676.089844 1608.128906 650.554688 1608.75 589.488281 1609.117188 C 516.792969 1609.550781 502.578125 1609.300781 492.660156 1607.417969 C 478.105469 1604.65625 477.460938 1604.667969 476.511719 1607.691406 M 1104.757812 1607.328125 C 1064.066406 1616.480469 1035.335938 1638.308594 1018.132812 1673.144531 C 1000.722656 1708.390625 999.722656 1745.910156 1015.191406 1783.289062 C 1029.777344 1818.535156 1063.503906 1845.621094 1103.179688 1853.960938 C 1117.621094 1856.996094 1150.140625 1857.347656 1164.089844 1854.621094 C 1205.4375 1846.527344 1241.199219 1818.515625 1256.003906 1782.621094 C 1259.867188 1773.25 1264.636719 1755.070312 1266.875 1741.175781 C 1269.980469 1721.859375 1265.289062 1691.039062 1256.164062 1670.875 C 1245.570312 1647.457031 1224.503906 1626.527344 1201.238281 1616.304688 C 1183.832031 1608.65625 1170.585938 1606.328125 1141.425781 1605.796875 C 1120.992188 1605.425781 1111.449219 1605.824219 1104.757812 1607.328125 M 1603.902344 1606.175781 C 1594.46875 1608.285156 1578.457031 1614.46875 1572.902344 1618.148438 C 1534.898438 1643.316406 1536.734375 1696.507812 1576.707031 1728.171875 C 1581.535156 1732 1593.277344 1740.34375 1602.796875 1746.714844 C 1624.125 1760.988281 1633.929688 1769.816406 1639.375 1779.640625 C 1643.148438 1786.453125 1643.5625 1788.464844 1643.554688 1799.949219 C 1643.546875 1810.378906 1642.972656 1813.765625 1640.40625 1818.578125 C 1636.378906 1826.136719 1628.484375 1832.601562 1619.734375 1835.507812 C 1609.78125 1838.8125 1589.480469 1837.699219 1579.425781 1833.292969 C 1566.03125 1827.421875 1555.363281 1812.523438 1551.742188 1794.636719 C 1549.746094 1784.789062 1546.613281 1781.5625 1542.773438 1785.398438 C 1540.691406 1787.484375 1540.359375 1791.464844 1540.269531 1815.699219 L 1540.160156 1843.605469 L 1546.535156 1846.855469 C 1558.699219 1853.058594 1576.507812 1856.367188 1597.527344 1856.332031 C 1630.125 1856.269531 1646.808594 1850.503906 1664.257812 1833.261719 C 1676.140625 1821.515625 1680.78125 1812.46875 1682.851562 1797.023438 C 1684.949219 1781.328125 1682.777344 1766.769531 1676.285156 1753.0625 C 1669.0625 1737.816406 1656.476562 1725.40625 1631.671875 1709.066406 C 1623.03125 1703.375 1614.398438 1697.679688 1605.769531 1691.976562 C 1580.574219 1675.277344 1574.589844 1649.4375 1591.980469 1632.4375 C 1600.46875 1624.140625 1618.429688 1620.503906 1632.769531 1624.179688 C 1649.269531 1628.40625 1659.1875 1638.019531 1663.257812 1653.738281 C 1664.421875 1658.226562 1665.761719 1662.527344 1666.238281 1663.296875 C 1667.574219 1665.457031 1672.199219 1664.953125 1673.125 1662.542969 C 1673.578125 1661.363281 1674.359375 1649.886719 1674.855469 1637.046875 L 1675.761719 1613.703125 L 1670.992188 1611.714844 C 1660.882812 1607.492188 1644.546875 1605.210938 1625.5625 1605.378906 C 1615.207031 1605.46875 1605.460938 1605.828125 1603.902344 1606.175781 M 2428.757812 1609.417969 C 2405.644531 1609.832031 2386.304688 1610.601562 2385.78125 1611.125 C 2385.253906 1611.652344 2385.21875 1613.3125 2385.695312 1614.820312 C 2386.394531 1617.023438 2388.355469 1617.722656 2395.734375 1618.410156 C 2400.773438 1618.882812 2406.234375 1619.980469 2407.859375 1620.851562 C 2414.714844 1624.519531 2414.832031 1626.144531 2414.820312 1717.40625 C 2414.808594 1798.996094 2413.644531 1831.761719 2410.546875 1837.542969 C 2408.933594 1840.554688 2401.019531 1843.125 2393.3125 1843.136719 C 2387.570312 1843.144531 2385.886719 1844.640625 2387.144531 1848.605469 C 2387.921875 1851.054688 2391.414062 1851.265625 2446.375 1852.195312 C 2502.234375 1853.132812 2505.273438 1853.050781 2516.109375 1850.296875 C 2544.554688 1843.0625 2564.65625 1826.449219 2572.128906 1803.988281 C 2574.707031 1796.25 2575.117188 1792.3125 2574.675781 1779.496094 C 2574.183594 1765.0625 2573.851562 1763.625 2568.6875 1753.453125 C 2561 1738.3125 2550.339844 1727.832031 2534.082031 1719.4375 C 2526.925781 1715.738281 2521.066406 1712.535156 2521.066406 1712.3125 C 2521.066406 1712.09375 2523.921875 1709.863281 2527.40625 1707.359375 C 2542.457031 1696.554688 2552.230469 1677.804688 2552.230469 1659.738281 C 2552.230469 1628.050781 2529.332031 1610.460938 2486.363281 1609.140625 C 2477.792969 1608.878906 2451.871094 1609.003906 2428.757812 1609.417969 M -377.933594 1611.585938 C -379.390625 1615.375 -377.300781 1617.960938 -372.78125 1617.960938 C -356.183594 1617.960938 -340.445312 1636.601562 -300.886719 1703.125 C -283.148438 1732.953125 -276.527344 1746.988281 -275.039062 1757.921875 C -273.1875 1771.542969 -274.414062 1826.914062 -276.726562 1833.898438 C -278.988281 1840.742188 -283.125 1843.09375 -292.941406 1843.125 C -298.964844 1843.140625 -300.335938 1843.621094 -300.9375 1845.925781 C -301.339844 1847.453125 -300.800781 1849.425781 -299.742188 1850.300781 C -297.269531 1852.355469 -198.871094 1852.523438 -196.828125 1850.480469 C -196.074219 1849.726562 -195.683594 1847.925781 -195.960938 1846.480469 C -196.375 1844.3125 -198.277344 1843.691406 -206.769531 1842.929688 C -229.378906 1840.910156 -228.730469 1842.304688 -229.457031 1794.164062 C -229.828125 1769.738281 -229.464844 1754.574219 -228.394531 1749.398438 C -225.636719 1736.125 -203.253906 1695.128906 -178.667969 1658.324219 C -159.277344 1629.289062 -148.964844 1619.929688 -134.417969 1618.152344 C -127.71875 1617.335938 -127.023438 1616.921875 -127.023438 1613.710938 L -127.023438 1610.171875 L -203.515625 1610.171875 L -203.515625 1613.257812 C -203.515625 1615.203125 -201.675781 1617.601562 -198.554688 1619.722656 C -190.71875 1625.054688 -191.589844 1630.640625 -203.5 1651.367188 C -208.828125 1660.644531 -214.707031 1671.105469 -216.566406 1674.609375 C -218.421875 1678.113281 -221.902344 1684.167969 -224.296875 1688.0625 C -226.6875 1691.957031 -231.488281 1700.5625 -234.964844 1707.183594 C -238.4375 1713.804688 -242.097656 1720.070312 -243.101562 1721.105469 C -244.597656 1722.65625 -247.636719 1718.253906 -260.207031 1696.324219 C -287.351562 1648.957031 -297.605469 1630.152344 -298.5 1626.078125 C -299.417969 1621.914062 -297.304688 1617.960938 -294.167969 1617.960938 C -291.457031 1617.960938 -289.054688 1614.351562 -290.046875 1611.765625 C -290.835938 1609.707031 -295.53125 1609.460938 -334.023438 1609.460938 C -371.027344 1609.460938 -377.234375 1609.761719 -377.933594 1611.585938 M 202.816406 1611.585938 C 201.15625 1615.910156 203.410156 1617.539062 212.148438 1618.332031 C 221.953125 1619.21875 227.195312 1622.011719 229.523438 1627.59375 C 230.585938 1630.140625 231.449219 1655.46875 232.105469 1703.644531 C 233.222656 1785.085938 233.550781 1788.058594 243.8125 1809.15625 C 259.617188 1841.644531 294.75 1859.316406 338.308594 1856.679688 C 365.511719 1855.035156 382.117188 1849.425781 398.796875 1836.246094 C 407.03125 1829.734375 417.460938 1815.867188 421.898438 1805.519531 C 430.601562 1785.238281 431.273438 1777.253906 432.277344 1681.691406 C 432.871094 1625.617188 433.109375 1624.25 442.96875 1620.304688 C 446.191406 1619.015625 451.066406 1617.960938 453.800781 1617.960938 C 459.304688 1617.960938 461.542969 1615.027344 458.671875 1611.566406 C 456.046875 1608.40625 374.90625 1608.421875 372.28125 1611.585938 C 369.398438 1615.058594 372.910156 1617.589844 382.082031 1618.652344 C 393.277344 1619.953125 398.734375 1623.457031 400.179688 1630.285156 C 400.804688 1633.242188 401.320312 1666.890625 401.320312 1705.058594 C 401.320312 1767.59375 401.058594 1775.574219 398.695312 1785.785156 C 390.664062 1820.453125 368.402344 1837.871094 334.90625 1835.691406 C 319.671875 1834.699219 309.058594 1830.542969 299.53125 1821.835938 C 285.507812 1809.019531 278.136719 1790.242188 275.957031 1761.785156 C 274.425781 1741.765625 275.21875 1634.167969 276.9375 1628.679688 C 278.816406 1622.675781 284.152344 1619.347656 293.4375 1618.390625 C 302.234375 1617.484375 303.527344 1616.578125 302.160156 1612.28125 C 301.289062 1609.539062 299.949219 1609.460938 252.449219 1609.460938 C 210.363281 1609.460938 203.519531 1609.753906 202.816406 1611.585938 M 709.914062 1611.585938 C 708.28125 1615.839844 710.539062 1617.957031 716.792969 1618.039062 C 725.308594 1618.152344 732.007812 1620.824219 735.472656 1625.496094 C 738.390625 1629.429688 738.445312 1630.847656 738.890625 1711.179688 C 739.335938 1792.136719 738.054688 1830.105469 734.664062 1836.550781 C 732.457031 1840.746094 731.144531 1841.40625 722.925781 1842.445312 C 712.515625 1843.761719 710.816406 1844.453125 710.816406 1847.394531 C 710.816406 1848.847656 711.933594 1850.367188 713.296875 1850.769531 C 717.339844 1851.96875 811.984375 1852.316406 813.890625 1851.140625 C 816.371094 1849.605469 816.054688 1845.023438 813.394531 1844.003906 C 812.164062 1843.53125 808.5 1843.140625 805.25 1843.136719 C 796.636719 1843.125 788.984375 1840.617188 786.695312 1837.054688 C 783.515625 1832.097656 781.640625 1805.925781 781.640625 1766.421875 L 781.640625 1729.84375 L 902.042969 1729.84375 L 902.015625 1769.851562 C 901.988281 1812.976562 900.585938 1833.042969 897.238281 1838.148438 C 895.566406 1840.703125 893.148438 1841.636719 885.625 1842.613281 C 876.023438 1843.867188 871.308594 1847.019531 874.453125 1850.082031 C 875.261719 1850.867188 896.640625 1851.609375 925.746094 1851.859375 C 969.792969 1852.238281 975.921875 1852.023438 977.90625 1850.042969 C 981.707031 1846.238281 977.347656 1843.632812 965.292969 1842.503906 C 952.375 1841.292969 949.511719 1838.816406 947.105469 1826.765625 C 944.691406 1814.683594 944.753906 1631.320312 947.175781 1626.8125 C 949.839844 1621.847656 955.234375 1619.070312 964.054688 1618.121094 C 971.519531 1617.320312 972.15625 1616.972656 972.15625 1613.710938 L 972.15625 1610.171875 L 873.003906 1610.171875 L 872.550781 1613.363281 C 871.984375 1617.351562 876.179688 1619.011719 887.5 1619.269531 C 890.453125 1619.339844 893.722656 1620.84375 896.707031 1623.507812 L 901.332031 1627.636719 L 901.769531 1668.121094 L 902.203125 1708.601562 L 781.375 1708.601562 L 781.863281 1669.234375 C 782.289062 1634.648438 782.652344 1629.410156 784.828125 1626.089844 C 788.171875 1620.992188 792.042969 1619.140625 799.363281 1619.140625 C 806.757812 1619.140625 811.566406 1615.214844 808.578125 1611.613281 C 805.902344 1608.394531 711.148438 1608.367188 709.914062 1611.585938 M 1294.917969 1611.585938 C 1293.429688 1615.460938 1295.554688 1617.957031 1300.378906 1617.992188 C 1308.488281 1618.050781 1315.976562 1620.476562 1319.769531 1624.269531 L 1323.441406 1627.941406 L 1323.433594 1723.859375 C 1323.425781 1822.34375 1322.867188 1833.707031 1317.789062 1838.78125 C 1316.636719 1839.933594 1311.382812 1841.578125 1306.113281 1842.441406 C 1297.320312 1843.882812 1296.527344 1844.296875 1296.527344 1847.472656 L 1296.527344 1850.933594 L 1345.9375 1851.304688 C 1397.386719 1851.695312 1400.6875 1851.355469 1397.808594 1845.984375 C 1396.742188 1843.988281 1394.222656 1843.34375 1385.8125 1842.921875 C 1367.460938 1841.992188 1366.839844 1840.09375 1366.714844 1784.335938 L 1366.644531 1751.722656 L 1381.871094 1752.246094 C 1391.535156 1752.574219 1398.21875 1753.476562 1400.164062 1754.710938 C 1401.851562 1755.785156 1411.027344 1768.3125 1420.558594 1782.554688 C 1443.097656 1816.230469 1455.613281 1832.839844 1462.777344 1838.585938 C 1477.769531 1850.605469 1493.445312 1854.066406 1523.871094 1852.085938 C 1539.90625 1851.042969 1541.578125 1850.679688 1541.578125 1848.25 C 1541.578125 1846.140625 1539.042969 1844.722656 1529.800781 1841.652344 C 1523.328125 1839.503906 1515.417969 1835.933594 1512.230469 1833.722656 C 1503.175781 1827.449219 1487.144531 1809.164062 1468.246094 1783.558594 C 1458.71875 1770.648438 1447.28125 1755.230469 1442.828125 1749.296875 L 1434.738281 1738.507812 L 1444.777344 1728.863281 C 1463.769531 1710.632812 1471.808594 1696.835938 1474.597656 1677.71875 C 1478.457031 1651.246094 1467.222656 1629.363281 1443.875 1617.871094 C 1428.839844 1610.46875 1419.15625 1609.566406 1354.207031 1609.511719 C 1303.503906 1609.46875 1295.625 1609.742188 1294.917969 1611.585938 M 1816.140625 1611.675781 C 1814.496094 1615.960938 1816.820312 1617.527344 1826.125 1618.394531 C 1831.238281 1618.871094 1836.984375 1620.285156 1838.894531 1621.535156 C 1845.746094 1626.027344 1845.882812 1627.675781 1846.199219 1710.015625 C 1846.578125 1810.007812 1845.21875 1835.179688 1839.175781 1840.199219 C 1838.160156 1841.039062 1833.382812 1842.140625 1828.558594 1842.644531 C 1819.289062 1843.613281 1815.121094 1846.839844 1818.992188 1850.050781 C 1820.976562 1851.695312 1919.332031 1852.519531 1921.933594 1850.914062 C 1924.140625 1849.550781 1923.539062 1846.191406 1920.835938 1844.796875 C 1919.472656 1844.09375 1914.027344 1843.1875 1908.730469 1842.78125 C 1897.785156 1841.945312 1894.457031 1839.792969 1891.964844 1831.957031 C 1890.9375 1828.726562 1890.101562 1809.082031 1889.691406 1778.351562 L 1889.042969 1729.84375 L 2009.722656 1729.84375 L 2009.683594 1759.941406 C 2009.636719 1795.128906 2007.734375 1829.21875 2005.460938 1835.597656 C 2003.597656 1840.804688 2001.84375 1841.730469 1991.457031 1842.953125 C 1983.632812 1843.875 1979.242188 1847.242188 1982.132812 1850.101562 C 1982.957031 1850.914062 2003.695312 1851.59375 2033.53125 1851.777344 C 2076.570312 1852.039062 2083.84375 1851.785156 2085.6875 1849.941406 C 2089.421875 1846.207031 2084.667969 1843.144531 2075.132812 1843.140625 C 2070.3125 1843.140625 2065.101562 1842.148438 2062.132812 1840.664062 C 2052.777344 1835.992188 2052.960938 1838.226562 2052.941406 1729.136719 C 2052.933594 1675.390625 2053.414062 1629.667969 2054.007812 1627.539062 C 2055.445312 1622.398438 2060.28125 1619.429688 2068.695312 1618.519531 C 2078.398438 1617.46875 2079.386719 1616.96875 2078.875 1613.363281 L 2078.421875 1610.171875 L 1980.683594 1610.171875 L 1980.683594 1613.664062 C 1980.683594 1616.921875 1981.394531 1617.265625 1991.003906 1618.714844 C 2008.933594 1621.410156 2009.523438 1623.261719 2009.648438 1677.089844 L 2009.722656 1708.601562 L 1889.089844 1708.601562 L 1889.5625 1668.589844 C 1890.058594 1626.058594 1890.320312 1624.425781 1897.195312 1620.75 C 1898.871094 1619.851562 1903.683594 1618.695312 1907.882812 1618.183594 C 1914.84375 1617.335938 1915.527344 1616.933594 1915.527344 1613.710938 L 1915.527344 1610.171875 L 1866.226562 1609.90625 C 1824.507812 1609.683594 1816.800781 1609.957031 1816.140625 1611.675781 M 2106.070312 1611.550781 C 2102.964844 1615.296875 2105.425781 1617.496094 2113.828125 1618.484375 C 2123.261719 1619.59375 2129.339844 1622.410156 2131.820312 1626.824219 C 2133.15625 1629.195312 2133.835938 1648.234375 2134.523438 1702.226562 C 2135.5 1778.792969 2135.933594 1783.921875 2143.070312 1802.992188 C 2152.128906 1827.203125 2173.683594 1846.070312 2200.5 1853.265625 C 2216.390625 1857.527344 2250.648438 1857.53125 2266.527344 1853.269531 C 2283.425781 1848.734375 2295.675781 1841.613281 2306.800781 1829.855469 C 2317.652344 1818.382812 2322.457031 1810.269531 2327.449219 1794.96875 C 2332.996094 1777.992188 2334.066406 1762.949219 2334.519531 1695.851562 C 2334.894531 1640.808594 2335.246094 1632.152344 2337.304688 1627.46875 C 2339.929688 1621.484375 2346.273438 1617.960938 2354.414062 1617.960938 C 2360.371094 1617.960938 2363.132812 1615.222656 2360.628906 1611.800781 C 2359.046875 1609.640625 2354.855469 1609.453125 2316.386719 1609.792969 L 2273.894531 1610.167969 L 2273.894531 1613.664062 C 2273.894531 1616.917969 2274.605469 1617.265625 2284.222656 1618.714844 C 2292.328125 1619.933594 2295.378906 1621.09375 2298.386719 1624.101562 L 2302.222656 1627.9375 L 2302.222656 1702.613281 C 2302.222656 1769.691406 2301.960938 1778.398438 2299.660156 1788.203125 C 2294.296875 1811.058594 2283.234375 1825.363281 2265.816406 1831.96875 C 2258.222656 1834.851562 2254.472656 1835.34375 2240.605469 1835.273438 C 2225.445312 1835.199219 2223.65625 1834.890625 2214.816406 1830.789062 C 2197.023438 1822.535156 2185.886719 1806.820312 2180.953125 1783.007812 C 2178.582031 1771.5625 2178.292969 1763.050781 2178.253906 1702.515625 C 2178.222656 1658.914062 2178.746094 1632.832031 2179.714844 1629.222656 C 2181.605469 1622.207031 2185.503906 1619.609375 2196.128906 1618.28125 C 2203.816406 1617.324219 2204.484375 1616.957031 2204.484375 1613.703125 L 2204.484375 1610.171875 L 2156.160156 1609.796875 C 2114.617188 1609.476562 2107.589844 1609.722656 2106.070312 1611.550781 M 1107.027344 1627.039062 C 1074.757812 1636.585938 1055.554688 1665.761719 1052.113281 1710.476562 C 1048.386719 1758.914062 1064.484375 1799.511719 1096.265625 1821.824219 C 1108.832031 1830.648438 1118.816406 1834.457031 1134.703125 1836.476562 C 1157.976562 1839.4375 1176.15625 1833.894531 1191.5 1819.164062 C 1209.011719 1802.347656 1217.667969 1778.585938 1218.945312 1743.816406 C 1220.359375 1705.289062 1213.261719 1678.234375 1195.59375 1654.78125 C 1176.214844 1629.058594 1139.296875 1617.492188 1107.027344 1627.039062 M 2459.785156 1627.4375 C 2457.457031 1628.042969 2457.308594 1630.898438 2457.660156 1668.699219 L 2458.035156 1709.308594 L 2472.199219 1709.746094 C 2488.535156 1710.253906 2495.132812 1708.722656 2501.789062 1702.882812 C 2509.628906 1695.996094 2513.226562 1686.015625 2513.253906 1671.070312 C 2513.273438 1660.28125 2512.714844 1657.125 2509.609375 1650.535156 C 2505.265625 1641.296875 2497.050781 1632.675781 2489.195312 1629.097656 C 2483.785156 1626.632812 2466.585938 1625.664062 2459.78125 1627.4375 M 1369.160156 1628.765625 C 1366.917969 1629.425781 1366.683594 1633.449219 1366.324219 1677.183594 C 1366.109375 1703.421875 1366.421875 1725.976562 1367.015625 1727.304688 C 1369.21875 1732.238281 1396.105469 1735.851562 1407.535156 1732.742188 C 1416.988281 1730.171875 1426.296875 1720.078125 1430.53125 1707.8125 C 1435.265625 1694.089844 1435.289062 1670.695312 1430.582031 1658.746094 C 1426.582031 1648.601562 1417.328125 1638.203125 1407.503906 1632.820312 C 1400.722656 1629.105469 1398.445312 1628.636719 1385.765625 1628.363281 C 1377.972656 1628.191406 1370.5 1628.375 1369.160156 1628.765625 M 62.558594 1680.664062 C 60.097656 1687.070312 53.246094 1704.789062 47.332031 1720.039062 C 41.414062 1735.289062 36.578125 1748.410156 36.578125 1749.195312 C 36.578125 1751.046875 95.472656 1751.785156 96.605469 1749.949219 C 97.050781 1749.230469 92.601562 1735.328125 86.714844 1719.058594 C 81.910156 1705.78125 77.113281 1692.5 72.324219 1679.210938 C 70.292969 1673.566406 68.273438 1668.960938 67.832031 1668.980469 C 67.390625 1669 65.019531 1674.257812 62.558594 1680.664062 M 2457.332031 1773.242188 C 2457.335938 1817.453125 2457.476562 1820.011719 2460.199219 1824.476562 C 2468.199219 1837.59375 2499.800781 1839.878906 2515.402344 1828.464844 C 2525.289062 1821.230469 2530 1811.300781 2530.726562 1796.167969 C 2532.152344 1766.550781 2520.121094 1743.382812 2497.316406 1731.835938 C 2490.070312 1728.167969 2487.480469 1727.667969 2473.261719 1727.214844 L 2457.324219 1726.707031 Z M 511.148438 1917.453125 C 510.492188 1918.257812 509.863281 1942.972656 509.75 1972.378906 L 509.546875 2025.839844 L 515.988281 2025.839844 C 521.945312 2025.839844 522.425781 2025.574219 522.425781 2022.230469 L 522.425781 2018.617188 L 527.488281 2022.476562 C 534.460938 2027.792969 545.226562 2028.691406 553.207031 2024.621094 C 566.550781 2017.8125 572.6875 2003.992188 571.761719 1982.816406 C 571.292969 1972.09375 570.472656 1968.277344 567.207031 1961.605469 C 558.992188 1944.816406 540.863281 1939.546875 528.136719 1950.25 L 523.84375 1953.863281 L 523.84375 1917.085938 L 518.097656 1916.539062 C 514.933594 1916.238281 511.808594 1916.648438 511.148438 1917.453125 M 786.722656 1917.414062 C 785.554688 1918.390625 785.144531 1921.257812 785.550781 1925.640625 L 786.175781 1932.367188 L 798.640625 1932.367188 L 798.640625 1917.101562 L 793.578125 1916.507812 C 790.796875 1916.183594 787.710938 1916.59375 786.722656 1917.414062 M 2406.457031 1916.511719 C 2405.601562 1916.796875 2404.917969 1920.429688 2404.917969 1924.695312 C 2404.917969 1932.972656 2404.292969 1932.4375 2414.476562 1932.898438 C 2418.25 1933.070312 2418.386719 1932.820312 2418.796875 1924.933594 C 2419.105469 1919.019531 2418.71875 1916.757812 2417.382812 1916.675781 C 2416.367188 1916.613281 2413.84375 1916.433594 2411.769531 1916.28125 C 2409.695312 1916.125 2407.304688 1916.230469 2406.457031 1916.511719 M -694.328125 1917.121094 L -694.449219 1971.316406 L -694.566406 2025.132812 L -622.082031 2025.890625 L -622.082031 2011.679688 L -680.15625 2011.679688 L -680.15625 1993.621094 L -680.160156 1975.566406 L -627.746094 1976.394531 L -627.746094 1962.109375 L -680.15625 1962.109375 L -680.15625 1930.953125 L -624.914062 1930.953125 L -624.746094 1927.765625 L -624.390625 1921.039062 L -624.207031 1917.496094 L -659.261719 1917.121094 C -678.546875 1916.910156 -694.324219 1916.910156 -694.328125 1917.121094 M -488.933594 1935.257812 L -488.933594 1953.726562 L -492.828125 1950.097656 C -506.746094 1937.132812 -529.613281 1947.628906 -535.953125 1969.886719 C -538.070312 1977.332031 -538.003906 1994.167969 -535.820312 2001.957031 C -533.421875 2010.507812 -525.464844 2020.964844 -518.746094 2024.390625 C -509.457031 2029.128906 -497.710938 2027.8125 -490.703125 2021.25 L -487.515625 2018.265625 L -487.515625 2022.136719 C -487.515625 2025.808594 -487.214844 2025.980469 -481.53125 2025.570312 L -475.546875 2025.132812 L -475.308594 1970.960938 L -475.066406 1916.789062 L -488.933594 1916.789062 Z M -269.496094 1917.378906 C -269.820312 1917.703125 -269.914062 1942.238281 -269.703125 1971.90625 L -269.3125 2025.839844 L -197.140625 2025.839844 L -197.140625 2011.679688 L -255.300781 2011.679688 L -254.902344 1993.878906 L -254.507812 1976.082031 L -203.515625 1975.566406 L -203.082031 1968.835938 L -202.648438 1962.109375 L -255.214844 1962.109375 L -255.214844 1930.953125 L -199.972656 1930.953125 L -199.972656 1916.789062 L -234.441406 1916.789062 C -253.398438 1916.789062 -269.171875 1917.054688 -269.496094 1917.378906 M -62.574219 1935.449219 L -62.574219 1954.105469 L -65.761719 1951.203125 C -70.832031 1946.585938 -74.675781 1945.113281 -81.660156 1945.113281 C -98.757812 1945.113281 -110.515625 1959.503906 -111.851562 1982.058594 C -112.894531 1999.640625 -107.761719 2012.773438 -96.230469 2022.050781 C -88.835938 2028 -77.988281 2028.9375 -69.789062 2024.328125 C -66.601562 2022.539062 -63.929688 2020.390625 -63.851562 2019.5625 C -63.773438 2018.730469 -63.269531 2019.644531 -62.730469 2021.59375 C -61.914062 2024.550781 -60.769531 2025.207031 -55.789062 2025.570312 L -49.828125 2026.003906 L -49.828125 1916.789062 L -62.574219 1916.789062 Z M 5.414062 1971.425781 L 5.414062 2026.0625 L 58.765625 2025.132812 L 65.652344 2020.871094 C 74.835938 2015.191406 79.558594 2006.269531 79.449219 1994.804688 C 79.347656 1983.933594 75.289062 1974.835938 68.742188 1970.789062 L 63.714844 1967.679688 L 67.222656 1964.171875 C 80.417969 1950.980469 75.84375 1927.457031 58.53125 1919.464844 C 53.75 1917.257812 49.171875 1916.847656 29.140625 1916.820312 L 5.414062 1916.789062 Z M 241.742188 1952.550781 C 241.621094 1972.21875 241.375 1995.539062 241.203125 2004.371094 C 240.777344 2025.578125 240.867188 2025.839844 248.339844 2025.839844 C 253.769531 2025.839844 254.457031 2025.457031 255.109375 2022.050781 C 255.507812 2019.964844 255.589844 2012.992188 255.292969 2006.558594 C 254.785156 1995.601562 254.984375 1994.578125 258.472656 1990.4375 C 260.519531 1988.003906 262.683594 1986.53125 263.285156 1987.164062 C 263.886719 1987.792969 268.574219 1995.640625 273.703125 2004.597656 C 278.828125 2013.554688 283.570312 2021.839844 284.242188 2023.007812 C 285.425781 2025.074219 301.457031 2027.058594 301.457031 2025.140625 C 301.457031 2024.675781 295.054688 2013.503906 287.230469 2000.3125 C 275.941406 1981.285156 273.289062 1975.808594 274.382812 1973.820312 C 275.144531 1972.441406 280.910156 1966.234375 287.195312 1960.019531 C 293.480469 1953.804688 298.625 1948.230469 298.625 1947.625 C 298.625 1947.023438 294.960938 1946.535156 290.480469 1946.535156 L 282.335938 1946.542969 L 268.878906 1961.167969 L 255.421875 1975.796875 L 254.65625 1916.789062 L 241.964844 1916.789062 Z M 348.359375 1971.316406 L 348.460938 2025.839844 L 363.921875 2025.839844 L 363.496094 2004.0625 L 363.074219 1982.277344 L 381.488281 1981.617188 C 400.929688 1980.914062 407.996094 1979.078125 414.589844 1973.019531 C 426.300781 1962.25 426.292969 1935.050781 414.566406 1924.273438 C 407.847656 1918.097656 400.683594 1916.789062 373.550781 1916.789062 L 348.257812 1916.789062 Z M 584.753906 1971.316406 L 584.753906 2025.839844 L 590.972656 2025.839844 C 596.9375 2025.839844 597.210938 2025.65625 597.699219 2021.238281 C 597.980469 2018.707031 598.03125 1994.171875 597.820312 1966.714844 L 597.429688 1916.789062 L 584.753906 1916.789062 Z M 614.777344 1924.226562 L 615.207031 1931.660156 L 621.933594 1932.09375 L 628.664062 1932.523438 L 628.664062 1916.789062 L 614.347656 1916.789062 Z M 712.234375 1971.316406 L 712.234375 2025.839844 L 724.984375 2025.839844 L 724.992188 2000.703125 C 724.996094 1986.875 725.652344 1973.214844 726.449219 1970.34375 C 729.628906 1958.898438 743.035156 1954.035156 751.460938 1961.277344 L 755.4375 1964.691406 L 755.871094 1995.339844 L 756.300781 2025.992188 L 762.953125 2025.5625 L 769.601562 2025.132812 L 769.402344 2005.304688 C 768.929688 1958.769531 769.132812 1961.46875 765.671875 1956.335938 C 756.832031 1943.214844 739.632812 1941.207031 727.460938 1951.878906 C 725.117188 1953.933594 724.984375 1953.046875 724.984375 1935.421875 L 724.984375 1916.789062 L 712.234375 1916.789062 Z M 1036.511719 1917.851562 C 1036.457031 1918.4375 1036.453125 1942.8125 1036.5 1972.023438 L 1036.589844 2025.132812 L 1061.03125 2025.132812 C 1083.429688 2025.132812 1085.957031 2024.875 1091.238281 2022.050781 C 1108.355469 2012.886719 1116.941406 1990.332031 1114.375 1961.273438 C 1113.0625 1946.464844 1108.734375 1935.386719 1101.242188 1927.679688 C 1092.226562 1918.40625 1085.957031 1916.789062 1059.019531 1916.789062 C 1046.691406 1916.789062 1036.5625 1917.269531 1036.511719 1917.851562 M 1128.675781 1924.578125 L 1128.675781 1932.367188 L 1141.152344 1932.367188 L 1141.640625 1925.167969 C 1141.914062 1921.207031 1141.867188 1917.703125 1141.542969 1917.378906 C 1141.21875 1917.054688 1138.191406 1916.789062 1134.8125 1916.789062 L 1128.675781 1916.789062 Z M 1305.734375 1924.578125 L 1305.734375 1932.367188 L 1318.484375 1932.367188 L 1318.484375 1916.789062 L 1305.734375 1916.789062 Z M 1334.667969 1918.675781 C 1334.269531 1919.714844 1334.242188 1940.90625 1334.609375 1965.765625 C 1334.972656 1990.628906 1335.316406 2014.351562 1335.375 2018.488281 L 1335.480469 2026.003906 L 1341.445312 2025.570312 C 1346.476562 2025.203125 1347.539062 2024.578125 1348.238281 2021.59375 C 1348.949219 2018.554688 1349.207031 2018.414062 1350.046875 2020.59375 C 1352.136719 2026.035156 1366.164062 2028.972656 1374.695312 2025.753906 C 1380.105469 2023.714844 1387.5 2016.425781 1391.132812 2009.554688 C 1395.183594 2001.886719 1396.351562 1976.707031 1393.101562 1967.164062 C 1388.066406 1952.386719 1377.382812 1944.34375 1364.238281 1945.433594 C 1358.351562 1945.921875 1355.726562 1946.960938 1352.449219 1950.101562 L 1348.230469 1954.144531 L 1348.230469 1916.789062 L 1341.8125 1916.789062 C 1337.773438 1916.789062 1335.125 1917.488281 1334.667969 1918.675781 M 1517.070312 1924.226562 L 1517.496094 1931.660156 L 1524.226562 1932.09375 L 1530.953125 1932.523438 L 1530.953125 1916.789062 L 1516.640625 1916.789062 Z M 1920.484375 1935.347656 L 1920.484375 1953.90625 L 1915.476562 1949.511719 C 1912.722656 1947.09375 1909.058594 1945.023438 1907.332031 1944.910156 C 1889.597656 1943.746094 1879.121094 1951.90625 1874.332031 1970.609375 C 1869.96875 1987.636719 1873.4375 2007.203125 1882.789062 2018.316406 C 1890.507812 2027.488281 1906.683594 2029.808594 1916.105469 2023.101562 C 1920.472656 2019.992188 1920.484375 2019.992188 1920.484375 2022.914062 C 1920.484375 2025.441406 1921.359375 2025.839844 1926.859375 2025.839844 L 1933.230469 2025.839844 L 1933.230469 1916.789062 L 1920.484375 1916.789062 Z M 1987.058594 1971.316406 L 1987.058594 2025.839844 L 2001.179688 2025.839844 L 2001.554688 1983.394531 L 2001.929688 1940.945312 L 2008.738281 1963.210938 C 2013.09375 1977.410156 2017.523438 1991.582031 2022.03125 2005.730469 L 2028.511719 2025.980469 L 2034.875 2025.558594 L 2041.242188 2025.132812 L 2045.175781 2012.386719 C 2047.34375 2005.375 2053.292969 1986.257812 2058.398438 1969.898438 L 2067.683594 1940.15625 L 2067.742188 1983 L 2067.796875 2025.839844 L 2081.960938 2025.839844 L 2081.960938 1916.789062 L 2072.71875 1916.789062 C 2063.941406 1916.789062 2063.402344 1916.984375 2061.992188 1920.683594 C 2059.113281 1928.25 2038.097656 1995.457031 2037.195312 1999.996094 C 2036.691406 2002.527344 2035.882812 2004.597656 2035.394531 2004.59375 C 2034.910156 2004.59375 2031.78125 1994.875 2028.445312 1982.996094 C 2025.105469 1971.117188 2019.101562 1951.363281 2015.097656 1939.097656 L 2007.820312 1916.789062 L 1987.058594 1916.789062 Z M 2220.777344 1971.316406 L 2220.777344 2025.839844 L 2234.941406 2025.839844 L 2234.941406 2008.949219 C 2234.941406 1992.347656 2235.003906 1992.007812 2238.707031 1989.09375 L 2242.476562 1986.132812 L 2250.15625 1999.257812 C 2254.378906 2006.480469 2259.535156 2015.414062 2261.617188 2019.113281 L 2265.394531 2025.839844 L 2281.804688 2025.839844 L 2277.925781 2019.113281 C 2275.789062 2015.414062 2269.105469 2004.160156 2263.0625 1994.101562 L 2252.082031 1975.816406 L 2265.683594 1961.527344 L 2279.28125 1947.238281 L 2262.5625 1946.316406 L 2235.015625 1975.566406 L 2234.980469 1946.175781 L 2234.941406 1916.789062 L 2220.777344 1916.789062 Z M 2374.875 1922.027344 L 2368.203125 1925.699219 L 2367.792969 1935.753906 C 2367.382812 1945.699219 2367.335938 1945.8125 2363.132812 1946.535156 C 2359.359375 1947.183594 2358.882812 1947.824219 2358.882812 1952.210938 C 2358.882812 1956.753906 2359.253906 1957.1875 2363.484375 1957.597656 L 2368.089844 1958.042969 L 2368.089844 1986.347656 C 2368.089844 2018.199219 2368.929688 2021.730469 2377.34375 2025.246094 C 2382.886719 2027.5625 2387.726562 2027.796875 2392.480469 2025.992188 C 2395.371094 2024.894531 2395.742188 2023.960938 2395.265625 2018.984375 C 2394.730469 2013.367188 2394.589844 2013.234375 2388.839844 2012.816406 L 2382.960938 2012.386719 L 2382.578125 1985.207031 L 2382.191406 1958.027344 L 2388.242188 1957.589844 C 2394.128906 1957.164062 2394.292969 1957.019531 2394.292969 1952.195312 C 2394.292969 1947.382812 2394.121094 1947.226562 2388.320312 1946.804688 L 2382.351562 1946.371094 L 2381.949219 1932.367188 L 2381.546875 1918.355469 Z M -413.152344 1922.804688 C -419.207031 1927.210938 -419.480469 1927.847656 -419.503906 1937.679688 L -419.527344 1946.53125 L -423.773438 1946.53125 C -427.777344 1946.53125 -428.023438 1946.855469 -428.023438 1952.105469 C -428.023438 1957.296875 -427.722656 1957.710938 -423.644531 1958.125 L -419.269531 1958.570312 L -419.449219 1984.960938 C -419.664062 2015.78125 -418.25 2021.910156 -410.144531 2025.296875 C -402.03125 2028.6875 -390.496094 2027.011719 -391.839844 2022.632812 C -392.132812 2021.671875 -392.761719 2019.132812 -393.230469 2016.992188 C -393.910156 2013.878906 -394.875 2013.09375 -398.023438 2013.09375 C -405.011719 2013.09375 -405.359375 2011.703125 -405.359375 1983.777344 L -405.359375 1957.863281 L -394.027344 1957.863281 L -394.027344 1946.53125 L -405.359375 1946.53125 L -405.359375 1933.078125 C -405.359375 1918.25 -405.90625 1917.53125 -413.152344 1922.804688 M 1231.707031 1923.390625 C 1226.476562 1927.113281 1226.414062 1927.269531 1226.414062 1936.84375 L 1226.414062 1946.53125 L 1222.164062 1946.53125 C 1218.152344 1946.53125 1217.914062 1946.84375 1217.914062 1952.195312 C 1217.914062 1957.546875 1218.152344 1957.859375 1222.164062 1957.859375 L 1226.414062 1957.859375 L 1226.414062 1985.523438 C 1226.414062 2017.429688 1227.417969 2021.796875 1235.523438 2025.183594 C 1241.199219 2027.554688 1246.746094 2027.84375 1250.28125 2025.953125 C 1252.132812 2024.964844 1252.582031 2023.269531 1252.164062 2018.875 C 1251.640625 2013.378906 1251.382812 2013.09375 1246.886719 2013.09375 C 1244.289062 2013.09375 1241.84375 2012.578125 1241.453125 2011.949219 C 1241.0625 2011.320312 1240.625 1999.050781 1240.472656 1984.6875 L 1240.199219 1958.570312 L 1246.054688 1958.132812 C 1251.835938 1957.703125 1251.910156 1957.628906 1251.910156 1952.195312 C 1251.910156 1946.742188 1251.855469 1946.691406 1245.9375 1946.257812 L 1239.96875 1945.824219 L 1240.390625 1932.722656 C 1240.871094 1917.84375 1240.328125 1917.257812 1231.707031 1923.390625 M 1488.164062 1922.871094 C 1482.984375 1925.949219 1482.902344 1926.136719 1482.5 1935.910156 C 1482.097656 1945.554688 1481.980469 1945.835938 1478.191406 1946.269531 C 1474.679688 1946.675781 1474.296875 1947.265625 1474.296875 1952.289062 C 1474.296875 1957.511719 1474.554688 1957.863281 1478.46875 1957.863281 L 1482.636719 1957.863281 L 1483.070312 1988.164062 C 1483.457031 2015.425781 1483.769531 2018.761719 1486.152344 2021.394531 C 1489.757812 2025.371094 1497.539062 2027.730469 1503.425781 2026.625 C 1508.105469 2025.75 1508.289062 2025.46875 1508.289062 2019.40625 C 1508.289062 2013.210938 1508.203125 2013.09375 1503.617188 2013.09375 C 1501.046875 2013.09375 1498.175781 2012.332031 1497.242188 2011.394531 C 1496.042969 2010.199219 1495.542969 2002.046875 1495.542969 1983.777344 L 1495.542969 1957.863281 L 1508.289062 1957.863281 L 1508.289062 1952.195312 C 1508.289062 1948.703125 1507.613281 1946.464844 1506.519531 1946.355469 C 1505.546875 1946.257812 1502.835938 1946.097656 1500.5 1946 L 1496.25 1945.824219 L 1495.84375 1932.722656 C 1495.621094 1925.515625 1494.980469 1919.652344 1494.425781 1919.683594 C 1493.871094 1919.71875 1491.054688 1921.152344 1488.164062 1922.871094 M 19.886719 1946.175781 L 20.289062 1961.402344 L 35.546875 1961.269531 C 56.386719 1961.089844 60.65625 1958.308594 60.65625 1944.9375 C 60.65625 1940.519531 59.722656 1938.296875 56.515625 1935.09375 C 52.417969 1930.992188 52.21875 1930.953125 35.929688 1930.953125 L 19.484375 1930.953125 Z M 363.78125 1947.949219 C 363.78125 1957.292969 363.941406 1965.421875 364.136719 1966.003906 C 364.804688 1968.011719 397.089844 1967.210938 401.046875 1965.089844 C 408.320312 1961.191406 411.390625 1947.96875 406.992188 1939.464844 C 403.078125 1931.894531 400.222656 1930.953125 381.171875 1930.953125 L 363.78125 1930.953125 Z M 1050.769531 1971.316406 L 1050.769531 2011.679688 L 1064.273438 2011.679688 C 1084.777344 2011.679688 1092.300781 2007.582031 1097.550781 1993.558594 C 1099.792969 1987.554688 1100.449219 1982.433594 1100.460938 1970.777344 C 1100.476562 1949.535156 1096.78125 1939.910156 1086.355469 1934.050781 C 1081.644531 1931.402344 1078.648438 1930.953125 1065.804688 1930.953125 L 1050.769531 1930.953125 Z M 111.507812 1946.566406 C 95.738281 1951.878906 88.164062 1966.320312 89.25 1989.015625 C 90.351562 2012.027344 100.910156 2025.695312 118.574219 2026.972656 C 128.675781 2027.703125 135.746094 2025.570312 142.308594 2019.808594 C 151.359375 2011.863281 154.191406 2003.585938 154.277344 1984.800781 C 154.324219 1974.90625 153.6875 1970.6875 151.332031 1965.367188 C 143.78125 1948.292969 128.210938 1940.941406 111.507812 1946.566406 M 189.554688 1945.3125 C 180.015625 1947.089844 172.570312 1953.050781 167.609375 1962.878906 C 163.699219 1970.632812 163.359375 1972.464844 163.433594 1985.480469 C 163.503906 1997.070312 164.109375 2000.988281 166.792969 2007.066406 C 172.855469 2020.816406 184.570312 2028.152344 198.566406 2026.964844 C 218.605469 2025.261719 229.21875 2010.882812 229.21875 1985.425781 C 229.21875 1966.816406 222.726562 1953.945312 210.449219 1948.230469 C 202.621094 1944.582031 197.382812 1943.851562 189.554688 1945.3125 M 663.894531 1945.265625 C 655.742188 1946.484375 652.617188 1948.128906 647.996094 1953.621094 C 636.996094 1966.691406 643.839844 1984.144531 662.089844 1989.5625 C 677.777344 1994.21875 682.605469 1996.378906 684.789062 1999.710938 C 691.988281 2010.699219 670.957031 2020.117188 659.933594 2010.84375 C 657.539062 2008.828125 655.566406 2006.121094 655.554688 2004.824219 C 655.507812 1999.894531 653.371094 1998.578125 647.121094 1999.632812 L 641.148438 2000.640625 L 642.082031 2005.804688 C 643.429688 2013.253906 648.828125 2020.738281 655.09375 2023.851562 C 662.386719 2027.46875 679.710938 2027.589844 686.738281 2024.0625 C 700.355469 2017.238281 703.832031 1995.753906 692.902344 1985.953125 C 690.488281 1983.785156 682.570312 1980.402344 665.070312 1974.054688 C 657.640625 1971.359375 655.28125 1968.496094 656.535156 1963.699219 C 659.144531 1953.730469 681.359375 1954.703125 683.398438 1964.878906 C 684.308594 1969.4375 685.085938 1969.734375 692.378906 1968.277344 C 696.632812 1967.425781 696.902344 1967.03125 696.203125 1962.722656 C 694.125 1949.917969 680.828125 1942.730469 663.894531 1945.265625 M 1173.511719 1945.195312 C 1162.542969 1947.910156 1155.613281 1956.269531 1155.601562 1966.804688 C 1155.582031 1980.027344 1160.417969 1984.976562 1178.902344 1990.660156 C 1195.363281 1995.722656 1198.085938 1997.617188 1198.085938 2004.003906 C 1198.085938 2010.558594 1192.726562 2014.511719 1183.835938 2014.511719 C 1175.738281 2014.511719 1169.085938 2009.8125 1167.597656 2003.042969 C 1166.683594 1998.867188 1166.464844 1998.761719 1160.765625 1999.703125 C 1152.828125 2001.015625 1152.859375 2000.976562 1154.476562 2007.34375 C 1156.445312 2015.101562 1164.023438 2023.53125 1170.871094 2025.585938 C 1194.746094 2032.734375 1215.585938 2017.875 1211.585938 1996.554688 C 1209.996094 1988.082031 1203.582031 1983.042969 1187.640625 1977.738281 C 1173.289062 1972.96875 1168.339844 1969.742188 1168.339844 1965.160156 C 1168.339844 1958.800781 1179.46875 1954.757812 1188.640625 1957.785156 C 1192.527344 1959.066406 1194.046875 1960.585938 1195.328125 1964.472656 C 1196.953125 1969.390625 1197.117188 1969.480469 1202.796875 1968.574219 C 1205.988281 1968.0625 1208.84375 1967.402344 1209.144531 1967.105469 C 1209.441406 1966.804688 1209.25 1964.589844 1208.722656 1962.179688 C 1207.5625 1956.898438 1202.011719 1950.003906 1196.71875 1947.265625 C 1191.492188 1944.5625 1180.15625 1943.550781 1173.511719 1945.195312 M 1753.203125 1945.152344 C 1745.753906 1946.390625 1739.496094 1949.3125 1736.15625 1953.113281 C 1732.761719 1956.980469 1729.261719 1964.382812 1729.261719 1967.703125 C 1729.261719 1970.179688 1730.15625 1970.605469 1735.351562 1970.605469 C 1741.054688 1970.605469 1741.558594 1970.285156 1743.28125 1965.519531 C 1744.578125 1961.929688 1746.523438 1959.847656 1749.894531 1958.4375 C 1762.84375 1953.027344 1774.296875 1959.53125 1772.925781 1971.519531 C 1772.472656 1975.46875 1772.09375 1975.640625 1757.027344 1978.703125 C 1747.171875 1980.703125 1739.695312 1983.089844 1736.355469 1985.300781 C 1722.4375 1994.511719 1723.394531 2016.183594 1738.082031 2024.4375 C 1742.910156 2027.148438 1745.191406 2027.511719 1753.628906 2026.90625 C 1761.707031 2026.332031 1764.648438 2025.40625 1769.675781 2021.863281 L 1775.832031 2017.523438 L 1776.273438 2021.328125 C 1776.675781 2024.804688 1777.308594 2025.171875 1783.625 2025.574219 C 1789.851562 2025.96875 1790.421875 2025.757812 1789.382812 2023.449219 C 1788.75 2022.039062 1787.855469 2007.183594 1787.398438 1990.433594 C 1786.464844 1956.164062 1785.789062 1953.5625 1776.496094 1948.46875 C 1769.890625 1944.84375 1761.921875 1943.710938 1753.203125 1945.152344 M 2125.871094 1944.640625 C 2115.761719 1946.007812 2112.4375 1947.21875 2107.898438 1951.203125 C 2102.554688 1955.894531 2096.742188 1966.753906 2098.261719 1969.207031 C 2098.738281 1969.976562 2101.628906 1970.605469 2104.691406 1970.605469 C 2109.6875 1970.605469 2110.460938 1970.113281 2112.285156 1965.742188 C 2114.972656 1959.3125 2121.582031 1955.914062 2129.628906 1956.820312 C 2138.542969 1957.824219 2142.414062 1960.894531 2143.597656 1967.894531 C 2144.765625 1974.796875 2143.78125 1975.773438 2134.371094 1977.0625 C 2130.863281 1977.542969 2123.0625 1979.222656 2117.035156 1980.792969 C 2108.253906 1983.085938 2105.230469 1984.609375 2101.867188 1988.445312 C 2091.105469 2000.695312 2094.085938 2018.230469 2108 2024.546875 C 2118.410156 2029.273438 2134.710938 2026.847656 2143.011719 2019.339844 C 2145.101562 2017.449219 2145.414062 2017.667969 2146.1875 2021.542969 C 2147.011719 2025.660156 2147.351562 2025.839844 2154.332031 2025.839844 C 2161.253906 2025.839844 2161.5625 2025.683594 2160.554688 2022.65625 C 2159.972656 2020.902344 2159.101562 2006.402344 2158.621094 1990.433594 C 2157.636719 1957.9375 2156.636719 1954.308594 2147.109375 1948.746094 C 2142.675781 1946.15625 2131.140625 1943.925781 2125.871094 1944.640625 M -585.960938 1947.921875 C -588.476562 1949.578125 -590.953125 1951.285156 -593.398438 1953.042969 C -596.519531 1955.324219 -596.585938 1955.285156 -596.585938 1950.953125 C -596.585938 1946.738281 -596.851562 1946.53125 -602.25 1946.53125 L -607.917969 1946.53125 L -607.917969 2025.996094 L -601.554688 2025.566406 L -595.191406 2025.132812 L -594.773438 1998.933594 C -594.226562 1964.804688 -592.242188 1959.714844 -578.90625 1958.214844 C -570.800781 1957.300781 -566.078125 1960.230469 -564.082031 1967.40625 C -563.269531 1970.335938 -562.601562 1984.683594 -562.597656 1999.285156 L -562.589844 2025.839844 L -549.695312 2025.839844 L -550.121094 1992.660156 C -550.597656 1955.765625 -550.679688 1955.433594 -561.160156 1948.300781 C -567.375 1944.070312 -579.816406 1943.878906 -585.960938 1947.921875 M -367.824219 1947.800781 C -375.136719 1951.183594 -380.335938 1956.8125 -384.324219 1965.652344 C -388.941406 1975.886719 -388.882812 1996.480469 -384.207031 2007.085938 C -378.585938 2019.839844 -367.609375 2027.257812 -354.367188 2027.257812 C -341.117188 2027.257812 -330.125 2019.820312 -324.558594 2007.085938 C -320.316406 1997.390625 -319.828125 1977.71875 -323.5625 1967.066406 C -329.972656 1948.792969 -350.585938 1939.820312 -367.824219 1947.800781 M -159.601562 1947.078125 C -161.941406 1948.097656 -164.726562 1949.984375 -165.796875 1951.273438 C -168.457031 1954.476562 -169.945312 1954.207031 -170.480469 1950.425781 C -170.859375 1947.777344 -171.949219 1947.164062 -176.957031 1946.804688 L -182.976562 1946.367188 L -182.976562 2025.839844 L -168.808594 2025.839844 L -168.808594 1998.792969 C -168.808594 1976.691406 -168.386719 1970.851562 -166.496094 1966.863281 C -163.789062 1961.167969 -158.207031 1957.863281 -151.289062 1957.863281 C -138.585938 1957.863281 -137.648438 1960.535156 -137.648438 1996.738281 L -137.648438 2025.839844 L -131.273438 2025.839844 C -125.613281 2025.839844 -124.898438 2025.484375 -124.878906 2022.65625 C -124.867188 2020.902344 -124.460938 2011.171875 -123.976562 2001.03125 C -122.332031 1966.867188 -124.855469 1955.925781 -136.121094 1948.335938 C -141.628906 1944.625 -152.621094 1944.035156 -159.601562 1947.078125 M 836.175781 1947.722656 C 833.839844 1949.152344 831.050781 1951.378906 829.984375 1952.675781 C 827.082031 1956.1875 825.550781 1955.535156 825.550781 1950.78125 C 825.550781 1946.769531 825.238281 1946.53125 819.886719 1946.53125 L 814.21875 1946.53125 L 814.21875 2025.84375 L 828.386719 2025.84375 L 828.386719 2000.527344 C 828.386719 1970.921875 828.871094 1967.65625 834.097656 1962.058594 C 837.320312 1958.613281 839.15625 1957.863281 844.375 1957.863281 C 857.628906 1957.863281 859.394531 1962.867188 859.484375 2000.703125 L 859.546875 2025.839844 L 872.296875 2025.839844 L 872.296875 1994.984375 C 872.296875 1965.796875 872.121094 1963.785156 869.109375 1957.820312 C 864.644531 1948.984375 858.320312 1945.113281 848.359375 1945.121094 C 843.160156 1945.125 838.960938 1946.023438 836.175781 1947.722656 M 902.75 1947.121094 C 896.859375 1949.753906 891.445312 1955.878906 887.625 1964.234375 C 884.953125 1970.085938 884.386719 1973.777344 884.363281 1985.480469 C 884.339844 1998.160156 884.753906 2000.488281 888.304688 2007.726562 C 894.042969 2019.410156 901.476562 2024.878906 912.542969 2025.5625 C 920.371094 2026.046875 921.71875 2025.691406 927.199219 2021.699219 L 933.234375 2017.304688 L 932.3125 2025.46875 C 931.808594 2029.957031 930.484375 2035.433594 929.371094 2037.636719 C 925.011719 2046.277344 908.773438 2048.132812 902.398438 2040.722656 C 900.644531 2038.683594 899.207031 2036.171875 899.207031 2035.144531 C 899.207031 2033.460938 893.414062 2031.507812 888.40625 2031.507812 C 885.445312 2031.507812 885.984375 2041.332031 889.242188 2046.675781 C 892.867188 2052.621094 901.949219 2057.132812 912.15625 2058.054688 C 927.203125 2059.421875 941.191406 2049.738281 944.421875 2035.726562 C 945.242188 2032.160156 945.898438 2011.257812 945.917969 1987.957031 L 945.953125 1946.53125 L 939.578125 1946.53125 C 933.613281 1946.53125 933.203125 1946.773438 933.203125 1950.316406 L 933.203125 1954.105469 L 930.015625 1951.121094 C 923.574219 1945.085938 911.332031 1943.292969 902.75 1947.121094 M 1265.367188 1946.441406 L 1261.117188 1947.265625 L 1260.675781 1986.554688 L 1260.238281 2025.839844 L 1274.574219 2025.839844 L 1274.582031 2000.703125 C 1274.589844 1973.332031 1275.601562 1967.128906 1280.867188 1962.1875 C 1283.820312 1959.410156 1285.253906 1959.070312 1290.609375 1959.875 C 1297.535156 1960.910156 1298.652344 1959.835938 1298.652344 1952.128906 C 1298.652344 1947.191406 1295.371094 1945.113281 1287.5625 1945.113281 C 1281.984375 1945.113281 1279.351562 1946.886719 1273.90625 1954.320312 C 1271.945312 1956.996094 1271.828125 1956.867188 1271.785156 1951.925781 C 1271.734375 1945.863281 1271.109375 1945.332031 1265.367188 1946.441406 M 1562.011719 1947.914062 C 1548.246094 1955.191406 1541.492188 1969.675781 1542.578125 1989.597656 C 1543.851562 2012.933594 1556.363281 2027.195312 1575.574219 2027.195312 C 1588.683594 2027.195312 1598.808594 2020.101562 1604.792969 2006.722656 C 1608.953125 1997.425781 1609.375 1977.652344 1605.648438 1966.972656 C 1602.976562 1959.332031 1595.714844 1951.253906 1588.039062 1947.394531 C 1581.78125 1944.246094 1568.445312 1944.515625 1562.011719 1947.914062 M 1642.148438 1947 C 1639.808594 1948.0625 1637.023438 1949.980469 1635.953125 1951.269531 C 1633.179688 1954.613281 1631.523438 1954.164062 1631.523438 1950.070312 C 1631.523438 1946.886719 1630.957031 1946.53125 1625.859375 1946.53125 L 1620.191406 1946.53125 L 1620.191406 2025.839844 L 1632.941406 2025.839844 L 1632.964844 2007.785156 C 1633.011719 1974.535156 1634.773438 1964.953125 1641.746094 1960.070312 C 1646.558594 1956.703125 1654.746094 1957.261719 1659.421875 1961.277344 L 1663.394531 1964.691406 L 1663.828125 1995.265625 L 1664.257812 2025.839844 L 1676.851562 2025.839844 L 1676.851562 1993.476562 C 1676.851562 1962.246094 1676.738281 1960.949219 1673.664062 1956.429688 C 1668.484375 1948.824219 1663.636719 1946.058594 1654.558594 1945.539062 C 1649.703125 1945.257812 1644.675781 1945.851562 1642.148438 1947 M 1824.3125 1947.972656 C 1821.667969 1949.632812 1818.59375 1951.898438 1817.484375 1953.007812 C 1814.738281 1955.753906 1814.648438 1955.652344 1815.375 1950.691406 C 1816.011719 1946.359375 1816 1946.351562 1809.820312 1946.796875 L 1803.625 1947.238281 L 1802.8125 2025.839844 L 1817.082031 2025.839844 L 1817.082031 1998.886719 C 1817.082031 1969.898438 1818.085938 1964.542969 1824.328125 1960.171875 C 1828.179688 1957.472656 1838.042969 1957.1875 1841.285156 1959.675781 C 1846.265625 1963.5 1846.828125 1967.257812 1846.828125 1996.792969 L 1846.828125 2025.996094 L 1853.554688 2025.566406 L 1860.285156 2025.132812 L 1860.285156 1993.976562 C 1860.285156 1965.214844 1860.058594 1962.386719 1857.351562 1957.234375 C 1852.972656 1948.882812 1848.289062 1946.039062 1837.957031 1945.457031 C 1830.824219 1945.054688 1828.195312 1945.539062 1824.3125 1947.972656 M 2193.734375 1946.929688 C 2192.496094 1947.878906 2190.449219 1950.566406 2189.1875 1952.902344 L 2186.894531 1957.152344 L 2186.835938 1951.839844 C 2186.78125 1946.597656 2186.707031 1946.53125 2181.113281 1946.53125 L 2175.449219 1946.53125 L 2175.308594 1957.507812 C 2175.164062 1970.605469 2175.046875 1983.707031 2174.953125 1996.808594 L 2174.742188 2025.132812 L 2181.46875 2025.566406 L 2188.195312 2025.996094 L 2188.195312 2001.761719 C 2188.195312 1988.433594 2188.914062 1974.679688 2189.789062 1971.199219 C 2192.300781 1961.222656 2198.339844 1957.738281 2206.867188 1961.332031 C 2208.621094 1962.074219 2209.839844 1961.203125 2211.472656 1958.046875 C 2214.640625 1951.921875 2214.238281 1948.648438 2210.085938 1946.757812 C 2205.417969 1944.632812 2196.613281 1944.726562 2193.734375 1946.929688 M 2306.394531 1947.785156 C 2293.640625 1953.578125 2285.933594 1968.347656 2285.933594 1987.003906 C 2285.933594 2000.96875 2289.746094 2011.027344 2297.875 2018.519531 C 2311.351562 2030.941406 2333.304688 2030.222656 2344.933594 2016.980469 C 2348.871094 2012.492188 2353.613281 2002.292969 2352.292969 2001.144531 C 2352.019531 2000.90625 2348.84375 2000.285156 2345.230469 1999.757812 C 2338.964844 1998.851562 2338.597656 1998.988281 2337.238281 2002.765625 C 2334.007812 2011.75 2327.214844 2015.480469 2316.65625 2014.066406 C 2309.601562 2013.121094 2303.875 2007.523438 2301.609375 1999.359375 C 2298.921875 1989.691406 2298.945312 1989.671875 2310.363281 1990.21875 C 2316.011719 1990.488281 2327.886719 1990.261719 2336.75 1989.714844 L 2352.863281 1988.714844 L 2352.1875 1979.308594 C 2351.453125 1969.105469 2346.808594 1958.085938 2340.941406 1952.617188 C 2332.832031 1945.058594 2317.207031 1942.875 2306.390625 1947.785156 M 2457.324219 1948.042969 C 2454.597656 1949.738281 2451.855469 1952 2451.234375 1953.074219 C 2449.390625 1956.253906 2447.800781 1955.3125 2447.964844 1951.132812 C 2448.105469 1947.535156 2447.660156 1947.207031 2442.097656 1946.804688 L 2436.078125 1946.367188 L 2436.078125 2025.996094 L 2442.804688 2025.566406 L 2449.535156 2025.132812 L 2450.242188 1996.808594 C 2450.714844 1977.847656 2451.539062 1967.453125 2452.734375 1965.367188 C 2455.59375 1960.367188 2460.34375 1957.859375 2466.957031 1957.859375 C 2471.882812 1957.859375 2473.957031 1958.691406 2477.265625 1962 L 2481.40625 1966.140625 L 2481.417969 1988.554688 C 2481.421875 2000.882812 2481.835938 2014.347656 2482.332031 2018.476562 L 2483.234375 2025.984375 L 2489.046875 2025.558594 L 2494.863281 2025.132812 L 2495.257812 1995.390625 C 2495.710938 1961.390625 2494.6875 1956.324219 2486.039062 1949.726562 C 2478.996094 1944.355469 2464.621094 1943.511719 2457.324219 1948.042969 M 2526.507812 1947.976562 C 2519.804688 1951.519531 2513.210938 1959.589844 2510.480469 1967.59375 C 2507.6875 1975.796875 2507.714844 1992.132812 2510.539062 2001.640625 C 2513.050781 2010.105469 2521.308594 2020.039062 2528.773438 2023.582031 C 2537.132812 2027.546875 2549.945312 2025.636719 2554.878906 2019.6875 C 2555.949219 2018.398438 2557.371094 2017.34375 2558.039062 2017.34375 C 2559.445312 2017.34375 2558.308594 2028.589844 2556.203125 2035.507812 C 2552.355469 2048.152344 2528.382812 2049.425781 2524.125 2037.214844 C 2522.792969 2033.386719 2522.007812 2032.921875 2516.890625 2032.921875 C 2511.523438 2032.921875 2511.152344 2033.183594 2511.152344 2036.960938 C 2511.152344 2047.328125 2526.132812 2058.425781 2540.085938 2058.402344 C 2548.238281 2058.386719 2559.613281 2053.691406 2564.574219 2048.292969 C 2571.398438 2040.871094 2572.058594 2035.6875 2572.058594 1989.546875 L 2572.058594 1946.53125 L 2565.683594 1946.53125 C 2559.71875 1946.53125 2559.3125 1946.773438 2559.3125 1950.316406 L 2559.3125 1954.105469 L 2556.125 1951.203125 C 2554.371094 1949.605469 2551.542969 1947.585938 2549.84375 1946.707031 C 2544.96875 1944.199219 2532.363281 1944.886719 2526.507812 1947.976562 M 436.277344 1978.75 C 436.6875 2008.035156 436.988281 2011.421875 439.59375 2015.929688 C 446.875 2028.519531 468.28125 2030.921875 477.808594 2020.214844 L 480.640625 2017.03125 L 481.363281 2021.082031 C 482.011719 2024.742188 482.628906 2025.132812 487.734375 2025.132812 L 493.386719 2025.132812 L 493.765625 1985.832031 L 494.140625 1946.53125 L 481.351562 1946.53125 L 481.351562 1968.289062 C 481.351562 1994.945312 479.855469 2003.90625 474.523438 2009.242188 C 470.003906 2013.761719 462.601562 2015.429688 456.847656 2013.21875 C 450.59375 2010.816406 448.519531 2003.898438 448.796875 1986.332031 C 448.925781 1978.074219 448.976562 1965.738281 448.902344 1958.921875 L 448.769531 1946.53125 L 435.832031 1946.53125 Z M 615.171875 1948.300781 C 614.816406 1949.277344 614.675781 1966.960938 614.863281 1987.601562 L 615.203125 2025.132812 L 621.933594 2025.566406 L 628.660156 2025.996094 L 628.660156 1946.53125 L 622.242188 1946.53125 C 618.398438 1946.53125 615.5625 1947.242188 615.171875 1948.300781 M 785.890625 1986.1875 L 785.890625 2025.839844 L 798.640625 2025.839844 L 798.640625 1946.53125 L 785.890625 1946.53125 Z M 1128.675781 1986.109375 L 1128.675781 2025.839844 L 1142.132812 2025.839844 L 1142.023438 1947.238281 L 1135.351562 1946.808594 L 1128.675781 1946.375 Z M 1305.269531 1947.59375 C 1304.921875 1948.175781 1304.976562 1966.023438 1305.390625 1987.25 L 1306.144531 2025.839844 L 1318.484375 2025.839844 L 1318.484375 1946.53125 L 1312.191406 1946.53125 C 1308.734375 1946.53125 1305.617188 1947.011719 1305.269531 1947.59375 M 1407.753906 1977.335938 C 1407.78125 2004.183594 1408.117188 2008.867188 1410.386719 2013.804688 C 1415.003906 2023.863281 1423.164062 2028.171875 1434.9375 2026.777344 C 1440.714844 2026.09375 1443.285156 2024.886719 1447.296875 2020.96875 L 1452.363281 2016.023438 L 1452.351562 2020.578125 C 1452.339844 2024.925781 1452.613281 2025.152344 1458.359375 2025.570312 L 1464.378906 2026.003906 L 1464.378906 1946.53125 L 1451.632812 1946.53125 L 1451.519531 1970.960938 C 1451.382812 2000.148438 1450.035156 2006.746094 1443.277344 2011.28125 C 1436.722656 2015.679688 1431.4375 2015.410156 1425.804688 2010.382812 L 1421.179688 2006.253906 L 1420.722656 1976.390625 L 1420.265625 1946.53125 L 1407.722656 1946.53125 Z M 1516.789062 1986.1875 L 1516.789062 2025.839844 L 1530.953125 2025.839844 L 1530.953125 1946.53125 L 1516.789062 1946.53125 Z M 2404.917969 1986.109375 L 2404.917969 2025.839844 L 2419.125 2025.839844 L 2418.375 1947.238281 L 2411.644531 1946.808594 L 2404.917969 1946.375 Z M -512.375 1958.625 C -519.617188 1962.226562 -522.050781 1968.113281 -522.683594 1983.558594 C -523.023438 1991.800781 -522.582031 1999.226562 -521.574219 2002.28125 C -517.746094 2013.878906 -504.882812 2018.210938 -496.128906 2010.847656 C -484.734375 2001.261719 -484.988281 1967.804688 -496.511719 1960.253906 C -501.628906 1956.902344 -507.671875 1956.28125 -512.375 1958.625 M -361.445312 1958.925781 C -364.503906 1960.457031 -367.722656 1963.824219 -369.871094 1967.742188 C -376.351562 1979.558594 -373.675781 2004.519531 -365.175781 2011.539062 C -363.855469 2012.628906 -359.765625 2013.78125 -356.09375 2014.09375 C -342.800781 2015.238281 -335.757812 2006.34375 -334.789062 1987.199219 C -333.964844 1970.902344 -339.175781 1960.878906 -350.039062 1957.859375 C -356.40625 1956.09375 -355.632812 1956.019531 -361.445312 1958.925781 M 116.777344 1957.910156 C 106.859375 1960.878906 102.523438 1969.613281 102.6875 1986.285156 C 102.871094 2005.195312 109.484375 2014.511719 122.71875 2014.511719 C 133.351562 2014.511719 139.652344 2006.226562 140.96875 1990.527344 C 142.421875 1973.199219 137.554688 1962.019531 126.785156 1957.953125 C 122.273438 1956.246094 122.332031 1956.25 116.777344 1957.910156 M 188.140625 1959.007812 C 180.566406 1963.152344 177.792969 1969.144531 177.070312 1982.910156 C 176.039062 2002.558594 182.972656 2014.511719 195.402344 2014.511719 C 209.027344 2014.511719 215.1875 2005.542969 215.335938 1985.496094 C 215.402344 1976.359375 214.785156 1972.390625 212.660156 1968.296875 C 207.269531 1957.914062 197.144531 1954.074219 188.140625 1959.007812 M 535.882812 1957.78125 C 531.9375 1959.433594 527.164062 1964.867188 525.273438 1969.851562 C 522.878906 1976.164062 523.296875 1999.4375 525.894531 2004.453125 C 531.214844 2014.742188 542.539062 2017.667969 550.644531 2010.847656 C 562.039062 2001.261719 561.785156 1967.804688 550.257812 1960.253906 C 546.058594 1957.5 539.316406 1956.339844 535.882812 1957.78125 M 1357.929688 1958.527344 C 1351.414062 1962.1875 1347.753906 1972.097656 1347.769531 1986.058594 C 1347.785156 2004.226562 1353.9375 2014.511719 1364.785156 2014.511719 C 1371.359375 2014.511719 1378.621094 2007.738281 1380.640625 1999.722656 C 1382.632812 1991.808594 1382.667969 1978.628906 1380.714844 1971.59375 C 1377.484375 1959.964844 1366.542969 1953.691406 1357.929688 1958.527344 M 1572.867188 1957.585938 C 1562.464844 1958.863281 1556.445312 1968.609375 1556.460938 1984.15625 C 1556.46875 1997.183594 1558.59375 2004.191406 1564.246094 2009.84375 C 1569.816406 2015.414062 1577.1875 2016.109375 1584.355469 2011.734375 C 1590.644531 2007.90625 1593.625 2001.347656 1594.371094 1989.726562 C 1595.714844 1968.847656 1587.015625 1955.847656 1572.867188 1957.585938 M 1896.695312 1958.582031 C 1889.074219 1961.894531 1886.046875 1970.664062 1886.722656 1987.480469 C 1887.164062 1998.414062 1887.886719 2002.109375 1890.386719 2006.152344 C 1896.375 2015.839844 1906.8125 2017.386719 1914.097656 2009.664062 C 1919.402344 2004.042969 1920.496094 1999.789062 1920.453125 1984.945312 C 1920.417969 1972.585938 1917.457031 1964.390625 1911.265625 1959.519531 C 1906.75 1955.96875 1903.234375 1955.742188 1896.695312 1958.582031 M 2312.390625 1958.480469 C 2306.933594 1961.417969 2303.390625 1966.050781 2301.765625 1972.378906 L 2300.398438 1977.6875 L 2319.371094 1977.6875 C 2340.292969 1977.6875 2340.210938 1977.734375 2336.402344 1968.792969 C 2332.160156 1958.839844 2320.785156 1953.957031 2312.390625 1958.480469 M -91.359375 1962.070312 C -97.25 1969.066406 -99.78125 1987.460938 -96.484375 1999.324219 C -95.667969 2002.269531 -93.054688 2006.886719 -90.679688 2009.59375 C -87.003906 2013.78125 -85.453125 2014.511719 -80.242188 2014.511719 C -75.316406 2014.511719 -73.285156 2013.671875 -69.816406 2010.203125 C -64.398438 2004.785156 -62.59375 1998.339844 -62.582031 1984.371094 C -62.570312 1966.003906 -68.242188 1957.863281 -81.054688 1957.863281 C -86.816406 1957.863281 -88.34375 1958.484375 -91.359375 1962.070312 M 906.453125 1960.175781 C 898.75 1965.566406 895.253906 1985.179688 899.480469 1999.285156 C 903.609375 2013.0625 916.300781 2017.535156 925.410156 2008.425781 C 930.808594 2003.027344 933.1875 1995.789062 933.1875 1984.769531 C 933.1875 1974 931.023438 1967.226562 925.960938 1962.167969 C 922.527344 1958.738281 920.445312 1957.859375 915.703125 1957.859375 C 912.429688 1957.859375 908.269531 1958.902344 906.453125 1960.175781 M 2532.398438 1959.65625 C 2522.914062 1964.355469 2518.910156 1989.242188 2525.460938 2002.773438 C 2533.050781 2018.445312 2553.363281 2015.632812 2557.726562 1998.308594 C 2564.292969 1972.238281 2550.25 1950.8125 2532.398438 1959.65625 M 19.667969 1993.976562 L 19.46875 2011.679688 L 35.460938 2011.675781 C 53.191406 2011.675781 59.878906 2009.617188 63.09375 2003.179688 C 65.511719 1998.347656 65.355469 1989.742188 62.757812 1984.722656 C 59.195312 1977.835938 54.265625 1976.273438 36.085938 1976.273438 L 19.871094 1976.273438 Z M 1773.011719 1986.820312 C 1772.566406 1987.265625 1766.523438 1988.867188 1759.585938 1990.378906 C 1742.640625 1994.070312 1737.679688 1999.492188 1742.191406 2009.390625 C 1745.800781 2017.308594 1758.703125 2017.472656 1767.054688 2009.707031 C 1770.765625 2006.257812 1772.109375 2003.527344 1773.277344 1997.074219 C 1774.730469 1989.023438 1774.632812 1985.199219 1773.011719 1986.820312 M 2129.210938 1990.488281 C 2121.308594 1992.46875 2113.882812 1994.882812 2112.707031 1995.859375 C 2109.363281 1998.632812 2108.589844 2004.1875 2110.917969 2008.6875 C 2113.449219 2013.582031 2115.574219 2014.511719 2124.21875 2014.507812 C 2136.875 2014.496094 2144.804688 2006.097656 2144.003906 1993.554688 L 2143.578125 1986.894531 Z M 964.367188 2017.175781 C 964.367188 2025.074219 964.601562 2025.683594 967.789062 2026.101562 C 971.140625 2026.542969 971.171875 2026.664062 969.253906 2032.195312 C 968.183594 2035.300781 966.410156 2038.492188 965.324219 2039.289062 C 962.835938 2041.105469 964.730469 2047.085938 967.789062 2047.085938 C 968.945312 2047.085938 971.566406 2044.886719 973.613281 2042.203125 C 977.457031 2037.160156 979.582031 2027.320312 979.355469 2015.582031 L 979.238281 2009.554688 L 971.800781 2009.128906 L 964.367188 2008.699219 Z M 964.367188 2017.175781 " fill-opacity="1" fill-rule="evenodd"/></g></svg>