<svg xmlns="http://www.w3.org/2000/svg" xmlns:xlink="http://www.w3.org/1999/xlink" width="512" zoomAndPan="magnify" viewBox="0 0 384 209.455" height="279.273" preserveAspectRatio="xMidYMid meet" version="1.1"><defs><clipPath id="2d1fb75e74"><path d="M34.545 31.818h314.727v148.621H34.545Zm0 0" clip-rule="nonzero"></path></clipPath></defs><g clip-path="url(#2d1fb75e74)"><path fill="#000000" d="m124.038 74.606 0.035 42.7 3.06 0.156c5.665 0.29 6.918 0.415 16.051 1.613 1.459 0.191 4.336 0.683 6.393 1.091 8.494 1.687 14.752 3.624 20.744 6.42 2.243 1.047 2.896 1.386 5.188 2.702 5.915 3.396 11.273 7.907 15.462 13.021 0.599 0.732 1.132 1.313 1.184 1.293 0.052 -0.021 0.533 -0.589 1.07 -1.262 7.302 -9.162 18.052 -15.896 31.572 -19.78 3.81 -1.094 9.104 -2.281 13.67 -3.063 4.305 -0.739 12.7 -1.625 18.902 -1.996 1.344 -0.08 2.491 -0.176 2.551 -0.212 0.059 -0.037 0.107 -19.265 0.107 -42.731V31.891l-3.026 0.093c-5.874 0.18 -8.7 0.398 -14.452 1.114 -7.353 0.915 -12.581 1.869 -18.283 3.338 -12.856 3.312 -20.955 7.247 -27.624 13.425 -3.842 3.558 -6.106 6.448 -8.336 10.642 -1.65 3.101 -2.595 5.849 -4.583 13.333 -1.746 6.569 -2.391 8.778 -3.336 11.428q-0.684 1.919 -1.367 3.838c-0.258 0.726 -0.469 1.413 -0.469 1.525 0 0.113 0.475 0.827 1.054 1.588 1.558 2.043 1.596 2.097 2.69 3.817 2.653 4.17 5.396 11.045 7.563 18.955 0.145 0.53 1.023 1.568 1.327 1.568 0.111 0 0.152 -3.543 0.152 -13.12 0 -12.826 -0.006 -13.122 -0.262 -13.203 -0.486 -0.154 -1.075 -0.902 -1.234 -1.567 -0.3 -1.253 0.353 -2.355 1.624 -2.735 1.41 -0.423 2.864 0.724 2.864 2.259 0 0.815 -0.331 1.424 -1.013 1.866l-0.479 0.311 -0.001 13.095c-0.001 7.202 0.032 13.095 0.073 13.095s0.249 -0.09 0.463 -0.201c0.504 -0.261 0.884 -0.892 1.148 -1.908 1.012 -3.893 3.789 -11.482 5.513 -15.065 1.311 -2.726 2.164 -4.057 4.746 -7.408l0.962 -1.249 -0.724 -1.813c-2.445 -6.126 -4.204 -12.535 -5.129 -18.685 -0.365 -2.43 -0.433 -6.433 -0.135 -8.093 0.236 -1.322 1.028 -3.791 1.548 -4.829 1.03 -2.056 2.615 -3.985 4.535 -5.518 5.184 -4.139 17.732 -8.479 30.46 -10.538 4.693 -0.759 10.808 -1.443 14.654 -1.64l1.87 -0.096 -0.002 35.426c-0.001 19.484 -0.051 35.503 -0.111 35.598 -0.072 0.114 -1.189 0.287 -3.296 0.509 -6.866 0.725 -8.245 0.921 -13.52 1.918 -4.061 0.768 -6.678 1.402 -11.786 2.857 -4.062 1.157 -9.631 3.317 -13.615 5.28 -2.642 1.301 -2.605 1.248 0.641 -0.933 3.269 -2.195 5.126 -3.27 8.705 -5.037 7.792 -3.846 15.484 -6.236 25.64 -7.968 1.383 -0.236 2.561 -0.5 2.616 -0.587 0.135 -0.212 0.129 -5.963 -0.007 -6.176 -0.18 -0.285 -4.273 0.419 -9.239 1.587 -11.068 2.605 -20.379 6.414 -28.174 11.527 -4.984 3.269 -7.397 5.231 -11.587 9.425 -2.775 2.778 -3.869 4.02 -6.015 6.829 -0.507 0.664 -0.944 1.207 -0.97 1.207 -0.026 0 -0.404 -0.475 -0.841 -1.054 -3.119 -4.148 -7.195 -8.422 -10.886 -11.414 -8.253 -6.688 -16.944 -11.207 -28.48 -14.809 -3.183 -0.993 -3.349 -1.038 -6.461 -1.761 -4.885 -1.134 -9.282 -1.851 -9.471 -1.545 -0.058 0.094 -0.093 1.548 -0.078 3.231l0.028 3.061 2.313 0.378c7.021 1.146 10.765 2.055 16.116 3.912 6.472 2.246 11.817 4.781 16.985 8.056 1.303 0.825 4.917 3.344 4.917 3.426 0 0.024 -1.239 -0.575 -2.754 -1.332 -3.488 -1.741 -8.17 -3.646 -11.936 -4.858 -2.42 -0.779 -8.04 -2.289 -10.859 -2.919 -5.018 -1.121 -11.749 -2.119 -17.025 -2.523 -1.16 -0.089 -2.185 -0.222 -2.279 -0.294 -0.136 -0.105 -0.17 -7.389 -0.17 -35.612V39.442l1.122 0.06c4.708 0.25 5.962 0.36 10.644 0.934 9.141 1.121 19.018 3.554 26.796 6.598 1.801 0.705 5.361 2.507 6.665 3.373 1.41 0.937 3.39 2.647 4.3 3.715 1.513 1.773 2.803 4.139 3.743 6.861 0.271 0.784 0.538 1.425 0.593 1.425s0.454 -0.689 0.885 -1.531c0.936 -1.828 2.055 -3.633 3.38 -5.455 1.555 -2.137 1.491 -1.816 0.581 -2.927 -1.052 -1.287 -3.673 -3.8 -5.408 -5.186 -5.609 -4.481 -12.066 -7.518 -21.685 -10.2 -9.528 -2.656 -21.982 -4.578 -32.159 -4.963 -1.085 -0.041 -3.028 -0.112 -4.319 -0.157l-2.347 -0.082ZM40.689 152.341c-0.269 0.297 -0.76 3.114 -1.566 8.977 -0.809 5.886 -1.889 12.618 -2.112 13.178 -0.237 0.592 -0.276 0.613 -1.474 0.801 -0.734 0.115 -1.127 0.484 -0.763 0.717 0.113 0.073 1.601 0.136 3.333 0.144 1.72 0.007 3.308 0.043 3.528 0.078 0.54 0.088 0.979 -0.037 1.083 -0.308 0.144 -0.375 -0.153 -0.553 -1.068 -0.639 -1.042 -0.097 -1.402 -0.292 -1.554 -0.842 -0.129 -0.465 0.086 -2.826 0.6 -6.598a675.273 675.273 0 0 0 0.613 -4.626c0.149 -1.16 0.284 -2.195 0.302 -2.3 0.018 -0.105 0.638 1.058 1.379 2.585 2.188 4.511 5.616 11.355 5.972 11.918 0.621 0.984 0.961 1.047 1.441 0.267 0.229 -0.372 3.686 -7.652 3.686 -7.762 0 -0.023 0.765 -1.609 1.7 -3.527 0.935 -1.917 1.7 -3.558 1.7 -3.648s0.033 -0.131 0.073 -0.091c0.04 0.041 0.221 1.198 0.402 2.574 0.182 1.376 0.452 3.359 0.6 4.406 0.432 3.039 0.83 6.352 0.83 6.9 0 0.365 -0.075 0.545 -0.272 0.65 -0.149 0.08 -0.272 0.264 -0.272 0.408 0 0.442 0.838 0.547 4.498 0.564 3.161 0.014 3.452 -0.004 3.616 -0.229 0.264 -0.361 -0.013 -0.607 -0.683 -0.607 -1.303 -0.002 -2.359 -0.638 -2.64 -1.592 -0.084 -0.284 -0.28 -1.268 -0.435 -2.185 -0.291 -1.718 -0.371 -2.258 -1.766 -11.936 -0.972 -6.742 -1.027 -7.04 -1.374 -7.353 -0.222 -0.202 -0.324 -0.215 -0.617 -0.081 -0.358 0.163 -0.299 0.048 -5.324 10.359 -0.711 1.46 -1.778 3.691 -2.371 4.96 -0.592 1.268 -1.095 2.324 -1.116 2.345 -0.021 0.021 -1.958 -3.792 -4.303 -8.475 -2.346 -4.682 -4.432 -8.692 -4.636 -8.91 -0.437 -0.468 -0.673 -0.496 -1.012 -0.122m67.973 -0.028c-0.212 0.162 -0.887 1.627 -2.085 4.521 -2.3 5.552 -2.672 6.463 -4.691 11.461 -0.93 2.303 -1.874 4.565 -2.097 5.026 -0.676 1.395 -1.216 1.815 -2.55 1.981 -0.714 0.089 -0.779 0.126 -0.779 0.437v0.34h8.161v-0.339c0 -0.309 -0.075 -0.352 -0.847 -0.491 -1.723 -0.308 -1.717 -0.386 0.489 -5.972l0.376 -0.952 3.608 -0.04c2.823 -0.031 3.638 -0.001 3.744 0.136 0.205 0.264 2.339 5.688 2.439 6.197 0.073 0.374 0.029 0.488 -0.281 0.732 -0.569 0.447 -0.232 0.648 1.365 0.815 1.865 0.195 6.439 0.051 6.701 -0.21 0.319 -0.32 0.09 -0.624 -0.47 -0.624 -1.516 0 -2.308 -0.653 -3.409 -2.812 -0.452 -0.885 -0.889 -1.793 -0.973 -2.017 -0.083 -0.225 -0.897 -2.215 -1.808 -4.422s-1.776 -4.32 -1.921 -4.694c-0.145 -0.374 -0.618 -1.506 -1.05 -2.517 -0.432 -1.01 -1.167 -2.785 -1.634 -3.945 -0.579 -1.44 -0.974 -2.227 -1.244 -2.483 -0.462 -0.436 -0.62 -0.455 -1.045 -0.127m38.955 0.399c-0.114 0.36 -0.337 1.581 -0.563 3.078 -0.153 1.012 -0.164 1.39 -0.048 1.531 0.294 0.354 0.531 0.185 0.933 -0.663 0.297 -0.629 0.549 -0.945 0.966 -1.217 0.67 -0.433 1.14 -0.495 4.251 -0.558l2.286 -0.046 -0.055 9.533c-0.031 5.244 -0.112 9.747 -0.182 10.009 -0.153 0.577 -0.797 0.952 -1.633 0.952 -0.606 0 -0.923 0.24 -0.787 0.595 0.077 0.199 0.589 0.221 5.04 0.221 4.297 0 4.965 -0.027 5.033 -0.205 0.149 -0.388 -0.205 -0.57 -1.266 -0.65 -1.349 -0.102 -1.638 -0.357 -1.818 -1.603 -0.069 -0.481 -0.127 -4.905 -0.129 -9.832l-0.003 -8.957 2.823 0.048c2.625 0.044 2.863 0.069 3.405 0.357 0.618 0.328 1.116 0.987 1.116 1.478 0.001 0.499 0.152 0.726 0.482 0.726 0.453 0 0.514 -0.324 0.5 -2.64 -0.014 -2.334 -0.076 -2.496 -0.849 -2.23 -0.339 0.116 -2.79 0.175 -8.655 0.211 -6.981 0.041 -8.346 0.018 -9.298 -0.163 -1.398 -0.265 -1.459 -0.264 -1.55 0.026m60.329 -0.035c-3.908 0.879 -6.666 2.976 -8.319 6.322 -1.671 3.386 -1.768 6.99 -0.282 10.581 1.401 3.386 4.639 5.988 8.449 6.789 1.386 0.292 4.509 0.325 5.849 0.063 3.971 -0.777 7.405 -3.468 8.827 -6.916 0.371 -0.9 0.829 -2.647 1.043 -3.981 0.299 -1.856 -0.152 -4.816 -1.028 -6.753 -1.017 -2.249 -3.04 -4.26 -5.274 -5.242 -1.672 -0.735 -2.944 -0.958 -5.744 -1.009 -1.962 -0.035 -2.879 0.003 -3.521 0.147m47.933 -0.111c-0.906 0.202 -2.444 0.797 -2.977 1.15 -3.649 2.418 -3.473 7.528 0.365 10.57 0.465 0.368 1.592 1.169 2.506 1.781 2.048 1.371 2.99 2.219 3.513 3.163 0.362 0.654 0.402 0.847 0.401 1.95 -0.001 1.002 -0.056 1.327 -0.303 1.79 -0.386 0.727 -1.145 1.347 -1.985 1.626 -0.956 0.317 -2.905 0.21 -3.871 -0.213 -1.286 -0.564 -2.311 -1.995 -2.658 -3.713 -0.192 -0.946 -0.493 -1.256 -0.862 -0.887 -0.2 0.2 -0.231 0.583 -0.24 2.911l-0.011 2.68 0.612 0.313c1.168 0.596 2.878 0.914 4.897 0.91 3.13 -0.006 4.732 -0.56 6.408 -2.216 1.141 -1.128 1.587 -1.997 1.785 -3.481 0.202 -1.508 -0.007 -2.906 -0.631 -4.224 -0.693 -1.464 -1.902 -2.656 -4.284 -4.226q-1.244 -0.82 -2.487 -1.641c-2.42 -1.605 -2.994 -4.087 -1.324 -5.72 0.815 -0.797 2.54 -1.147 3.917 -0.793 1.585 0.406 2.537 1.329 2.928 2.839 0.111 0.431 0.241 0.845 0.286 0.918 0.128 0.207 0.572 0.159 0.661 -0.072 0.043 -0.114 0.119 -1.216 0.166 -2.449l0.087 -2.243 -0.457 -0.191c-0.971 -0.405 -2.54 -0.624 -4.363 -0.609 -0.995 0.009 -1.931 0.043 -2.08 0.077m79.209 0.312c-2.219 0.039 -4.077 0.114 -4.127 0.164 -0.05 0.051 -0.054 0.21 -0.008 0.355 0.067 0.212 0.255 0.279 0.964 0.345 0.484 0.045 1.009 0.151 1.165 0.235 0.658 0.352 0.669 0.508 0.668 9.275 -0.001 7.838 -0.113 10.985 -0.411 11.54 -0.155 0.29 -0.915 0.536 -1.655 0.538 -0.552 0.001 -0.713 0.144 -0.592 0.526 0.075 0.235 0.41 0.256 5.687 0.345 5.364 0.09 5.656 0.082 6.697 -0.183 2.732 -0.695 4.662 -2.291 5.379 -4.448 0.248 -0.744 0.287 -1.121 0.245 -2.353 -0.048 -1.386 -0.08 -1.524 -0.575 -2.502 -0.738 -1.454 -1.762 -2.461 -3.323 -3.268 -0.687 -0.355 -1.25 -0.663 -1.25 -0.684s0.274 -0.235 0.609 -0.476c1.445 -1.038 2.384 -2.839 2.384 -4.575 0 -3.044 -2.199 -4.734 -6.325 -4.861 -0.823 -0.025 -3.313 -0.014 -5.532 0.027m-269.523 0.208c-0.14 0.364 0.061 0.612 0.495 0.612 1.594 0 3.105 1.791 6.904 8.181 1.703 2.866 2.339 4.214 2.481 5.264 0.178 1.308 0.06 6.627 -0.162 7.298 -0.217 0.658 -0.615 0.884 -1.557 0.887 -0.579 0.001 -0.71 0.048 -0.768 0.269 -0.039 0.147 0.013 0.336 0.115 0.421 0.238 0.197 9.687 0.214 9.883 0.017 0.072 -0.072 0.11 -0.245 0.083 -0.384 -0.04 -0.208 -0.222 -0.268 -1.038 -0.341 -2.171 -0.194 -2.109 -0.06 -2.179 -4.685 -0.035 -2.347 -0.001 -3.803 0.102 -4.3 0.265 -1.275 2.414 -5.213 4.776 -8.749 1.861 -2.788 2.852 -3.688 4.249 -3.859 0.644 -0.078 0.71 -0.119 0.71 -0.427v-0.34h-7.345v0.297c0 0.187 0.177 0.417 0.476 0.621 0.752 0.513 0.668 1.049 -0.475 3.041 -0.511 0.891 -1.076 1.896 -1.254 2.232 -0.178 0.337 -0.513 0.918 -0.743 1.293 -0.229 0.374 -0.69 1.201 -1.024 1.837 -0.334 0.636 -0.685 1.238 -0.781 1.337 -0.144 0.149 -0.436 -0.273 -1.643 -2.381 -2.607 -4.55 -3.592 -6.356 -3.677 -6.748 -0.088 -0.4 0.115 -0.78 0.416 -0.78 0.261 0 0.491 -0.346 0.395 -0.595 -0.075 -0.197 -0.526 -0.221 -4.223 -0.221 -3.553 0 -4.149 0.029 -4.217 0.204m55.769 0c-0.16 0.415 0.057 0.572 0.896 0.648 0.942 0.085 1.445 0.354 1.669 0.89 0.101 0.245 0.185 2.678 0.248 7.305 0.107 7.824 0.138 8.109 1.124 10.136 1.518 3.121 4.891 4.818 9.075 4.565 2.612 -0.158 4.207 -0.697 5.808 -1.963 0.791 -0.626 1.792 -1.957 2.219 -2.952 0.835 -1.948 0.9 -2.715 0.996 -11.895 0.057 -5.387 0.08 -5.518 1.026 -5.897 0.31 -0.124 0.778 -0.225 1.041 -0.225 0.528 0 0.744 -0.282 0.467 -0.615 -0.252 -0.303 -8.043 -0.302 -8.295 0.002 -0.277 0.334 0.06 0.577 0.941 0.679 1.075 0.125 1.599 0.462 1.738 1.117 0.06 0.284 0.109 3.516 0.109 7.183 0 6.007 -0.025 6.774 -0.252 7.755 -0.771 3.33 -2.909 5.004 -6.126 4.794 -1.462 -0.095 -2.482 -0.495 -3.397 -1.331 -1.347 -1.232 -2.055 -3.036 -2.264 -5.769 -0.147 -1.923 -0.071 -12.259 0.094 -12.786 0.181 -0.577 0.693 -0.896 1.585 -0.989 0.845 -0.087 0.969 -0.174 0.838 -0.587 -0.084 -0.264 -0.212 -0.271 -4.774 -0.271 -4.041 0 -4.698 0.028 -4.766 0.204m48.696 0c-0.157 0.408 0.06 0.612 0.661 0.62 0.817 0.011 1.461 0.268 1.793 0.716 0.281 0.378 0.285 0.514 0.328 8.232 0.043 7.777 -0.08 11.424 -0.405 12.043 -0.213 0.403 -0.338 0.467 -1.127 0.566 -1 0.127 -1.163 0.193 -1.163 0.476 0 0.139 0.107 0.285 0.238 0.324 0.389 0.115 9.477 0.149 9.66 0.035 0.239 -0.147 0.208 -0.587 -0.048 -0.685 -0.118 -0.045 -0.47 -0.083 -0.782 -0.083 -0.827 -0.001 -1.563 -0.242 -1.782 -0.584 -0.305 -0.476 -0.485 -2.99 -0.485 -6.785v-3.514h11.562l-0.003 3.844c-0.002 4.143 -0.137 6.07 -0.458 6.561 -0.161 0.246 -0.393 0.335 -1.116 0.429 -0.922 0.12 -1.374 0.423 -1.073 0.717 0.077 0.076 2.131 0.147 4.925 0.171 4.229 0.036 4.818 0.016 5.009 -0.175 0.366 -0.365 -0.053 -0.616 -1.211 -0.725 -1.24 -0.116 -1.516 -0.354 -1.746 -1.511 -0.232 -1.161 -0.226 -18.776 0.006 -19.209 0.256 -0.477 0.774 -0.744 1.621 -0.835 0.717 -0.077 0.778 -0.11 0.778 -0.424v-0.34h-9.521l-0.043 0.307c-0.055 0.384 0.348 0.543 1.435 0.567 0.283 0.007 0.597 0.151 0.884 0.407l0.444 0.397 0.042 3.889 0.042 3.889h-11.603l0.047 -3.782c0.041 -3.323 0.075 -3.825 0.285 -4.145 0.321 -0.489 0.693 -0.667 1.396 -0.667 0.71 0 1.172 -0.377 0.885 -0.723 -0.257 -0.31 -9.356 -0.312 -9.474 -0.003m56.177 0c-0.143 0.372 0.061 0.612 0.525 0.616 0.779 0.005 1.498 0.238 1.862 0.602l0.353 0.353 -0.001 9.214c-0.001 9.462 -0.055 10.553 -0.542 11.041 -0.111 0.111 -0.616 0.268 -1.121 0.351 -0.845 0.139 -0.921 0.178 -0.921 0.483v0.333l4.745 0.036c4.94 0.037 5.257 0.005 4.981 -0.511 -0.102 -0.192 -0.344 -0.253 -1.152 -0.294 -1.763 -0.089 -1.822 -0.271 -1.834 -5.629l-0.007 -3.132 1.462 0.05c0.928 0.032 1.57 0.119 1.756 0.237 0.162 0.103 1.043 1.306 1.959 2.674 2.164 3.236 3.366 4.831 4.054 5.384 1.44 1.154 2.945 1.486 5.867 1.296 1.54 -0.1 1.7 -0.135 1.7 -0.369 0 -0.203 -0.244 -0.339 -1.131 -0.634 -0.622 -0.207 -1.381 -0.549 -1.687 -0.761 -0.869 -0.603 -2.409 -2.359 -4.224 -4.82a772 772 0 0 0 -2.441 -3.291l-0.777 -1.036 0.965 -0.926c1.823 -1.752 2.595 -3.077 2.863 -4.913 0.371 -2.543 -0.708 -4.645 -2.95 -5.749 -1.445 -0.711 -2.374 -0.798 -8.611 -0.803 -4.869 -0.004 -5.625 0.023 -5.693 0.2m50.053 0.008c-0.158 0.412 0.065 0.562 0.959 0.646 0.491 0.045 1.043 0.182 1.226 0.302 0.658 0.431 0.672 0.59 0.702 8.499 0.036 9.606 -0.094 12.024 -0.675 12.507 -0.097 0.08 -0.556 0.186 -1.019 0.234 -0.89 0.093 -1.29 0.403 -0.918 0.712 0.19 0.158 9.636 0.237 9.885 0.083 0.212 -0.131 0.154 -0.454 -0.105 -0.587 -0.131 -0.068 -0.654 -0.155 -1.163 -0.194 -1.051 -0.08 -1.371 -0.287 -1.61 -1.04 -0.099 -0.31 -0.179 -2.197 -0.218 -5.15l-0.062 -4.66h11.589l-0.004 2.891c-0.004 3.38 -0.187 6.656 -0.405 7.268 -0.179 0.501 -0.347 0.589 -1.345 0.707 -0.751 0.089 -1.173 0.412 -0.896 0.687 0.079 0.078 2.071 0.144 4.936 0.161 4.133 0.025 4.832 0.001 5.009 -0.177 0.359 -0.359 -0.098 -0.653 -1.013 -0.653 -0.463 0 -0.963 -0.096 -1.249 -0.239 -0.899 -0.449 -0.881 -0.234 -0.883 -10.714 -0.001 -5.163 0.045 -9.555 0.103 -9.76 0.138 -0.494 0.602 -0.778 1.41 -0.866 0.931 -0.101 1.026 -0.149 0.977 -0.495l-0.043 -0.307h-9.386v0.336c0 0.313 0.068 0.346 0.991 0.485 1.721 0.259 1.778 0.437 1.79 5.608l0.007 3.027h-11.584l0.045 -3.844c0.048 -4.085 0.073 -4.242 0.733 -4.596 0.161 -0.086 0.623 -0.197 1.027 -0.246 0.668 -0.082 0.734 -0.12 0.734 -0.43v-0.34l-4.735 -0.025c-4.005 -0.022 -4.745 0.004 -4.809 0.17m27.842 -0.012c-0.298 0.36 -0.062 0.571 0.745 0.666 0.906 0.107 1.489 0.377 1.728 0.801 0.128 0.228 0.193 2.057 0.259 7.244 0.094 7.355 0.136 7.848 0.821 9.68 0.87 2.326 2.94 4.139 5.515 4.83 1.525 0.41 4.815 0.41 6.34 0.001 1.623 -0.436 2.799 -1.12 3.867 -2.25 1.043 -1.102 1.504 -1.881 1.984 -3.351 0.532 -1.631 0.635 -3.076 0.679 -9.521 0.035 -5.288 0.07 -6.119 0.267 -6.57 0.252 -0.575 0.861 -0.913 1.643 -0.913 0.572 0 0.837 -0.263 0.597 -0.592 -0.152 -0.207 -0.555 -0.226 -4.249 -0.193l-4.081 0.036v0.336c0 0.313 0.068 0.346 0.992 0.485 0.779 0.117 1.071 0.229 1.36 0.518l0.369 0.369v7.173c0 6.444 -0.025 7.281 -0.246 8.222 -0.515 2.195 -1.577 3.57 -3.25 4.205 -0.729 0.276 -1.089 0.324 -2.421 0.317 -1.455 -0.007 -1.627 -0.037 -2.476 -0.43 -1.708 -0.793 -2.778 -2.303 -3.252 -4.59 -0.228 -1.099 -0.256 -1.918 -0.259 -7.732 -0.003 -4.188 0.047 -6.695 0.141 -7.041 0.181 -0.673 0.555 -0.923 1.576 -1.05 0.738 -0.092 0.803 -0.128 0.803 -0.44v-0.339l-4.641 -0.036c-3.989 -0.031 -4.665 -0.007 -4.81 0.168m-95.937 1.488c-3.099 0.917 -4.943 3.72 -5.273 8.015 -0.358 4.653 1.188 8.553 4.24 10.697 1.207 0.848 2.165 1.214 3.691 1.408 2.234 0.284 3.981 -0.248 5.454 -1.663 1.682 -1.615 2.513 -3.898 2.636 -7.238 0.136 -3.701 -0.545 -6.3 -2.242 -8.553 -1.862 -2.471 -5.406 -3.582 -8.505 -2.665m129.904 0.038c-0.224 0.058 -0.237 0.333 -0.204 3.964l0.036 3.901 1.36 0.042c1.569 0.048 2.202 -0.099 2.842 -0.66 0.753 -0.661 1.098 -1.62 1.101 -3.056 0.001 -1.036 -0.052 -1.339 -0.35 -1.972 -0.417 -0.887 -1.206 -1.716 -1.96 -2.059 -0.52 -0.237 -2.171 -0.33 -2.825 -0.16m-104.731 0.128c-0.215 0.063 -0.237 0.449 -0.272 4.651 -0.021 2.52 0.009 4.687 0.066 4.814 0.212 0.475 2.794 0.822 3.891 0.523 0.908 -0.246 1.802 -1.217 2.208 -2.395 0.455 -1.318 0.457 -3.565 0.005 -4.714 -0.384 -0.975 -1.273 -1.973 -2.216 -2.49 -0.651 -0.357 -0.87 -0.402 -2.087 -0.428 -0.749 -0.016 -1.466 0.001 -1.595 0.039m-125.472 4.985a1654.727 1654.727 0 0 1 -1.462 3.783c-0.568 1.465 -1.033 2.726 -1.033 2.801 0 0.177 5.656 0.249 5.764 0.072 0.043 -0.069 -0.385 -1.404 -0.949 -2.967q-0.693 -1.914 -1.382 -3.828c-0.195 -0.543 -0.389 -0.985 -0.432 -0.983 -0.042 0.002 -0.27 0.507 -0.506 1.122m229.968 8.893c0 4.247 0.013 4.493 0.276 4.922 0.768 1.26 3.803 1.479 5.3 0.383 0.95 -0.695 1.402 -1.649 1.472 -3.102 0.137 -2.845 -1.019 -5.071 -3.208 -6.18 -0.696 -0.353 -0.945 -0.401 -2.31 -0.444l-1.53 -0.049Zm-186.89 13.854c-0.063 0.077 -0.124 2.451 -0.134 5.276l-0.02 5.136h0.619c0.573 0 0.619 -0.026 0.619 -0.347v-0.347l0.486 0.371c0.67 0.511 1.703 0.597 2.469 0.206 1.282 -0.654 1.871 -1.981 1.782 -4.016 -0.045 -1.031 -0.124 -1.397 -0.437 -2.038 -0.789 -1.613 -2.53 -2.119 -3.751 -1.091l-0.413 0.347v-3.533l-0.552 -0.053c-0.304 -0.029 -0.604 0.011 -0.667 0.088m26.463 -0.004c-0.112 0.094 -0.151 0.369 -0.112 0.79l0.06 0.646h1.197v-1.467l-0.486 -0.057c-0.267 -0.031 -0.563 0.008 -0.659 0.087m155.541 -0.087c-0.082 0.027 -0.148 0.376 -0.148 0.786 0 0.795 -0.06 0.743 0.917 0.788 0.362 0.016 0.376 -0.008 0.416 -0.765 0.029 -0.568 -0.008 -0.785 -0.136 -0.793 -0.097 -0.006 -0.34 -0.023 -0.539 -0.038 -0.199 -0.015 -0.428 -0.005 -0.51 0.023m-297.765 0.058 -0.011 5.206 -0.011 5.17 3.48 0.037 3.48 0.036v-1.365h-5.577v-3.469l5.033 0.08v-1.372h-5.033v-2.993h5.305l0.016 -0.306 0.034 -0.646 0.018 -0.34 -3.366 -0.036c-1.852 -0.021 -3.367 -0.021 -3.367 0m19.724 1.742v1.774l-0.374 -0.349c-1.336 -1.245 -3.532 -0.237 -4.141 1.901 -0.204 0.715 -0.197 2.332 0.013 3.081 0.23 0.821 0.995 1.825 1.639 2.155 0.892 0.455 2.021 0.329 2.693 -0.302l0.306 -0.286v0.371c0 0.353 0.029 0.369 0.575 0.329l0.575 -0.042 0.023 -5.204 0.023 -5.204h-1.332Zm21.073 -1.717c-0.031 0.031 -0.041 2.388 -0.02 5.238l0.038 5.181h6.93v-1.36h-5.585l0.038 -1.71 0.039 -1.709 4.896 -0.05 0.042 -0.646 0.041 -0.646h-5.048v-2.993h5.305v-1.361h-3.31c-1.82 0 -3.335 0.026 -3.367 0.057m19.87 1.736v1.792l-0.306 -0.278c-0.486 -0.444 -0.856 -0.585 -1.526 -0.585 -1.642 0 -2.771 1.382 -2.899 3.549 -0.1 1.689 0.393 2.95 1.5 3.842 0.71 0.571 1.751 0.661 2.539 0.219 0.306 -0.173 0.563 -0.379 0.57 -0.458 0.008 -0.079 0.056 0.008 0.107 0.195 0.079 0.284 0.188 0.347 0.667 0.381l0.572 0.042v-10.491h-1.224Zm6.529 3.456v5.249l5.124 -0.089 0.661 -0.409c0.882 -0.545 1.335 -1.403 1.325 -2.504 -0.009 -1.044 -0.399 -1.918 -1.028 -2.307l-0.482 -0.298 0.337 -0.337c1.267 -1.267 0.828 -3.527 -0.835 -4.295 -0.459 -0.212 -0.899 -0.251 -2.823 -0.254l-2.278 -0.003Zm22.695 -1.813c-0.012 1.889 -0.035 4.129 -0.052 4.978 -0.041 2.037 -0.033 2.063 0.685 2.063 0.521 0 0.587 -0.037 0.65 -0.364 0.038 -0.2 0.046 -0.87 0.018 -1.488 -0.049 -1.053 -0.03 -1.151 0.305 -1.549 0.196 -0.234 0.404 -0.375 0.462 -0.314 0.058 0.06 0.508 0.814 1 1.675l1.012 1.769c0.114 0.198 1.653 0.389 1.653 0.205 0 -0.044 -0.615 -1.118 -1.367 -2.385 -1.084 -1.828 -1.339 -2.354 -1.234 -2.545 0.073 -0.132 0.626 -0.729 1.23 -1.326 0.604 -0.596 1.098 -1.132 1.098 -1.19 0 -0.057 -0.352 -0.105 -0.782 -0.104l-0.783 0.001 -1.292 1.405 -1.293 1.405 -0.036 -2.835 -0.037 -2.834h-1.219Zm10.238 1.803 0.01 5.238h1.484l-0.081 -4.185 1.768 -0.064c1.867 -0.067 2.545 -0.244 3.178 -0.826 1.125 -1.034 1.124 -3.647 -0.002 -4.682 -0.645 -0.593 -1.333 -0.719 -3.939 -0.719h-2.428Zm22.701 0v5.238h0.597c0.572 0 0.599 -0.018 0.645 -0.442 0.027 -0.244 0.032 -2.6 0.011 -5.238l-0.037 -4.796h-1.217Zm2.883 -4.523 0.041 0.714 0.646 0.042 0.646 0.041v-1.511h-1.375Zm9.359 4.524v5.238h1.224l0.001 -2.415c0.001 -1.328 0.063 -2.641 0.14 -2.916 0.305 -1.1 1.593 -1.567 2.402 -0.871l0.382 0.328 0.041 2.945 0.042 2.944 1.277 -0.082 -0.019 -1.904c-0.045 -4.471 -0.025 -4.212 -0.358 -4.705 -0.849 -1.261 -2.501 -1.453 -3.67 -0.428 -0.225 0.197 -0.238 0.112 -0.238 -1.581v-1.79h-1.224Zm31.14 -5.136c-0.005 0.056 -0.005 2.398 -0.001 5.204l0.009 5.102h2.347c2.151 0 2.393 -0.024 2.901 -0.296 1.643 -0.88 2.468 -3.047 2.221 -5.838 -0.126 -1.423 -0.541 -2.487 -1.261 -3.227 -0.865 -0.891 -1.467 -1.046 -4.055 -1.046 -1.183 0 -2.156 0.046 -2.161 0.102m8.851 0.646v0.748h1.198l0.047 -0.692c0.026 -0.38 0.022 -0.717 -0.009 -0.748 -0.031 -0.031 -0.323 -0.057 -0.646 -0.057h-0.589Zm17.003 0v0.748h1.224v-1.496h-1.224Zm2.778 -0.567c-0.038 0.1 -0.041 2.136 -0.005 4.524 0.035 2.388 0.068 4.667 0.073 5.064l0.011 0.722 0.572 -0.042c0.483 -0.035 0.585 -0.095 0.653 -0.382 0.068 -0.292 0.093 -0.306 0.173 -0.096 0.201 0.523 1.548 0.805 2.367 0.496 0.519 -0.196 1.229 -0.896 1.578 -1.557 0.389 -0.736 0.501 -3.155 0.189 -4.072 -0.483 -1.42 -1.509 -2.193 -2.771 -2.088 -0.565 0.047 -0.817 0.147 -1.132 0.449l-0.405 0.388v-3.588h-0.616c-0.388 0 -0.642 0.068 -0.686 0.181m17.516 0.533 0.041 0.714 0.646 0.042 0.645 0.041v-1.511h-1.374Zm38.739 1.068v1.783l-0.481 -0.422c-0.264 -0.232 -0.617 -0.431 -0.782 -0.443 -1.703 -0.111 -2.709 0.673 -3.169 2.469 -0.419 1.636 -0.086 3.516 0.813 4.583 0.741 0.881 2.294 1.104 3.199 0.46 0.419 -0.299 0.42 -0.299 0.42 -0.018 0 0.243 0.084 0.281 0.612 0.281h0.612v-10.476h-1.225Zm6.393 3.455v5.238h1.356l0.036 -4.077 0.036 -4.078 0.653 2.139q0.628 2.045 1.276 4.085l0.623 1.945 0.611 -0.041 0.611 -0.041 0.378 -1.225c0.208 -0.673 0.779 -2.51 1.27 -4.081l0.891 -2.857 0.006 4.116 0.005 4.115h1.36v-10.476h-0.887c-0.843 0 -0.895 0.019 -1.03 0.375 -0.277 0.726 -2.295 7.182 -2.381 7.618 -0.048 0.244 -0.127 0.443 -0.173 0.442 -0.047 0 -0.347 -0.933 -0.668 -2.075 -0.32 -1.141 -0.897 -3.039 -1.281 -4.217l-0.699 -2.143H292.673Zm22.443 0v5.238h1.36v-1.623c0 -1.595 0.006 -1.627 0.362 -1.907l0.362 -0.285 0.738 1.261c0.405 0.693 0.901 1.552 1.1 1.907l0.363 0.646h1.576l-0.373 -0.646c-0.205 -0.355 -0.847 -1.437 -1.427 -2.403l-1.055 -1.756 1.306 -1.373 1.306 -1.372 -0.803 -0.045 -0.803 -0.044 -2.645 2.81 -0.004 -2.823 -0.004 -2.823h-1.36Zm14.798 -4.734 -0.641 0.352 -0.04 0.966c-0.039 0.955 -0.044 0.967 -0.447 1.035 -0.362 0.063 -0.409 0.124 -0.409 0.545 0 0.436 0.036 0.478 0.443 0.517l0.442 0.043v2.719c0 3.06 0.081 3.399 0.889 3.737 0.532 0.222 0.997 0.245 1.453 0.071 0.278 -0.105 0.313 -0.195 0.268 -0.672 -0.052 -0.54 -0.065 -0.553 -0.617 -0.593l-0.565 -0.041 -0.074 -5.221 0.581 -0.042c0.565 -0.041 0.581 -0.055 0.581 -0.519 0 -0.462 -0.016 -0.477 -0.573 -0.518l-0.573 -0.042 -0.039 -1.345 -0.038 -1.346Zm-267.731 0.075c-0.581 0.423 -0.607 0.484 -0.61 1.429l-0.001 0.85h-0.408c-0.384 0 -0.409 0.031 -0.409 0.536 0 0.499 0.029 0.538 0.421 0.578l0.42 0.043 -0.017 2.535c-0.021 2.96 0.115 3.55 0.893 3.875 0.779 0.325 1.887 0.164 1.758 -0.256 -0.029 -0.092 -0.088 -0.336 -0.134 -0.542 -0.065 -0.299 -0.158 -0.374 -0.46 -0.374 -0.671 0 -0.705 -0.133 -0.705 -2.816v-2.49h1.088v-1.088h-1.088v-1.293c0 -1.424 -0.053 -1.493 -0.749 -0.986m157.955 0.056c-0.503 0.357 -0.509 0.373 -0.509 1.293v0.93h-0.408c-0.385 0 -0.408 0.03 -0.408 0.544 0 0.514 0.023 0.544 0.408 0.544h0.408v2.658c0 3.065 0.096 3.484 0.875 3.81 0.545 0.228 1.077 0.256 1.417 0.074 0.177 -0.095 0.221 -0.258 0.18 -0.68 -0.05 -0.528 -0.075 -0.555 -0.506 -0.555 -0.249 0 -0.485 -0.05 -0.522 -0.11 -0.037 -0.06 -0.079 -1.239 -0.094 -2.619l-0.026 -2.509 0.563 -0.042c0.555 -0.041 0.562 -0.048 0.562 -0.571 0 -0.523 -0.005 -0.529 -0.573 -0.57l-0.573 -0.042 0.041 -1.259c0.046 -1.43 -0.006 -1.486 -0.834 -0.896m24.627 -0.05c-0.497 0.295 -0.505 0.313 -0.544 1.252 -0.038 0.927 -0.05 0.954 -0.414 0.996 -0.337 0.038 -0.374 0.095 -0.374 0.578 0 0.501 0.025 0.535 0.401 0.535h0.401l0.041 2.911c0.038 2.619 0.067 2.94 0.296 3.193 0.346 0.382 1.093 0.609 1.658 0.502 0.45 -0.084 0.467 -0.111 0.467 -0.693 0 -0.595 -0.009 -0.607 -0.449 -0.607 -0.247 0 -0.522 -0.073 -0.612 -0.163 -0.115 -0.115 -0.163 -0.898 -0.163 -2.653v-2.49h1.224v-0.544c0 -0.336 -0.065 -0.55 -0.17 -0.561a14.182 14.182 0 0 0 -0.578 -0.034l-0.408 -0.017 -0.039 -1.259c-0.021 -0.692 -0.082 -1.256 -0.136 -1.252 -0.053 0.003 -0.324 0.141 -0.602 0.306m-140.997 2.239 0.038 1.462 1.466 -0.013c2.001 -0.017 2.411 -0.284 2.411 -1.568 0 -0.425 -0.09 -0.638 -0.398 -0.946 -0.394 -0.394 -0.413 -0.398 -1.977 -0.398h-1.579Zm33.024 0.17c0 0.899 0.015 1.679 0.034 1.735 0.064 0.193 3.164 0.116 3.544 -0.088 0.699 -0.374 0.994 -1.645 0.571 -2.462 -0.376 -0.727 -0.65 -0.817 -2.479 -0.817h-1.67Zm65.97 2.245v3.878h1.297c1.969 0 2.692 -0.394 3.195 -1.741 0.216 -0.576 0.278 -1.068 0.28 -2.188 0.001 -2.041 -0.353 -2.965 -1.355 -3.528 -0.452 -0.254 -0.74 -0.298 -1.974 -0.298h-1.444Zm-90.196 -2.377c-1.514 0.51 -2.241 1.897 -2.137 4.077 0.105 2.211 1.119 3.523 2.816 3.646 0.969 0.07 1.648 -0.135 2.279 -0.688 0.869 -0.764 1.141 -1.558 1.149 -3.363 0.004 -0.95 -0.057 -1.356 -0.283 -1.867 -0.725 -1.64 -2.221 -2.346 -3.825 -1.805m7.495 -0.121c-0.916 0.171 -1.631 0.743 -2.108 1.687 -0.376 0.745 -0.408 0.921 -0.401 2.171 0.006 1.114 0.065 1.49 0.323 2.074 0.582 1.321 1.707 2.025 3.051 1.911 1.925 -0.163 2.943 -1.545 2.943 -3.99 0 -1.788 -0.624 -3.024 -1.802 -3.573 -0.752 -0.351 -1.255 -0.421 -2.006 -0.281m45.55 -0.004c-0.783 0.117 -1.082 0.275 -1.526 0.803 -1.057 1.256 -0.399 2.932 1.353 3.453 1.506 0.447 1.97 0.655 2.18 0.975 0.692 1.055 -1.328 1.96 -2.386 1.07 -0.23 -0.194 -0.42 -0.454 -0.421 -0.578 -0.004 -0.474 -0.21 -0.601 -0.81 -0.499l-0.574 0.097 0.089 0.496c0.13 0.716 0.648 1.435 1.25 1.734 0.7 0.347 2.364 0.359 3.038 0.021 1.308 -0.655 1.641 -2.72 0.593 -3.661 -0.232 -0.208 -0.992 -0.533 -2.673 -1.143 -0.713 -0.258 -0.94 -0.533 -0.82 -0.994 0.251 -0.958 2.384 -0.864 2.579 0.114 0.088 0.437 0.163 0.466 0.863 0.326 0.408 -0.082 0.435 -0.119 0.367 -0.533 -0.2 -1.23 -1.477 -1.92 -3.103 -1.677m48.938 -0.007c-1.053 0.261 -1.719 1.064 -1.72 2.076 -0.001 1.27 0.463 1.746 2.238 2.292 1.581 0.486 1.842 0.668 1.842 1.282 0 0.629 -0.514 1.009 -1.368 1.009 -0.778 0 -1.416 -0.452 -1.559 -1.102 -0.088 -0.401 -0.109 -0.411 -0.656 -0.32 -0.763 0.126 -0.759 0.122 -0.604 0.734 0.189 0.746 0.917 1.555 1.575 1.752 2.293 0.687 4.294 -0.74 3.91 -2.788 -0.153 -0.814 -0.769 -1.298 -2.3 -1.807 -1.378 -0.458 -1.853 -0.769 -1.853 -1.208 0 -0.611 1.068 -1 1.95 -0.709 0.373 0.123 0.519 0.269 0.642 0.642 0.156 0.473 0.172 0.482 0.717 0.394 0.307 -0.049 0.581 -0.112 0.61 -0.141 0.028 -0.029 0.01 -0.242 -0.041 -0.473 -0.111 -0.507 -0.645 -1.17 -1.153 -1.433 -0.502 -0.259 -1.59 -0.356 -2.229 -0.199m55.667 -0.004c-0.715 0.119 -1.316 0.399 -1.637 0.764 -0.326 0.371 -0.662 1.083 -0.662 1.402 0 0.238 0.086 0.279 0.584 0.279 0.548 0 0.597 -0.031 0.762 -0.489 0.124 -0.345 0.311 -0.545 0.635 -0.681 1.244 -0.519 2.343 0.105 2.212 1.256 -0.043 0.38 -0.08 0.396 -1.527 0.69 -0.946 0.193 -1.664 0.422 -1.985 0.634 -1.336 0.884 -1.244 2.967 0.166 3.759 0.464 0.261 0.683 0.295 1.493 0.237 0.776 -0.055 1.058 -0.144 1.541 -0.484l0.591 -0.417 0.043 0.366c0.038 0.334 0.099 0.369 0.706 0.408 0.597 0.038 0.653 0.018 0.553 -0.205 -0.06 -0.135 -0.146 -1.563 -0.19 -3.171 -0.089 -3.292 -0.155 -3.542 -1.047 -4.031 -0.634 -0.349 -1.4 -0.457 -2.237 -0.318m35.787 -0.05c-0.971 0.131 -1.29 0.248 -1.726 0.631 -0.513 0.45 -1.071 1.493 -0.925 1.729 0.045 0.074 0.324 0.135 0.617 0.135 0.48 0 0.554 -0.047 0.729 -0.467 0.259 -0.617 0.893 -0.944 1.665 -0.857 0.857 0.097 1.228 0.391 1.342 1.064 0.112 0.663 0.018 0.757 -0.886 0.881 -0.337 0.046 -1.086 0.207 -1.665 0.359 -0.843 0.22 -1.133 0.366 -1.456 0.735 -1.033 1.177 -0.747 2.861 0.589 3.468 0.999 0.455 2.565 0.221 3.362 -0.5 0.2 -0.182 0.231 -0.161 0.305 0.212 0.08 0.396 0.112 0.413 0.782 0.413 0.665 0 0.695 -0.015 0.598 -0.306 -0.056 -0.168 -0.14 -1.561 -0.186 -3.095 -0.095 -3.121 -0.19 -3.47 -1.105 -4.005 -0.426 -0.249 -1.533 -0.462 -2.04 -0.394m-260.414 0.315a20.545 20.545 0 0 0 -0.714 0.492c-0.301 0.219 -0.306 0.215 -0.306 -0.201 0 -0.405 -0.025 -0.425 -0.544 -0.425h-0.544v7.634l0.611 -0.041 0.611 -0.042 0.04 -2.516c0.053 -3.279 0.243 -3.768 1.523 -3.912 0.778 -0.088 1.231 0.194 1.423 0.884 0.078 0.281 0.142 1.659 0.143 3.062l0.001 2.551h1.239l-0.041 -3.187c-0.045 -3.544 -0.054 -3.576 -1.06 -4.261 -0.597 -0.406 -1.792 -0.425 -2.382 -0.036m20.947 -0.012c-0.702 0.325 -1.201 0.866 -1.585 1.715 -0.443 0.983 -0.437 2.962 0.011 3.98 0.54 1.225 1.594 1.938 2.865 1.938 1.273 0 2.328 -0.714 2.863 -1.938 0.408 -0.931 0.454 -2.821 0.095 -3.844 -0.615 -1.755 -2.595 -2.617 -4.25 -1.851m19.995 -0.069c-0.224 0.098 -0.492 0.279 -0.595 0.403 -0.256 0.308 -0.398 0.282 -0.45 -0.081 -0.035 -0.255 -0.141 -0.313 -0.621 -0.348l-0.578 -0.042v7.634h1.36v-2.598c0 -2.124 0.041 -2.685 0.223 -3.067 0.259 -0.547 0.795 -0.865 1.46 -0.865 1.22 0 1.31 0.257 1.31 3.735v2.795h0.612c0.543 0 0.612 -0.034 0.614 -0.306 0.001 -0.168 0.04 -1.103 0.087 -2.077 0.158 -3.282 -0.085 -4.332 -1.167 -5.062 -0.528 -0.356 -1.585 -0.413 -2.255 -0.121m95.624 0.062c-0.225 0.137 -0.492 0.352 -0.595 0.476 -0.278 0.337 -0.425 0.275 -0.425 -0.182 0 -0.385 -0.031 -0.408 -0.544 -0.408h-0.544v7.619h1.36v-2.432c0 -2.844 0.047 -3.158 0.548 -3.695 0.31 -0.331 0.486 -0.403 0.987 -0.403 1.273 0 1.442 0.481 1.451 4.116l0.006 2.415h1.225v-2.965c0 -2.803 -0.016 -2.996 -0.306 -3.57 -0.428 -0.849 -1.036 -1.221 -1.992 -1.22 -0.499 0 -0.903 0.087 -1.17 0.25m6.393 -0.057c-0.566 0.252 -1.086 0.841 -1.453 1.643 -0.257 0.563 -0.311 0.917 -0.313 2.041 -0.003 1.218 0.037 1.442 0.379 2.137 0.551 1.122 1.264 1.648 2.327 1.713 0.751 0.047 0.881 0.013 1.407 -0.371l0.579 -0.422 -0.088 0.784c-0.048 0.431 -0.175 0.957 -0.283 1.169 -0.418 0.83 -1.978 1.008 -2.59 0.296 -0.168 -0.196 -0.306 -0.437 -0.306 -0.535 0 -0.162 -0.557 -0.35 -1.037 -0.35 -0.285 0 -0.233 0.944 0.08 1.457 0.348 0.571 1.219 1.004 2.2 1.093 1.445 0.131 2.788 -0.798 3.099 -2.145 0.079 -0.342 0.142 -2.35 0.143 -4.589l0.004 -3.979h-0.612c-0.573 0 -0.612 0.024 -0.612 0.364v0.364l-0.306 -0.286c-0.619 -0.58 -1.794 -0.752 -2.618 -0.384m34.822 -0.065 -0.409 0.079 -0.042 3.774 -0.043 3.774h1.376l0.001 -2.415c0.001 -2.629 0.097 -3.225 0.603 -3.7 0.284 -0.266 0.422 -0.299 0.936 -0.222 0.665 0.099 0.772 -0.004 0.772 -0.744 0 -0.474 -0.315 -0.674 -1.065 -0.674 -0.536 0 -0.788 0.171 -1.312 0.884 -0.188 0.257 -0.2 0.245 -0.203 -0.23 -0.006 -0.582 -0.065 -0.633 -0.616 -0.526m28.486 0.141c-1.322 0.699 -1.971 2.09 -1.867 4.004 0.122 2.241 1.324 3.611 3.168 3.611 1.259 0 2.232 -0.681 2.806 -1.967 0.399 -0.893 0.44 -2.793 0.082 -3.818 -0.256 -0.734 -0.954 -1.51 -1.69 -1.881 -0.601 -0.303 -1.881 -0.277 -2.499 0.05m7.695 -0.088c-0.225 0.102 -0.492 0.287 -0.595 0.411 -0.266 0.321 -0.425 0.278 -0.425 -0.115 0 -0.306 -0.054 -0.34 -0.544 -0.34h-0.544v7.619h1.224l0.002 -1.735c0.004 -3.194 0.174 -4.114 0.843 -4.584 0.462 -0.323 1.249 -0.27 1.697 0.116l0.381 0.328 0.042 2.937 0.041 2.937h1.209v-3.109c0 -3.001 -0.011 -3.125 -0.306 -3.559 -0.497 -0.731 -0.963 -0.996 -1.835 -1.047 -0.467 -0.026 -0.949 0.031 -1.192 0.141m17.493 0.094c-0.254 0.159 -0.549 0.377 -0.655 0.484 -0.264 0.264 -0.273 0.254 -0.203 -0.223 0.061 -0.416 0.06 -0.416 -0.534 -0.374l-0.595 0.043 -0.039 3.775 -0.039 3.776h1.37v-2.59c0 -2.784 0.097 -3.299 0.696 -3.719 0.37 -0.259 1.317 -0.287 1.629 -0.047 0.478 0.367 0.532 0.728 0.532 3.565v2.805l0.646 -0.041 0.646 -0.042v-2.993c0 -2.763 -0.022 -3.035 -0.282 -3.53 -0.421 -0.802 -0.87 -1.075 -1.862 -1.131 -0.685 -0.039 -0.937 0.008 -1.31 0.242m35.475 -0.1c-0.119 0.091 -0.315 0.349 -0.437 0.574l-0.22 0.408 -0.006 -0.51c-0.005 -0.504 -0.012 -0.51 -0.549 -0.51h-0.544l-0.014 1.054q-0.02 1.888 -0.033 3.776l-0.021 2.721 0.646 0.042 0.645 0.041v-2.328c0 -1.281 0.069 -2.602 0.153 -2.936 0.241 -0.958 0.821 -1.293 1.64 -0.947 0.168 0.071 0.285 -0.013 0.442 -0.316 0.305 -0.588 0.265 -0.903 -0.133 -1.084 -0.448 -0.205 -1.294 -0.196 -1.571 0.016m10.818 0.081c-1.224 0.557 -1.964 1.976 -1.964 3.768 0 1.342 0.366 2.308 1.147 3.028 1.294 1.193 3.402 1.124 4.519 -0.148 0.379 -0.431 0.834 -1.411 0.707 -1.522 -0.026 -0.023 -0.332 -0.082 -0.678 -0.133 -0.602 -0.087 -0.637 -0.074 -0.768 0.289 -0.31 0.863 -0.962 1.221 -1.976 1.085 -0.678 -0.091 -1.227 -0.629 -1.445 -1.413 -0.259 -0.928 -0.256 -0.93 0.84 -0.878 0.543 0.026 1.683 0.004 2.534 -0.048l1.547 -0.096 -0.065 -0.904c-0.07 -0.98 -0.516 -2.039 -1.08 -2.564 -0.779 -0.726 -2.279 -0.936 -3.318 -0.465m14.495 0.025c-0.262 0.163 -0.526 0.381 -0.585 0.484 -0.177 0.305 -0.329 0.215 -0.314 -0.187 0.013 -0.345 -0.029 -0.377 -0.563 -0.415l-0.578 -0.042v7.649l0.646 -0.041 0.646 -0.042 0.068 -2.721c0.045 -1.822 0.125 -2.82 0.239 -3.02 0.275 -0.481 0.731 -0.721 1.366 -0.721 0.473 0 0.672 0.08 0.99 0.398l0.398 0.398 0.001 2.153c0.001 1.184 0.041 2.478 0.088 2.874l0.087 0.721 0.558 -0.041 0.558 -0.041 0.038 -2.857c0.043 -3.266 -0.055 -3.753 -0.885 -4.387 -0.676 -0.516 -2.057 -0.597 -2.757 -0.162m6.644 -0.006c-0.644 0.34 -1.277 1.116 -1.539 1.885 -0.268 0.788 -0.265 2.357 0.006 3.271 0.241 0.813 1.034 1.767 1.751 2.108 0.803 0.381 2.033 0.197 2.507 -0.374 0.103 -0.124 0.239 -0.225 0.303 -0.225 0.135 0 0.025 1.08 -0.176 1.745 -0.369 1.215 -2.672 1.337 -3.08 0.163 -0.128 -0.367 -0.204 -0.412 -0.695 -0.412 -0.515 0 -0.551 0.025 -0.551 0.388 0 0.996 1.439 2.062 2.779 2.06 0.783 -0.001 1.875 -0.452 2.352 -0.971 0.655 -0.713 0.719 -1.211 0.719 -5.644v-4.132h-0.612c-0.573 0 -0.612 0.024 -0.612 0.364v0.364l-0.306 -0.278c-0.168 -0.154 -0.44 -0.348 -0.603 -0.432 -0.468 -0.241 -1.679 -0.175 -2.241 0.121m-200.722 2.957c0.039 2.813 0.068 3.138 0.318 3.571 0.699 1.21 2.755 1.441 3.67 0.412l0.272 -0.306 0.069 0.39c0.063 0.352 0.122 0.389 0.612 0.389h0.543l0.036 -3.775 0.036 -3.776h-1.228v2.09c0 2.56 -0.143 3.421 -0.655 3.934 -0.434 0.434 -1.145 0.595 -1.697 0.382 -0.601 -0.231 -0.8 -0.896 -0.773 -2.583 0.013 -0.793 0.017 -1.978 0.011 -2.633l-0.013 -1.191h-1.243Zm17.179 -2.925c-0.034 0.094 -0.048 1.793 -0.03 3.776l0.033 3.605 0.646 0.042 0.646 0.041v-7.634h-0.616c-0.369 0 -0.641 0.068 -0.679 0.17m16.393 3.64v3.809h1.224v-7.619h-1.224Zm32.918 -0.008v3.817h1.292l-0.005 -3.776 -0.006 -3.775 -0.641 -0.042 -0.641 -0.041Zm16.958 -3.699c-0.033 0.055 -0.029 1.77 0.011 3.809l0.072 3.707h1.185v-7.619h-0.604c-0.332 0 -0.631 0.046 -0.665 0.102m9.841 2.856c0.003 2.58 0.036 3.029 0.253 3.504 0.444 0.966 1.227 1.381 2.358 1.247 0.555 -0.066 0.802 -0.182 1.187 -0.558l0.487 -0.475 -0.001 0.437c-0.001 0.418 0.025 0.44 0.577 0.479l0.578 0.042v-7.634h-1.225l-0.011 2.347c-0.014 2.804 -0.143 3.437 -0.791 3.873 -0.63 0.423 -1.137 0.396 -1.678 -0.087l-0.444 -0.396 -0.088 -5.737h-1.205Zm10.471 0.851v3.809h1.36v-7.619h-1.36Zm85.286 -0.008v3.817h1.364l-0.036 -3.776 -0.036 -3.775 -0.646 -0.042 -0.645 -0.041Zm-280.145 -2.64c-0.695 0.346 -0.929 0.911 -0.989 2.395 -0.033 0.792 0.009 1.505 0.107 1.798 0.367 1.115 1.603 1.531 2.443 0.823 1.095 -0.921 1.07 -4.135 -0.037 -4.86 -0.491 -0.322 -1.071 -0.381 -1.524 -0.156m14.495 0.028c-0.294 0.147 -0.603 0.471 -0.81 0.847 -0.622 1.135 -0.365 3.533 0.451 4.207 0.127 0.105 0.52 0.216 0.872 0.246 1.276 0.11 1.953 -0.744 2.046 -2.583 0.079 -1.566 -0.421 -2.529 -1.465 -2.819 -0.611 -0.17 -0.538 -0.177 -1.095 0.102m45.923 -0.097c-0.952 0.285 -1.369 1.124 -1.353 2.726 0.018 1.817 0.653 2.712 1.924 2.712 1.021 0 1.626 -0.796 1.752 -2.304 0.14 -1.665 -0.327 -2.739 -1.361 -3.129 -0.433 -0.164 -0.428 -0.164 -0.962 -0.004m6.853 0.105c-0.727 0.399 -0.994 0.974 -1.063 2.297 -0.099 1.887 0.567 3.035 1.76 3.035 1.308 0 1.9 -0.861 1.914 -2.788 0.006 -0.878 -0.053 -1.259 -0.256 -1.652 -0.518 -0.998 -1.49 -1.366 -2.355 -0.893m33.393 -0.118c-0.379 0.159 -0.837 0.681 -1.018 1.16 -0.23 0.607 -0.19 2.842 0.06 3.324 0.511 0.989 1.598 1.269 2.376 0.615 1.095 -0.921 1.07 -4.135 -0.037 -4.86 -0.403 -0.264 -1.051 -0.376 -1.381 -0.238m78.94 0.073c-0.626 0.351 -0.977 1.303 -0.976 2.644 0.001 1.746 0.592 2.734 1.634 2.734 0.631 0 1.329 -0.651 1.523 -1.421 0.191 -0.76 0.195 -2.026 0.007 -2.702 -0.311 -1.117 -1.361 -1.72 -2.188 -1.255m20.64 -0.091c-0.999 0.123 -1.577 1.059 -1.575 2.553 0.001 1.251 0.205 1.925 0.748 2.467 0.535 0.535 1.242 0.602 1.931 0.182 0.604 -0.368 0.89 -0.998 0.962 -2.115 0.129 -2.005 -0.706 -3.254 -2.065 -3.087m31.097 0.096c-0.732 0.318 -1.023 1.161 -0.958 2.776 0.043 1.05 0.112 1.405 0.352 1.793 0.575 0.931 1.577 1.08 2.277 0.337 0.509 -0.541 0.614 -0.949 0.61 -2.374 -0.004 -1.187 -0.288 -1.975 -0.882 -2.442 -0.434 -0.342 -0.771 -0.363 -1.399 -0.09m39.918 -0.01q-0.786 0.424 -1.02 1.335l-0.131 0.51h1.822c2.009 0 2.001 0.004 1.636 -0.854 -0.408 -0.956 -1.5 -1.425 -2.306 -0.991m-230.829 0.345c-0.565 0.673 -0.808 2.44 -0.492 3.58 0.079 0.283 0.329 0.727 0.557 0.986 0.354 0.403 0.502 0.473 1.003 0.473 0.473 0 0.668 -0.081 1.001 -0.414 0.521 -0.521 0.694 -1.14 0.695 -2.482 0.001 -1.765 -0.543 -2.547 -1.773 -2.547 -0.553 0 -0.7 0.06 -0.99 0.404m95.819 -0.182c-0.739 0.519 -1.075 2.402 -0.669 3.757 0.396 1.324 1.615 1.753 2.489 0.879 0.518 -0.518 0.747 -1.215 0.747 -2.273 0 -1.035 -0.207 -1.685 -0.694 -2.171 -0.33 -0.329 -0.53 -0.414 -0.985 -0.414 -0.314 0 -0.714 0.1 -0.889 0.222m156.138 -0.05c-0.911 0.452 -1.295 2.842 -0.666 4.142 0.729 1.506 2.68 1.235 3.099 -0.429 0.631 -2.504 -0.718 -4.562 -2.433 -3.713m-241.294 3.297 -0.019 1.701 1.535 -0.001c1.703 0 2.345 -0.197 2.653 -0.816 0.232 -0.465 0.217 -1.291 -0.032 -1.773 -0.342 -0.662 -0.816 -0.812 -2.562 -0.812h-1.557Zm168.371 -0.688c-0.043 0.043 -0.624 0.197 -1.29 0.342 -1.627 0.355 -2.103 0.875 -1.67 1.826 0.346 0.761 1.585 0.776 2.387 0.031 0.356 -0.332 0.486 -0.594 0.597 -1.214 0.14 -0.773 0.131 -1.141 -0.025 -0.985m34.205 0.352c-0.759 0.19 -1.472 0.423 -1.585 0.516 -0.321 0.266 -0.395 0.8 -0.172 1.232 0.244 0.47 0.447 0.56 1.278 0.559 1.215 -0.001 1.976 -0.807 1.9 -2.013l-0.041 -0.64Zm-111.859 2.564c0 0.758 0.023 0.817 0.328 0.857 0.323 0.043 0.325 0.054 0.141 0.586 -0.103 0.298 -0.273 0.604 -0.378 0.681 -0.239 0.175 -0.057 0.749 0.237 0.749 0.111 0 0.362 -0.212 0.559 -0.469 0.369 -0.484 0.573 -1.43 0.551 -2.557l-0.011 -0.58 -0.715 -0.041 -0.714 -0.041Zm0 0" fill-opacity="1" fill-rule="evenodd"></path></g></svg>